<?xml version="1.0" encoding="utf-8" standalone="no"?>
<!DOCTYPE svg PUBLIC "-//W3C//DTD SVG 1.1//EN"
  "http://www.w3.org/Graphics/SVG/1.1/DTD/svg11.dtd">
<svg xmlns:xlink="http://www.w3.org/1999/xlink" width="720pt" height="720pt" viewBox="0 0 720 720" xmlns="http://www.w3.org/2000/svg" version="1.1">
 <metadata>
  <rdf:RDF xmlns:dc="http://purl.org/dc/elements/1.1/" xmlns:cc="http://creativecommons.org/ns#" xmlns:rdf="http://www.w3.org/1999/02/22-rdf-syntax-ns#">
   <cc:Work>
    <dc:type rdf:resource="http://purl.org/dc/dcmitype/StillImage"/>
    <dc:date>2023-01-16T13:18:12.536463</dc:date>
    <dc:format>image/svg+xml</dc:format>
    <dc:creator>
     <cc:Agent>
      <dc:title>Matplotlib v3.5.0, https://matplotlib.org/</dc:title>
     </cc:Agent>
    </dc:creator>
   </cc:Work>
  </rdf:RDF>
 </metadata>
 <defs>
  <style type="text/css">*{stroke-linejoin: round; stroke-linecap: butt}</style>
 </defs>
 <g id="figure_1">
  <g id="patch_1">
   <path d="M 0 720 
L 720 720 
L 720 0 
L 0 0 
z
" style="fill: #ffffff"/>
  </g>
  <g id="axes_1">
   <g id="patch_2">
    <path d="M 90 630 
L 648 630 
L 648 86.4 
L 90 86.4 
z
" style="fill: #ffffff"/>
   </g>
   <g id="line2d_1">
    <path d="M 369 630 
L 369 86.4 
" clip-path="url(#p2ca419dd2a)" style="fill: none; stroke-dasharray: 18.5,8; stroke-dashoffset: 0; stroke: #000000; stroke-width: 5"/>
   </g>
   <g id="matplotlib.axis_1">
    <g id="xtick_1">
     <g id="line2d_2">
      <defs>
       <path id="meb362002c2" d="M 0 0 
L 0 20 
" style="stroke: #262626; stroke-width: 7"/>
      </defs>
      <g>
       <use xlink:href="#meb362002c2" x="115.363636" y="630" style="fill: #262626; stroke: #262626; stroke-width: 7"/>
      </g>
     </g>
     <g id="text_1">
      <!-- −1.0 -->
      <g style="fill: #262626" transform="translate(66.012074 689.289062)scale(0.5 -0.5)">
       <defs>
        <path id="ArialMT-2212" d="M 3381 1997 
L 356 1997 
L 356 2522 
L 3381 2522 
L 3381 1997 
z
" transform="scale(0.015625)"/>
        <path id="ArialMT-31" d="M 2384 0 
L 1822 0 
L 1822 3584 
Q 1619 3391 1289 3197 
Q 959 3003 697 2906 
L 697 3450 
Q 1169 3672 1522 3987 
Q 1875 4303 2022 4600 
L 2384 4600 
L 2384 0 
z
" transform="scale(0.015625)"/>
        <path id="ArialMT-2e" d="M 581 0 
L 581 641 
L 1222 641 
L 1222 0 
L 581 0 
z
" transform="scale(0.015625)"/>
        <path id="ArialMT-30" d="M 266 2259 
Q 266 3072 433 3567 
Q 600 4063 929 4331 
Q 1259 4600 1759 4600 
Q 2128 4600 2406 4451 
Q 2684 4303 2865 4023 
Q 3047 3744 3150 3342 
Q 3253 2941 3253 2259 
Q 3253 1453 3087 958 
Q 2922 463 2592 192 
Q 2263 -78 1759 -78 
Q 1097 -78 719 397 
Q 266 969 266 2259 
z
M 844 2259 
Q 844 1131 1108 757 
Q 1372 384 1759 384 
Q 2147 384 2411 759 
Q 2675 1134 2675 2259 
Q 2675 3391 2411 3762 
Q 2147 4134 1753 4134 
Q 1366 4134 1134 3806 
Q 844 3388 844 2259 
z
" transform="scale(0.015625)"/>
       </defs>
       <use xlink:href="#ArialMT-2212"/>
       <use xlink:href="#ArialMT-31" x="58.398438"/>
       <use xlink:href="#ArialMT-2e" x="114.013672"/>
       <use xlink:href="#ArialMT-30" x="141.796875"/>
      </g>
     </g>
    </g>
    <g id="xtick_2">
     <g id="line2d_3">
      <g>
       <use xlink:href="#meb362002c2" x="242.181818" y="630" style="fill: #262626; stroke: #262626; stroke-width: 7"/>
      </g>
     </g>
     <g id="text_2">
      <!-- −0.5 -->
      <g style="fill: #262626" transform="translate(192.830256 689.289062)scale(0.5 -0.5)">
       <defs>
        <path id="ArialMT-35" d="M 266 1200 
L 856 1250 
Q 922 819 1161 601 
Q 1400 384 1738 384 
Q 2144 384 2425 690 
Q 2706 997 2706 1503 
Q 2706 1984 2436 2262 
Q 2166 2541 1728 2541 
Q 1456 2541 1237 2417 
Q 1019 2294 894 2097 
L 366 2166 
L 809 4519 
L 3088 4519 
L 3088 3981 
L 1259 3981 
L 1013 2750 
Q 1425 3038 1878 3038 
Q 2478 3038 2890 2622 
Q 3303 2206 3303 1553 
Q 3303 931 2941 478 
Q 2500 -78 1738 -78 
Q 1113 -78 717 272 
Q 322 622 266 1200 
z
" transform="scale(0.015625)"/>
       </defs>
       <use xlink:href="#ArialMT-2212"/>
       <use xlink:href="#ArialMT-30" x="58.398438"/>
       <use xlink:href="#ArialMT-2e" x="114.013672"/>
       <use xlink:href="#ArialMT-35" x="141.796875"/>
      </g>
     </g>
    </g>
    <g id="xtick_3">
     <g id="line2d_4">
      <g>
       <use xlink:href="#meb362002c2" x="369" y="630" style="fill: #262626; stroke: #262626; stroke-width: 7"/>
      </g>
     </g>
     <g id="text_3">
      <!-- 0.0 -->
      <g style="fill: #262626" transform="translate(334.25 689.289062)scale(0.5 -0.5)">
       <use xlink:href="#ArialMT-30"/>
       <use xlink:href="#ArialMT-2e" x="55.615234"/>
       <use xlink:href="#ArialMT-30" x="83.398438"/>
      </g>
     </g>
    </g>
    <g id="xtick_4">
     <g id="line2d_5">
      <g>
       <use xlink:href="#meb362002c2" x="495.818182" y="630" style="fill: #262626; stroke: #262626; stroke-width: 7"/>
      </g>
     </g>
     <g id="text_4">
      <!-- 0.5 -->
      <g style="fill: #262626" transform="translate(461.068182 689.289062)scale(0.5 -0.5)">
       <use xlink:href="#ArialMT-30"/>
       <use xlink:href="#ArialMT-2e" x="55.615234"/>
       <use xlink:href="#ArialMT-35" x="83.398438"/>
      </g>
     </g>
    </g>
    <g id="xtick_5">
     <g id="line2d_6">
      <g>
       <use xlink:href="#meb362002c2" x="622.636364" y="630" style="fill: #262626; stroke: #262626; stroke-width: 7"/>
      </g>
     </g>
     <g id="text_5">
      <!-- 1.0 -->
      <g style="fill: #262626" transform="translate(587.886364 689.289062)scale(0.5 -0.5)">
       <use xlink:href="#ArialMT-31"/>
       <use xlink:href="#ArialMT-2e" x="55.615234"/>
       <use xlink:href="#ArialMT-30" x="83.398438"/>
      </g>
     </g>
    </g>
    <g id="text_6">
     <!-- $\overline{R}_{ee}$ -->
     <g style="fill: #262626" transform="translate(321 760.901562)scale(0.6 -0.6)">
      <defs>
       <path id="DejaVuSans-Oblique-52" d="M 1613 4147 
L 1294 2491 
L 2106 2491 
Q 2584 2491 2879 2755 
Q 3175 3019 3175 3444 
Q 3175 3784 2976 3965 
Q 2778 4147 2406 4147 
L 1613 4147 
z
M 2772 2241 
Q 2972 2194 3105 2009 
Q 3238 1825 3413 1275 
L 3809 0 
L 3144 0 
L 2778 1197 
Q 2638 1659 2453 1815 
Q 2269 1972 1888 1972 
L 1191 1972 
L 806 0 
L 172 0 
L 1081 4666 
L 2503 4666 
Q 3150 4666 3495 4373 
Q 3841 4081 3841 3531 
Q 3841 3044 3547 2687 
Q 3253 2331 2772 2241 
z
" transform="scale(0.015625)"/>
       <path id="DejaVuSans-Oblique-65" d="M 3078 2063 
Q 3088 2113 3092 2166 
Q 3097 2219 3097 2272 
Q 3097 2653 2873 2875 
Q 2650 3097 2266 3097 
Q 1838 3097 1509 2826 
Q 1181 2556 1013 2059 
L 3078 2063 
z
M 3578 1613 
L 903 1613 
Q 884 1494 878 1425 
Q 872 1356 872 1306 
Q 872 872 1139 634 
Q 1406 397 1894 397 
Q 2269 397 2603 481 
Q 2938 566 3225 728 
L 3116 159 
Q 2806 34 2476 -28 
Q 2147 -91 1806 -91 
Q 1078 -91 686 257 
Q 294 606 294 1247 
Q 294 1794 489 2264 
Q 684 2734 1063 3103 
Q 1306 3334 1642 3459 
Q 1978 3584 2356 3584 
Q 2950 3584 3301 3228 
Q 3653 2872 3653 2272 
Q 3653 2128 3634 1964 
Q 3616 1800 3578 1613 
z
" transform="scale(0.015625)"/>
      </defs>
      <use xlink:href="#DejaVuSans-Oblique-52" transform="translate(0 0.84375)"/>
      <use xlink:href="#DejaVuSans-Oblique-65" transform="translate(70.439453 -16.0625)scale(0.7)"/>
      <use xlink:href="#DejaVuSans-Oblique-65" transform="translate(113.505859 -16.0625)scale(0.7)"/>
      <path d="M 0 85.5 
L 0 91.75 
L 69.482422 91.75 
L 69.482422 85.5 
L 0 85.5 
z
"/>
     </g>
    </g>
   </g>
   <g id="matplotlib.axis_2">
    <g id="ytick_1">
     <g id="line2d_7">
      <defs>
       <path id="mfcf2e8280b" d="M 0 0 
L -20 0 
" style="stroke: #262626; stroke-width: 7"/>
      </defs>
      <g>
       <use xlink:href="#mfcf2e8280b" x="90" y="562.05" style="fill: #262626; stroke: #262626; stroke-width: 7"/>
      </g>
     </g>
     <g id="text_7">
      <!-- −4 -->
      <g style="fill: #262626" transform="translate(9.492188 579.944531)scale(0.5 -0.5)">
       <defs>
        <path id="ArialMT-34" d="M 2069 0 
L 2069 1097 
L 81 1097 
L 81 1613 
L 2172 4581 
L 2631 4581 
L 2631 1613 
L 3250 1613 
L 3250 1097 
L 2631 1097 
L 2631 0 
L 2069 0 
z
M 2069 1613 
L 2069 3678 
L 634 1613 
L 2069 1613 
z
" transform="scale(0.015625)"/>
       </defs>
       <use xlink:href="#ArialMT-2212"/>
       <use xlink:href="#ArialMT-34" x="58.398438"/>
      </g>
     </g>
    </g>
    <g id="ytick_2">
     <g id="line2d_8">
      <g>
       <use xlink:href="#mfcf2e8280b" x="90" y="426.15" style="fill: #262626; stroke: #262626; stroke-width: 7"/>
      </g>
     </g>
     <g id="text_8">
      <!-- −3 -->
      <g style="fill: #262626" transform="translate(9.492188 444.044531)scale(0.5 -0.5)">
       <defs>
        <path id="ArialMT-33" d="M 269 1209 
L 831 1284 
Q 928 806 1161 595 
Q 1394 384 1728 384 
Q 2125 384 2398 659 
Q 2672 934 2672 1341 
Q 2672 1728 2419 1979 
Q 2166 2231 1775 2231 
Q 1616 2231 1378 2169 
L 1441 2663 
Q 1497 2656 1531 2656 
Q 1891 2656 2178 2843 
Q 2466 3031 2466 3422 
Q 2466 3731 2256 3934 
Q 2047 4138 1716 4138 
Q 1388 4138 1169 3931 
Q 950 3725 888 3313 
L 325 3413 
Q 428 3978 793 4289 
Q 1159 4600 1703 4600 
Q 2078 4600 2393 4439 
Q 2709 4278 2876 4000 
Q 3044 3722 3044 3409 
Q 3044 3113 2884 2869 
Q 2725 2625 2413 2481 
Q 2819 2388 3044 2092 
Q 3269 1797 3269 1353 
Q 3269 753 2831 336 
Q 2394 -81 1725 -81 
Q 1122 -81 723 278 
Q 325 638 269 1209 
z
" transform="scale(0.015625)"/>
       </defs>
       <use xlink:href="#ArialMT-2212"/>
       <use xlink:href="#ArialMT-33" x="58.398438"/>
      </g>
     </g>
    </g>
    <g id="ytick_3">
     <g id="line2d_9">
      <g>
       <use xlink:href="#mfcf2e8280b" x="90" y="290.25" style="fill: #262626; stroke: #262626; stroke-width: 7"/>
      </g>
     </g>
     <g id="text_9">
      <!-- −2 -->
      <g style="fill: #262626" transform="translate(9.492188 308.144531)scale(0.5 -0.5)">
       <defs>
        <path id="ArialMT-32" d="M 3222 541 
L 3222 0 
L 194 0 
Q 188 203 259 391 
Q 375 700 629 1000 
Q 884 1300 1366 1694 
Q 2113 2306 2375 2664 
Q 2638 3022 2638 3341 
Q 2638 3675 2398 3904 
Q 2159 4134 1775 4134 
Q 1369 4134 1125 3890 
Q 881 3647 878 3216 
L 300 3275 
Q 359 3922 746 4261 
Q 1134 4600 1788 4600 
Q 2447 4600 2831 4234 
Q 3216 3869 3216 3328 
Q 3216 3053 3103 2787 
Q 2991 2522 2730 2228 
Q 2469 1934 1863 1422 
Q 1356 997 1212 845 
Q 1069 694 975 541 
L 3222 541 
z
" transform="scale(0.015625)"/>
       </defs>
       <use xlink:href="#ArialMT-2212"/>
       <use xlink:href="#ArialMT-32" x="58.398438"/>
      </g>
     </g>
    </g>
    <g id="ytick_4">
     <g id="line2d_10">
      <g>
       <use xlink:href="#mfcf2e8280b" x="90" y="154.35" style="fill: #262626; stroke: #262626; stroke-width: 7"/>
      </g>
     </g>
     <g id="text_10">
      <!-- −1 -->
      <g style="fill: #262626" transform="translate(9.492188 172.244531)scale(0.5 -0.5)">
       <use xlink:href="#ArialMT-2212"/>
       <use xlink:href="#ArialMT-31" x="58.398438"/>
      </g>
     </g>
    </g>
    <g id="text_11">
     <!-- $\Delta S/k_B$  -->
     <g style="fill: #262626" transform="translate(-6.432813 449.1)rotate(-90)scale(0.6 -0.6)">
      <defs>
       <path id="DejaVuSans-394" d="M 2188 4044 
L 906 525 
L 3472 525 
L 2188 4044 
z
M 50 0 
L 1831 4666 
L 2547 4666 
L 4325 0 
L 50 0 
z
" transform="scale(0.015625)"/>
       <path id="DejaVuSans-Oblique-53" d="M 3859 4513 
L 3738 3897 
Q 3422 4066 3111 4152 
Q 2800 4238 2509 4238 
Q 1944 4238 1609 3991 
Q 1275 3744 1275 3334 
Q 1275 3109 1398 2989 
Q 1522 2869 2034 2731 
L 2413 2638 
Q 3053 2472 3303 2217 
Q 3553 1963 3553 1503 
Q 3553 797 2998 353 
Q 2444 -91 1538 -91 
Q 1166 -91 791 -17 
Q 416 56 38 206 
L 166 856 
Q 513 641 861 531 
Q 1209 422 1556 422 
Q 2147 422 2503 684 
Q 2859 947 2859 1369 
Q 2859 1650 2717 1795 
Q 2575 1941 2106 2059 
L 1728 2156 
Q 1081 2325 845 2545 
Q 609 2766 609 3163 
Q 609 3859 1145 4304 
Q 1681 4750 2541 4750 
Q 2875 4750 3203 4690 
Q 3531 4631 3859 4513 
z
" transform="scale(0.015625)"/>
       <path id="DejaVuSans-2f" d="M 1625 4666 
L 2156 4666 
L 531 -594 
L 0 -594 
L 1625 4666 
z
" transform="scale(0.015625)"/>
       <path id="DejaVuSans-Oblique-6b" d="M 1172 4863 
L 1747 4863 
L 1197 2028 
L 3169 3500 
L 3916 3500 
L 1716 1825 
L 3322 0 
L 2625 0 
L 1131 1709 
L 800 0 
L 225 0 
L 1172 4863 
z
" transform="scale(0.015625)"/>
       <path id="DejaVuSans-Oblique-42" d="M 1081 4666 
L 2694 4666 
Q 3350 4666 3675 4422 
Q 4000 4178 4000 3688 
Q 4000 3238 3720 2911 
Q 3441 2584 2988 2516 
Q 3375 2428 3569 2181 
Q 3763 1934 3763 1522 
Q 3763 819 3242 409 
Q 2722 0 1819 0 
L 172 0 
L 1081 4666 
z
M 1234 2228 
L 903 519 
L 1919 519 
Q 2491 519 2800 781 
Q 3109 1044 3109 1522 
Q 3109 1891 2904 2059 
Q 2700 2228 2247 2228 
L 1234 2228 
z
M 1606 4147 
L 1331 2741 
L 2272 2741 
Q 2775 2741 3058 2959 
Q 3341 3178 3341 3566 
Q 3341 3869 3150 4008 
Q 2959 4147 2541 4147 
L 1606 4147 
z
" transform="scale(0.015625)"/>
       <path id="ArialMT-20" transform="scale(0.015625)"/>
      </defs>
      <use xlink:href="#DejaVuSans-394" transform="translate(0 0.015625)"/>
      <use xlink:href="#DejaVuSans-Oblique-53" transform="translate(68.408203 0.015625)"/>
      <use xlink:href="#DejaVuSans-2f" transform="translate(131.884766 0.015625)"/>
      <use xlink:href="#DejaVuSans-Oblique-6b" transform="translate(165.576172 0.015625)"/>
      <use xlink:href="#DejaVuSans-Oblique-42" transform="translate(223.486328 -16.390625)scale(0.7)"/>
      <use xlink:href="#ArialMT-20" transform="translate(274.243164 0.015625)"/>
     </g>
    </g>
   </g>
   <g id="PathCollection_1">
    <defs>
     <path id="C0_0_88b1169d0e" d="M 0 7.071068 
C 1.875269 7.071068 3.673985 6.326016 5 5 
C 6.326016 3.673985 7.071068 1.875269 7.071068 -0 
C 7.071068 -1.875269 6.326016 -3.673985 5 -5 
C 3.673985 -6.326016 1.875269 -7.071068 0 -7.071068 
C -1.875269 -7.071068 -3.673985 -6.326016 -5 -5 
C -6.326016 -3.673985 -7.071068 -1.875269 -7.071068 0 
C -7.071068 1.875269 -6.326016 3.673985 -5 5 
C -3.673985 6.326016 -1.875269 7.071068 0 7.071068 
z
"/>
    </defs>
    <g clip-path="url(#p2ca419dd2a)">
     <use xlink:href="#C0_0_88b1169d0e" x="557.902905" y="255.037851" style="fill: #f4fbf2; stroke: #000000; stroke-width: 3"/>
    </g>
    <g clip-path="url(#p2ca419dd2a)">
     <use xlink:href="#C0_0_88b1169d0e" x="477.506771" y="251.059637" style="fill: #f0f9ec; stroke: #000000; stroke-width: 3"/>
    </g>
    <g clip-path="url(#p2ca419dd2a)">
     <use xlink:href="#C0_0_88b1169d0e" x="513.236883" y="264.19083" style="fill: #f0f9ed; stroke: #000000; stroke-width: 3"/>
    </g>
    <g clip-path="url(#p2ca419dd2a)">
     <use xlink:href="#C0_0_88b1169d0e" x="494.781392" y="255.798431" style="fill: #e1f3dc; stroke: #000000; stroke-width: 3"/>
    </g>
    <g clip-path="url(#p2ca419dd2a)">
     <use xlink:href="#C0_0_88b1169d0e" x="528.26291" y="257.690108" style="fill: #e9f7e5; stroke: #000000; stroke-width: 3"/>
    </g>
    <g clip-path="url(#p2ca419dd2a)">
     <use xlink:href="#C0_0_88b1169d0e" x="531.23523" y="241.146507" style="fill: #caeac3; stroke: #000000; stroke-width: 3"/>
    </g>
    <g clip-path="url(#p2ca419dd2a)">
     <use xlink:href="#C0_0_88b1169d0e" x="451.031095" y="203.123358" style="fill: #e8f6e4; stroke: #000000; stroke-width: 3"/>
    </g>
    <g clip-path="url(#p2ca419dd2a)">
     <use xlink:href="#C0_0_88b1169d0e" x="417.632506" y="166.186506" style="fill: #aadda4; stroke: #000000; stroke-width: 3"/>
    </g>
    <g clip-path="url(#p2ca419dd2a)">
     <use xlink:href="#C0_0_88b1169d0e" x="510.510532" y="159.629274" style="fill: #84cc83; stroke: #000000; stroke-width: 3"/>
    </g>
    <g clip-path="url(#p2ca419dd2a)">
     <use xlink:href="#C0_0_88b1169d0e" x="341.862106" y="166.312288" style="fill: #94d390; stroke: #000000; stroke-width: 3"/>
    </g>
    <g clip-path="url(#p2ca419dd2a)">
     <use xlink:href="#C0_0_88b1169d0e" x="483.373547" y="185.368499" style="fill: #d6efd0; stroke: #000000; stroke-width: 3"/>
    </g>
    <g clip-path="url(#p2ca419dd2a)">
     <use xlink:href="#C0_0_88b1169d0e" x="400.732094" y="155.736109" style="fill: #c3e7bc; stroke: #000000; stroke-width: 3"/>
    </g>
    <g clip-path="url(#p2ca419dd2a)">
     <use xlink:href="#C0_0_88b1169d0e" x="287.351847" y="189.259391" style="fill: #f4fbf2; stroke: #000000; stroke-width: 3"/>
    </g>
    <g clip-path="url(#p2ca419dd2a)">
     <use xlink:href="#C0_0_88b1169d0e" x="455.669284" y="219.104713" style="fill: #a8dca2; stroke: #000000; stroke-width: 3"/>
    </g>
    <g clip-path="url(#p2ca419dd2a)">
     <use xlink:href="#C0_0_88b1169d0e" x="371.071998" y="184.310124" style="fill: #c2e7bb; stroke: #000000; stroke-width: 3"/>
    </g>
    <g clip-path="url(#p2ca419dd2a)">
     <use xlink:href="#C0_0_88b1169d0e" x="464.420468" y="160.774969" style="fill: #46ae60; stroke: #000000; stroke-width: 3"/>
    </g>
    <g clip-path="url(#p2ca419dd2a)">
     <use xlink:href="#C0_0_88b1169d0e" x="344.314734" y="176.262153" style="fill: #a4da9e; stroke: #000000; stroke-width: 3"/>
    </g>
    <g clip-path="url(#p2ca419dd2a)">
     <use xlink:href="#C0_0_88b1169d0e" x="302.093664" y="155.928819" style="fill: #ecf8e8; stroke: #000000; stroke-width: 3"/>
    </g>
    <g clip-path="url(#p2ca419dd2a)">
     <use xlink:href="#C0_0_88b1169d0e" x="288.639678" y="149.977669" style="fill: #ddf2d8; stroke: #000000; stroke-width: 3"/>
    </g>
    <g clip-path="url(#p2ca419dd2a)">
     <use xlink:href="#C0_0_88b1169d0e" x="683.565356" y="136.147015" style="fill: #2d954d; stroke: #000000; stroke-width: 3"/>
    </g>
    <g clip-path="url(#p2ca419dd2a)">
     <use xlink:href="#C0_0_88b1169d0e" x="372.61217" y="124.297463" style="fill: #6dc072; stroke: #000000; stroke-width: 3"/>
    </g>
    <g clip-path="url(#p2ca419dd2a)">
     <use xlink:href="#C0_0_88b1169d0e" x="442.112252" y="163.493867" style="fill: #52b365; stroke: #000000; stroke-width: 3"/>
    </g>
    <g clip-path="url(#p2ca419dd2a)">
     <use xlink:href="#C0_0_88b1169d0e" x="555.731564" y="214.688341" style="fill: #f1faee; stroke: #000000; stroke-width: 3"/>
    </g>
    <g clip-path="url(#p2ca419dd2a)">
     <use xlink:href="#C0_0_88b1169d0e" x="558.570019" y="155.547641" style="fill: #75c477; stroke: #000000; stroke-width: 3"/>
    </g>
    <g clip-path="url(#p2ca419dd2a)">
     <use xlink:href="#C0_0_88b1169d0e" x="401.175764" y="161.094635" style="fill: #84cc83; stroke: #000000; stroke-width: 3"/>
    </g>
    <g clip-path="url(#p2ca419dd2a)">
     <use xlink:href="#C0_0_88b1169d0e" x="292.832928" y="149.45452" style="fill: #dbf1d6; stroke: #000000; stroke-width: 3"/>
    </g>
    <g clip-path="url(#p2ca419dd2a)">
     <use xlink:href="#C0_0_88b1169d0e" x="699.575532" y="204.198449" style="fill: #ceecc8; stroke: #000000; stroke-width: 3"/>
    </g>
    <g clip-path="url(#p2ca419dd2a)">
     <use xlink:href="#C0_0_88b1169d0e" x="593.583388" y="175.239704" style="fill: #d8f0d2; stroke: #000000; stroke-width: 3"/>
    </g>
    <g clip-path="url(#p2ca419dd2a)">
     <use xlink:href="#C0_0_88b1169d0e" x="596.341468" y="184.580817" style="fill: #81ca81; stroke: #000000; stroke-width: 3"/>
    </g>
    <g clip-path="url(#p2ca419dd2a)">
     <use xlink:href="#C0_0_88b1169d0e" x="506.084765" y="249.027264" style="fill: #e7f6e2; stroke: #000000; stroke-width: 3"/>
    </g>
    <g clip-path="url(#p2ca419dd2a)">
     <use xlink:href="#C0_0_88b1169d0e" x="404.906676" y="146.710924" style="fill: #18823d; stroke: #000000; stroke-width: 3"/>
    </g>
    <g clip-path="url(#p2ca419dd2a)">
     <use xlink:href="#C0_0_88b1169d0e" x="397.91632" y="228.933726" style="fill: #f0f9ec; stroke: #000000; stroke-width: 3"/>
    </g>
    <g clip-path="url(#p2ca419dd2a)">
     <use xlink:href="#C0_0_88b1169d0e" x="374.918152" y="141.13724" style="fill: #91d28e; stroke: #000000; stroke-width: 3"/>
    </g>
    <g clip-path="url(#p2ca419dd2a)">
     <use xlink:href="#C0_0_88b1169d0e" x="493.337752" y="217.229162" style="fill: #f6fcf4; stroke: #000000; stroke-width: 3"/>
    </g>
    <g clip-path="url(#p2ca419dd2a)">
     <use xlink:href="#C0_0_88b1169d0e" x="385.251842" y="185.742177" style="fill: #dff3da; stroke: #000000; stroke-width: 3"/>
    </g>
    <g clip-path="url(#p2ca419dd2a)">
     <use xlink:href="#C0_0_88b1169d0e" x="430.407897" y="209.696446" style="fill: #c8e9c1; stroke: #000000; stroke-width: 3"/>
    </g>
    <g clip-path="url(#p2ca419dd2a)">
     <use xlink:href="#C0_0_88b1169d0e" x="336.793741" y="174.515836" style="fill: #dbf1d6; stroke: #000000; stroke-width: 3"/>
    </g>
    <g clip-path="url(#p2ca419dd2a)">
     <use xlink:href="#C0_0_88b1169d0e" x="422.127356" y="151.896859" style="fill: #8dd08a; stroke: #000000; stroke-width: 3"/>
    </g>
    <g clip-path="url(#p2ca419dd2a)">
     <use xlink:href="#C0_0_88b1169d0e" x="417.094156" y="157.400305" style="fill: #a3da9d; stroke: #000000; stroke-width: 3"/>
    </g>
   </g>
   <g id="PathCollection_2">
    <defs>
     <path id="C1_0_3208ce8db4" d="M 0 7.071068 
C 1.875269 7.071068 3.673985 6.326016 5 5 
C 6.326016 3.673985 7.071068 1.875269 7.071068 -0 
C 7.071068 -1.875269 6.326016 -3.673985 5 -5 
C 3.673985 -6.326016 1.875269 -7.071068 0 -7.071068 
C -1.875269 -7.071068 -3.673985 -6.326016 -5 -5 
C -6.326016 -3.673985 -7.071068 -1.875269 -7.071068 0 
C -7.071068 1.875269 -6.326016 3.673985 -5 5 
C -3.673985 6.326016 -1.875269 7.071068 0 7.071068 
z
"/>
    </defs>
    <g clip-path="url(#p2ca419dd2a)">
     <use xlink:href="#C1_0_3208ce8db4" x="284.803915" y="346.194076" style="fill: #9ab4d6; stroke: #000000; stroke-width: 3"/>
    </g>
    <g clip-path="url(#p2ca419dd2a)">
     <use xlink:href="#C1_0_3208ce8db4" x="522.005776" y="347.189975" style="fill: #8c6ab1; stroke: #000000; stroke-width: 3"/>
    </g>
    <g clip-path="url(#p2ca419dd2a)">
     <use xlink:href="#C1_0_3208ce8db4" x="403.694329" y="303.653564" style="fill: #adc7e0; stroke: #000000; stroke-width: 3"/>
    </g>
    <g clip-path="url(#p2ca419dd2a)">
     <use xlink:href="#C1_0_3208ce8db4" x="285.235079" y="480.748341" style="fill: #4d004b; stroke: #000000; stroke-width: 3"/>
    </g>
    <g clip-path="url(#p2ca419dd2a)">
     <use xlink:href="#C1_0_3208ce8db4" x="347.295986" y="448.653988" style="fill: #4d004b; stroke: #000000; stroke-width: 3"/>
    </g>
    <g clip-path="url(#p2ca419dd2a)">
     <use xlink:href="#C1_0_3208ce8db4" x="336.923867" y="575.862235" style="fill: #4d004b; stroke: #000000; stroke-width: 3"/>
    </g>
    <g clip-path="url(#p2ca419dd2a)">
     <use xlink:href="#C1_0_3208ce8db4" x="480.603389" y="293.862223" style="fill: #cfdfed; stroke: #000000; stroke-width: 3"/>
    </g>
    <g clip-path="url(#p2ca419dd2a)">
     <use xlink:href="#C1_0_3208ce8db4" x="233.398014" y="317.211868" style="fill: #4d004b; stroke: #000000; stroke-width: 3"/>
    </g>
    <g clip-path="url(#p2ca419dd2a)">
     <use xlink:href="#C1_0_3208ce8db4" x="313.414325" y="216.103404" style="fill: #873a98; stroke: #000000; stroke-width: 3"/>
    </g>
    <g clip-path="url(#p2ca419dd2a)">
     <use xlink:href="#C1_0_3208ce8db4" x="291.461097" y="254.041288" style="fill: #8c8cc1; stroke: #000000; stroke-width: 3"/>
    </g>
    <g clip-path="url(#p2ca419dd2a)">
     <use xlink:href="#C1_0_3208ce8db4" x="230.79765" y="299.537665" style="fill: #4d004b; stroke: #000000; stroke-width: 3"/>
    </g>
    <g clip-path="url(#p2ca419dd2a)">
     <use xlink:href="#C1_0_3208ce8db4" x="348.501286" y="220.791163" style="fill: #bcd1e5; stroke: #000000; stroke-width: 3"/>
    </g>
    <g clip-path="url(#p2ca419dd2a)">
     <use xlink:href="#C1_0_3208ce8db4" x="252.77276" y="232.121521" style="fill: #a1bedb; stroke: #000000; stroke-width: 3"/>
    </g>
    <g clip-path="url(#p2ca419dd2a)">
     <use xlink:href="#C1_0_3208ce8db4" x="400.786898" y="227.63774" style="fill: #9bb6d7; stroke: #000000; stroke-width: 3"/>
    </g>
    <g clip-path="url(#p2ca419dd2a)">
     <use xlink:href="#C1_0_3208ce8db4" x="248.477289" y="209.514833" style="fill: #e2edf5; stroke: #000000; stroke-width: 3"/>
    </g>
    <g clip-path="url(#p2ca419dd2a)">
     <use xlink:href="#C1_0_3208ce8db4" x="298.085144" y="295.219118" style="fill: #8a51a5; stroke: #000000; stroke-width: 3"/>
    </g>
    <g clip-path="url(#p2ca419dd2a)">
     <use xlink:href="#C1_0_3208ce8db4" x="449.932722" y="289.079764" style="fill: #a5c1dc; stroke: #000000; stroke-width: 3"/>
    </g>
    <g clip-path="url(#p2ca419dd2a)">
     <use xlink:href="#C1_0_3208ce8db4" x="223.991831" y="356.519809" style="fill: #4d004b; stroke: #000000; stroke-width: 3"/>
    </g>
    <g clip-path="url(#p2ca419dd2a)">
     <use xlink:href="#C1_0_3208ce8db4" x="245.807372" y="478.816829" style="fill: #4d004b; stroke: #000000; stroke-width: 3"/>
    </g>
    <g clip-path="url(#p2ca419dd2a)">
     <use xlink:href="#C1_0_3208ce8db4" x="322.510485" y="185.308858" style="fill: #a9c4de; stroke: #000000; stroke-width: 3"/>
    </g>
    <g clip-path="url(#p2ca419dd2a)">
     <use xlink:href="#C1_0_3208ce8db4" x="250.287379" y="287.929804" style="fill: #8c69b0; stroke: #000000; stroke-width: 3"/>
    </g>
    <g clip-path="url(#p2ca419dd2a)">
     <use xlink:href="#C1_0_3208ce8db4" x="344.324346" y="191.225204" style="fill: #98aed3; stroke: #000000; stroke-width: 3"/>
    </g>
    <g clip-path="url(#p2ca419dd2a)">
     <use xlink:href="#C1_0_3208ce8db4" x="265.591116" y="201.994688" style="fill: #8c7eba; stroke: #000000; stroke-width: 3"/>
    </g>
    <g clip-path="url(#p2ca419dd2a)">
     <use xlink:href="#C1_0_3208ce8db4" x="328.908381" y="428.177692" style="fill: #4d004b; stroke: #000000; stroke-width: 3"/>
    </g>
    <g clip-path="url(#p2ca419dd2a)">
     <use xlink:href="#C1_0_3208ce8db4" x="303.199486" y="517.93423" style="fill: #4d004b; stroke: #000000; stroke-width: 3"/>
    </g>
    <g clip-path="url(#p2ca419dd2a)">
     <use xlink:href="#C1_0_3208ce8db4" x="322.139919" y="196.468815" style="fill: #f5fafc; stroke: #000000; stroke-width: 3"/>
    </g>
    <g clip-path="url(#p2ca419dd2a)">
     <use xlink:href="#C1_0_3208ce8db4" x="308.165662" y="162.718766" style="fill: #f3f9fc; stroke: #000000; stroke-width: 3"/>
    </g>
    <g clip-path="url(#p2ca419dd2a)">
     <use xlink:href="#C1_0_3208ce8db4" x="290.402343" y="222.825041" style="fill: #bcd1e5; stroke: #000000; stroke-width: 3"/>
    </g>
    <g clip-path="url(#p2ca419dd2a)">
     <use xlink:href="#C1_0_3208ce8db4" x="225.042702" y="249.748894" style="fill: #92a3cd; stroke: #000000; stroke-width: 3"/>
    </g>
    <g clip-path="url(#p2ca419dd2a)">
     <use xlink:href="#C1_0_3208ce8db4" x="283.760076" y="263.662026" style="fill: #9cb7d7; stroke: #000000; stroke-width: 3"/>
    </g>
    <g clip-path="url(#p2ca419dd2a)">
     <use xlink:href="#C1_0_3208ce8db4" x="342.414975" y="279.327263" style="fill: #8c85be; stroke: #000000; stroke-width: 3"/>
    </g>
    <g clip-path="url(#p2ca419dd2a)">
     <use xlink:href="#C1_0_3208ce8db4" x="256.244818" y="216.076327" style="fill: #acc6df; stroke: #000000; stroke-width: 3"/>
    </g>
    <g clip-path="url(#p2ca419dd2a)">
     <use xlink:href="#C1_0_3208ce8db4" x="356.322777" y="261.050333" style="fill: #a0bddb; stroke: #000000; stroke-width: 3"/>
    </g>
    <g clip-path="url(#p2ca419dd2a)">
     <use xlink:href="#C1_0_3208ce8db4" x="484.913466" y="227.631111" style="fill: #f0f7fa; stroke: #000000; stroke-width: 3"/>
    </g>
    <g clip-path="url(#p2ca419dd2a)">
     <use xlink:href="#C1_0_3208ce8db4" x="301.809755" y="165.274927" style="fill: #edf5f9; stroke: #000000; stroke-width: 3"/>
    </g>
    <g clip-path="url(#p2ca419dd2a)">
     <use xlink:href="#C1_0_3208ce8db4" x="298.566912" y="186.111345" style="fill: #a6c2dd; stroke: #000000; stroke-width: 3"/>
    </g>
    <g clip-path="url(#p2ca419dd2a)">
     <use xlink:href="#C1_0_3208ce8db4" x="500.375399" y="295.786551" style="fill: #894fa3; stroke: #000000; stroke-width: 3"/>
    </g>
    <g clip-path="url(#p2ca419dd2a)">
     <use xlink:href="#C1_0_3208ce8db4" x="275.657781" y="320.554505" style="fill: #4d004b; stroke: #000000; stroke-width: 3"/>
    </g>
    <g clip-path="url(#p2ca419dd2a)">
     <use xlink:href="#C1_0_3208ce8db4" x="347.23455" y="190.964422" style="fill: #98b0d3; stroke: #000000; stroke-width: 3"/>
    </g>
    <g clip-path="url(#p2ca419dd2a)">
     <use xlink:href="#C1_0_3208ce8db4" x="245.298167" y="225.035004" style="fill: #ecf4f9; stroke: #000000; stroke-width: 3"/>
    </g>
    <g clip-path="url(#p2ca419dd2a)">
     <use xlink:href="#C1_0_3208ce8db4" x="382.726255" y="291.096686" style="fill: #99b2d5; stroke: #000000; stroke-width: 3"/>
    </g>
    <g clip-path="url(#p2ca419dd2a)">
     <use xlink:href="#C1_0_3208ce8db4" x="308.703999" y="272.89747" style="fill: #831a83; stroke: #000000; stroke-width: 3"/>
    </g>
    <g clip-path="url(#p2ca419dd2a)">
     <use xlink:href="#C1_0_3208ce8db4" x="295.011329" y="283.178827" style="fill: #863092; stroke: #000000; stroke-width: 3"/>
    </g>
    <g clip-path="url(#p2ca419dd2a)">
     <use xlink:href="#C1_0_3208ce8db4" x="207.355331" y="446.151528" style="fill: #4d004b; stroke: #000000; stroke-width: 3"/>
    </g>
    <g clip-path="url(#p2ca419dd2a)">
     <use xlink:href="#C1_0_3208ce8db4" x="289.96654" y="299.501771" style="fill: #873b99; stroke: #000000; stroke-width: 3"/>
    </g>
    <g clip-path="url(#p2ca419dd2a)">
     <use xlink:href="#C1_0_3208ce8db4" x="289.96654" y="299.501771" style="fill: #873b99; stroke: #000000; stroke-width: 3"/>
    </g>
    <g clip-path="url(#p2ca419dd2a)">
     <use xlink:href="#C1_0_3208ce8db4" x="183.641139" y="349.678828" style="fill: #873d9a; stroke: #000000; stroke-width: 3"/>
    </g>
    <g clip-path="url(#p2ca419dd2a)">
     <use xlink:href="#C1_0_3208ce8db4" x="254.665327" y="238.641258" style="fill: #a1bedb; stroke: #000000; stroke-width: 3"/>
    </g>
    <g clip-path="url(#p2ca419dd2a)">
     <use xlink:href="#C1_0_3208ce8db4" x="299.538678" y="399.715973" style="fill: #4d004b; stroke: #000000; stroke-width: 3"/>
    </g>
    <g clip-path="url(#p2ca419dd2a)">
     <use xlink:href="#C1_0_3208ce8db4" x="439.566393" y="289.819034" style="fill: #afc8e0; stroke: #000000; stroke-width: 3"/>
    </g>
    <g clip-path="url(#p2ca419dd2a)">
     <use xlink:href="#C1_0_3208ce8db4" x="429.57477" y="308.34123" style="fill: #aac4de; stroke: #000000; stroke-width: 3"/>
    </g>
    <g clip-path="url(#p2ca419dd2a)">
     <use xlink:href="#C1_0_3208ce8db4" x="340.091647" y="321.142668" style="fill: #8f9bc9; stroke: #000000; stroke-width: 3"/>
    </g>
    <g clip-path="url(#p2ca419dd2a)">
     <use xlink:href="#C1_0_3208ce8db4" x="327.642015" y="475.919435" style="fill: #4d004b; stroke: #000000; stroke-width: 3"/>
    </g>
    <g clip-path="url(#p2ca419dd2a)">
     <use xlink:href="#C1_0_3208ce8db4" x="427.567128" y="195.205633" style="fill: #e9f2f8; stroke: #000000; stroke-width: 3"/>
    </g>
    <g clip-path="url(#p2ca419dd2a)">
     <use xlink:href="#C1_0_3208ce8db4" x="336.30753" y="259.716493" style="fill: #8a51a5; stroke: #000000; stroke-width: 3"/>
    </g>
   </g>
   <g id="PathCollection_3">
    <defs>
     <path id="mdcaf1fda2c" d="M 0 7.071068 
C 1.875269 7.071068 3.673985 6.326016 5 5 
C 6.326016 3.673985 7.071068 1.875269 7.071068 0 
C 7.071068 -1.875269 6.326016 -3.673985 5 -5 
C 3.673985 -6.326016 1.875269 -7.071068 0 -7.071068 
C -1.875269 -7.071068 -3.673985 -6.326016 -5 -5 
C -6.326016 -3.673985 -7.071068 -1.875269 -7.071068 0 
C -7.071068 1.875269 -6.326016 3.673985 -5 5 
C -3.673985 6.326016 -1.875269 7.071068 0 7.071068 
z
" style="stroke: #000000; stroke-width: 3"/>
    </defs>
    <g clip-path="url(#p2ca419dd2a)">
     <use xlink:href="#mdcaf1fda2c" x="356.820828" y="265.878117" style="fill: #ff0000; stroke: #000000; stroke-width: 3"/>
     <use xlink:href="#mdcaf1fda2c" x="357.375132" y="146.65992" style="fill: #ff0000; stroke: #000000; stroke-width: 3"/>
     <use xlink:href="#mdcaf1fda2c" x="370.033348" y="192.427023" style="fill: #ff0000; stroke: #000000; stroke-width: 3"/>
     <use xlink:href="#mdcaf1fda2c" x="371.358787" y="294.029839" style="fill: #ff0000; stroke: #000000; stroke-width: 3"/>
     <use xlink:href="#mdcaf1fda2c" x="373.141115" y="242.368276" style="fill: #ff0000; stroke: #000000; stroke-width: 3"/>
     <use xlink:href="#mdcaf1fda2c" x="374.094262" y="219.733579" style="fill: #ff0000; stroke: #000000; stroke-width: 3"/>
     <use xlink:href="#mdcaf1fda2c" x="377.101643" y="249.859364" style="fill: #ff0000; stroke: #000000; stroke-width: 3"/>
    </g>
   </g>
   <g id="patch_3">
    <path d="M 90 630 
L 90 86.4 
" style="fill: none; stroke: #262626; stroke-width: 7; stroke-linejoin: miter; stroke-linecap: square"/>
   </g>
   <g id="patch_4">
    <path d="M 648 630 
L 648 86.4 
" style="fill: none; stroke: #262626; stroke-width: 7; stroke-linejoin: miter; stroke-linecap: square"/>
   </g>
   <g id="patch_5">
    <path d="M 90 630 
L 648 630 
" style="fill: none; stroke: #262626; stroke-width: 7; stroke-linejoin: miter; stroke-linecap: square"/>
   </g>
   <g id="patch_6">
    <path d="M 90 86.4 
L 648 86.4 
" style="fill: none; stroke: #262626; stroke-width: 7; stroke-linejoin: miter; stroke-linecap: square"/>
   </g>
  </g>
 </g>
 <defs>
  <clipPath id="p2ca419dd2a">
   <rect x="90" y="86.4" width="558" height="543.6"/>
  </clipPath>
 </defs>
</svg>
