<?xml version="1.0" encoding="utf-8" standalone="no"?>
<!DOCTYPE svg PUBLIC "-//W3C//DTD SVG 1.1//EN"
  "http://www.w3.org/Graphics/SVG/1.1/DTD/svg11.dtd">
<svg xmlns:xlink="http://www.w3.org/1999/xlink" width="720pt" height="720pt" viewBox="0 0 720 720" xmlns="http://www.w3.org/2000/svg" version="1.1">
 <metadata>
  <rdf:RDF xmlns:dc="http://purl.org/dc/elements/1.1/" xmlns:cc="http://creativecommons.org/ns#" xmlns:rdf="http://www.w3.org/1999/02/22-rdf-syntax-ns#">
   <cc:Work>
    <dc:type rdf:resource="http://purl.org/dc/dcmitype/StillImage"/>
    <dc:date>2023-01-16T13:18:11.947397</dc:date>
    <dc:format>image/svg+xml</dc:format>
    <dc:creator>
     <cc:Agent>
      <dc:title>Matplotlib v3.5.0, https://matplotlib.org/</dc:title>
     </cc:Agent>
    </dc:creator>
   </cc:Work>
  </rdf:RDF>
 </metadata>
 <defs>
  <style type="text/css">*{stroke-linejoin: round; stroke-linecap: butt}</style>
 </defs>
 <g id="figure_1">
  <g id="patch_1">
   <path d="M 0 720 
L 720 720 
L 720 0 
L 0 0 
z
" style="fill: #ffffff"/>
  </g>
  <g id="axes_1">
   <g id="patch_2">
    <path d="M 90 630 
L 648 630 
L 648 86.4 
L 90 86.4 
z
" style="fill: #ffffff"/>
   </g>
   <g id="line2d_1">
    <path d="M 145.8 151.628782 
L 145.8 151.628782 
L 145.8 151.628782 
L 145.8 151.628782 
L 145.8 151.628782 
L 145.8 151.628782 
L 145.8 151.628782 
L 145.8 151.628782 
L 145.8 151.628782 
L 145.8 151.628782 
L 145.8 151.628782 
L 145.8 151.628782 
L 156.96 165.117241 
L 159.75 168.137321 
L 173.7 181.62578 
L 173.7 181.62578 
L 173.7 181.62578 
L 173.7 181.62578 
L 173.7 181.62578 
L 176.49 184.051627 
L 176.49 184.051627 
L 179.28 186.40045 
L 179.28 186.40045 
L 182.07 188.67699 
L 184.86 190.885563 
L 184.86 190.885563 
L 184.86 190.885563 
L 184.86 190.885563 
L 187.65 193.03011 
L 187.65 193.03011 
L 187.65 193.03011 
L 187.65 193.03011 
L 190.44 195.114239 
L 190.44 195.114239 
L 190.44 195.114239 
L 193.23 197.141262 
L 193.23 197.141262 
L 196.02 199.114224 
L 196.02 199.114224 
L 196.02 199.114224 
L 196.02 199.114224 
L 198.81 201.035935 
L 201.6 202.90899 
L 204.39 204.735791 
L 207.18 206.518569 
L 209.97 208.259395 
L 218.34 213.248816 
L 218.34 213.248816 
L 221.13 214.839881 
L 221.13 214.839881 
L 226.71 217.922898 
L 226.71 217.922898 
L 229.5 219.417529 
L 229.5 219.417529 
L 229.5 219.417529 
L 229.5 219.417529 
L 229.5 219.417529 
L 229.5 219.417529 
L 229.5 219.417529 
L 229.5 219.417529 
L 229.5 219.417529 
L 229.5 219.417529 
L 232.29 220.882561 
L 237.87 223.728362 
L 243.45 226.468738 
L 254.61 231.662569 
L 254.61 231.662569 
L 260.19 234.128854 
L 260.19 234.128854 
L 282.51 243.245814 
L 293.67 247.414901 
L 307.62 252.316143 
L 321.57 256.912758 
L 321.57 256.912758 
L 324.36 257.798777 
L 329.94 259.539603 
L 338.31 262.076367 
L 338.31 262.076367 
L 341.1 262.902987 
L 346.68 264.529024 
L 357.84 267.677656 
L 360.63 268.444313 
L 363.42 269.203106 
L 369 270.697737 
L 369 270.697737 
L 369 270.697737 
L 369 270.697737 
L 369 270.697737 
L 374.58 272.162769 
L 385.74 275.00857 
L 388.53 275.703239 
L 472.23 293.987971 
L 508.5 300.694736 
L 544.77 306.843718 
" clip-path="url(#p6c9219aa99)" style="fill: none; stroke-dasharray: 18.5,8; stroke-dashoffset: 0; stroke: #000000; stroke-width: 5"/>
   </g>
   <g id="matplotlib.axis_1">
    <g id="xtick_1">
     <g id="line2d_2">
      <defs>
       <path id="md8b0ad1a64" d="M 0 0 
L 0 20 
" style="stroke: #262626; stroke-width: 7"/>
      </defs>
      <g>
       <use xlink:href="#md8b0ad1a64" x="90" y="630" style="fill: #262626; stroke: #262626; stroke-width: 7"/>
      </g>
     </g>
     <g id="text_1">
      <!-- 0 -->
      <g style="fill: #262626" transform="translate(76.097656 689.289062)scale(0.5 -0.5)">
       <defs>
        <path id="ArialMT-30" d="M 266 2259 
Q 266 3072 433 3567 
Q 600 4063 929 4331 
Q 1259 4600 1759 4600 
Q 2128 4600 2406 4451 
Q 2684 4303 2865 4023 
Q 3047 3744 3150 3342 
Q 3253 2941 3253 2259 
Q 3253 1453 3087 958 
Q 2922 463 2592 192 
Q 2263 -78 1759 -78 
Q 1097 -78 719 397 
Q 266 969 266 2259 
z
M 844 2259 
Q 844 1131 1108 757 
Q 1372 384 1759 384 
Q 2147 384 2411 759 
Q 2675 1134 2675 2259 
Q 2675 3391 2411 3762 
Q 2147 4134 1753 4134 
Q 1366 4134 1134 3806 
Q 844 3388 844 2259 
z
" transform="scale(0.015625)"/>
       </defs>
       <use xlink:href="#ArialMT-30"/>
      </g>
     </g>
    </g>
    <g id="xtick_2">
     <g id="line2d_3">
      <g>
       <use xlink:href="#md8b0ad1a64" x="229.5" y="630" style="fill: #262626; stroke: #262626; stroke-width: 7"/>
      </g>
     </g>
     <g id="text_2">
      <!-- 50 -->
      <g style="fill: #262626" transform="translate(201.695312 689.289062)scale(0.5 -0.5)">
       <defs>
        <path id="ArialMT-35" d="M 266 1200 
L 856 1250 
Q 922 819 1161 601 
Q 1400 384 1738 384 
Q 2144 384 2425 690 
Q 2706 997 2706 1503 
Q 2706 1984 2436 2262 
Q 2166 2541 1728 2541 
Q 1456 2541 1237 2417 
Q 1019 2294 894 2097 
L 366 2166 
L 809 4519 
L 3088 4519 
L 3088 3981 
L 1259 3981 
L 1013 2750 
Q 1425 3038 1878 3038 
Q 2478 3038 2890 2622 
Q 3303 2206 3303 1553 
Q 3303 931 2941 478 
Q 2500 -78 1738 -78 
Q 1113 -78 717 272 
Q 322 622 266 1200 
z
" transform="scale(0.015625)"/>
       </defs>
       <use xlink:href="#ArialMT-35"/>
       <use xlink:href="#ArialMT-30" x="55.615234"/>
      </g>
     </g>
    </g>
    <g id="xtick_3">
     <g id="line2d_4">
      <g>
       <use xlink:href="#md8b0ad1a64" x="369" y="630" style="fill: #262626; stroke: #262626; stroke-width: 7"/>
      </g>
     </g>
     <g id="text_3">
      <!-- 100 -->
      <g style="fill: #262626" transform="translate(327.292969 689.289062)scale(0.5 -0.5)">
       <defs>
        <path id="ArialMT-31" d="M 2384 0 
L 1822 0 
L 1822 3584 
Q 1619 3391 1289 3197 
Q 959 3003 697 2906 
L 697 3450 
Q 1169 3672 1522 3987 
Q 1875 4303 2022 4600 
L 2384 4600 
L 2384 0 
z
" transform="scale(0.015625)"/>
       </defs>
       <use xlink:href="#ArialMT-31"/>
       <use xlink:href="#ArialMT-30" x="55.615234"/>
       <use xlink:href="#ArialMT-30" x="111.230469"/>
      </g>
     </g>
    </g>
    <g id="xtick_4">
     <g id="line2d_5">
      <g>
       <use xlink:href="#md8b0ad1a64" x="508.5" y="630" style="fill: #262626; stroke: #262626; stroke-width: 7"/>
      </g>
     </g>
     <g id="text_4">
      <!-- 150 -->
      <g style="fill: #262626" transform="translate(466.792969 689.289062)scale(0.5 -0.5)">
       <use xlink:href="#ArialMT-31"/>
       <use xlink:href="#ArialMT-35" x="55.615234"/>
       <use xlink:href="#ArialMT-30" x="111.230469"/>
      </g>
     </g>
    </g>
    <g id="xtick_5">
     <g id="line2d_6">
      <g>
       <use xlink:href="#md8b0ad1a64" x="648" y="630" style="fill: #262626; stroke: #262626; stroke-width: 7"/>
      </g>
     </g>
     <g id="text_5">
      <!-- 200 -->
      <g style="fill: #262626" transform="translate(606.292969 689.289062)scale(0.5 -0.5)">
       <defs>
        <path id="ArialMT-32" d="M 3222 541 
L 3222 0 
L 194 0 
Q 188 203 259 391 
Q 375 700 629 1000 
Q 884 1300 1366 1694 
Q 2113 2306 2375 2664 
Q 2638 3022 2638 3341 
Q 2638 3675 2398 3904 
Q 2159 4134 1775 4134 
Q 1369 4134 1125 3890 
Q 881 3647 878 3216 
L 300 3275 
Q 359 3922 746 4261 
Q 1134 4600 1788 4600 
Q 2447 4600 2831 4234 
Q 3216 3869 3216 3328 
Q 3216 3053 3103 2787 
Q 2991 2522 2730 2228 
Q 2469 1934 1863 1422 
Q 1356 997 1212 845 
Q 1069 694 975 541 
L 3222 541 
z
" transform="scale(0.015625)"/>
       </defs>
       <use xlink:href="#ArialMT-32"/>
       <use xlink:href="#ArialMT-30" x="55.615234"/>
       <use xlink:href="#ArialMT-30" x="111.230469"/>
      </g>
     </g>
    </g>
    <g id="text_6">
     <!-- number of residues -->
     <g style="fill: #262626" transform="translate(112.21875 746.173437)scale(0.6 -0.6)">
      <defs>
       <path id="ArialMT-6e" d="M 422 0 
L 422 3319 
L 928 3319 
L 928 2847 
Q 1294 3394 1984 3394 
Q 2284 3394 2536 3286 
Q 2788 3178 2913 3003 
Q 3038 2828 3088 2588 
Q 3119 2431 3119 2041 
L 3119 0 
L 2556 0 
L 2556 2019 
Q 2556 2363 2490 2533 
Q 2425 2703 2258 2804 
Q 2091 2906 1866 2906 
Q 1506 2906 1245 2678 
Q 984 2450 984 1813 
L 984 0 
L 422 0 
z
" transform="scale(0.015625)"/>
       <path id="ArialMT-75" d="M 2597 0 
L 2597 488 
Q 2209 -75 1544 -75 
Q 1250 -75 995 37 
Q 741 150 617 320 
Q 494 491 444 738 
Q 409 903 409 1263 
L 409 3319 
L 972 3319 
L 972 1478 
Q 972 1038 1006 884 
Q 1059 663 1231 536 
Q 1403 409 1656 409 
Q 1909 409 2131 539 
Q 2353 669 2445 892 
Q 2538 1116 2538 1541 
L 2538 3319 
L 3100 3319 
L 3100 0 
L 2597 0 
z
" transform="scale(0.015625)"/>
       <path id="ArialMT-6d" d="M 422 0 
L 422 3319 
L 925 3319 
L 925 2853 
Q 1081 3097 1340 3245 
Q 1600 3394 1931 3394 
Q 2300 3394 2536 3241 
Q 2772 3088 2869 2813 
Q 3263 3394 3894 3394 
Q 4388 3394 4653 3120 
Q 4919 2847 4919 2278 
L 4919 0 
L 4359 0 
L 4359 2091 
Q 4359 2428 4304 2576 
Q 4250 2725 4106 2815 
Q 3963 2906 3769 2906 
Q 3419 2906 3187 2673 
Q 2956 2441 2956 1928 
L 2956 0 
L 2394 0 
L 2394 2156 
Q 2394 2531 2256 2718 
Q 2119 2906 1806 2906 
Q 1569 2906 1367 2781 
Q 1166 2656 1075 2415 
Q 984 2175 984 1722 
L 984 0 
L 422 0 
z
" transform="scale(0.015625)"/>
       <path id="ArialMT-62" d="M 941 0 
L 419 0 
L 419 4581 
L 981 4581 
L 981 2947 
Q 1338 3394 1891 3394 
Q 2197 3394 2470 3270 
Q 2744 3147 2920 2923 
Q 3097 2700 3197 2384 
Q 3297 2069 3297 1709 
Q 3297 856 2875 390 
Q 2453 -75 1863 -75 
Q 1275 -75 941 416 
L 941 0 
z
M 934 1684 
Q 934 1088 1097 822 
Q 1363 388 1816 388 
Q 2184 388 2453 708 
Q 2722 1028 2722 1663 
Q 2722 2313 2464 2622 
Q 2206 2931 1841 2931 
Q 1472 2931 1203 2611 
Q 934 2291 934 1684 
z
" transform="scale(0.015625)"/>
       <path id="ArialMT-65" d="M 2694 1069 
L 3275 997 
Q 3138 488 2766 206 
Q 2394 -75 1816 -75 
Q 1088 -75 661 373 
Q 234 822 234 1631 
Q 234 2469 665 2931 
Q 1097 3394 1784 3394 
Q 2450 3394 2872 2941 
Q 3294 2488 3294 1666 
Q 3294 1616 3291 1516 
L 816 1516 
Q 847 969 1125 678 
Q 1403 388 1819 388 
Q 2128 388 2347 550 
Q 2566 713 2694 1069 
z
M 847 1978 
L 2700 1978 
Q 2663 2397 2488 2606 
Q 2219 2931 1791 2931 
Q 1403 2931 1139 2672 
Q 875 2413 847 1978 
z
" transform="scale(0.015625)"/>
       <path id="ArialMT-72" d="M 416 0 
L 416 3319 
L 922 3319 
L 922 2816 
Q 1116 3169 1280 3281 
Q 1444 3394 1641 3394 
Q 1925 3394 2219 3213 
L 2025 2691 
Q 1819 2813 1613 2813 
Q 1428 2813 1281 2702 
Q 1134 2591 1072 2394 
Q 978 2094 978 1738 
L 978 0 
L 416 0 
z
" transform="scale(0.015625)"/>
       <path id="ArialMT-20" transform="scale(0.015625)"/>
       <path id="ArialMT-6f" d="M 213 1659 
Q 213 2581 725 3025 
Q 1153 3394 1769 3394 
Q 2453 3394 2887 2945 
Q 3322 2497 3322 1706 
Q 3322 1066 3130 698 
Q 2938 331 2570 128 
Q 2203 -75 1769 -75 
Q 1072 -75 642 372 
Q 213 819 213 1659 
z
M 791 1659 
Q 791 1022 1069 705 
Q 1347 388 1769 388 
Q 2188 388 2466 706 
Q 2744 1025 2744 1678 
Q 2744 2294 2464 2611 
Q 2184 2928 1769 2928 
Q 1347 2928 1069 2612 
Q 791 2297 791 1659 
z
" transform="scale(0.015625)"/>
       <path id="ArialMT-66" d="M 556 0 
L 556 2881 
L 59 2881 
L 59 3319 
L 556 3319 
L 556 3672 
Q 556 4006 616 4169 
Q 697 4388 901 4523 
Q 1106 4659 1475 4659 
Q 1713 4659 2000 4603 
L 1916 4113 
Q 1741 4144 1584 4144 
Q 1328 4144 1222 4034 
Q 1116 3925 1116 3625 
L 1116 3319 
L 1763 3319 
L 1763 2881 
L 1116 2881 
L 1116 0 
L 556 0 
z
" transform="scale(0.015625)"/>
       <path id="ArialMT-73" d="M 197 991 
L 753 1078 
Q 800 744 1014 566 
Q 1228 388 1613 388 
Q 2000 388 2187 545 
Q 2375 703 2375 916 
Q 2375 1106 2209 1216 
Q 2094 1291 1634 1406 
Q 1016 1563 777 1677 
Q 538 1791 414 1992 
Q 291 2194 291 2438 
Q 291 2659 392 2848 
Q 494 3038 669 3163 
Q 800 3259 1026 3326 
Q 1253 3394 1513 3394 
Q 1903 3394 2198 3281 
Q 2494 3169 2634 2976 
Q 2775 2784 2828 2463 
L 2278 2388 
Q 2241 2644 2061 2787 
Q 1881 2931 1553 2931 
Q 1166 2931 1000 2803 
Q 834 2675 834 2503 
Q 834 2394 903 2306 
Q 972 2216 1119 2156 
Q 1203 2125 1616 2013 
Q 2213 1853 2448 1751 
Q 2684 1650 2818 1456 
Q 2953 1263 2953 975 
Q 2953 694 2789 445 
Q 2625 197 2315 61 
Q 2006 -75 1616 -75 
Q 969 -75 630 194 
Q 291 463 197 991 
z
" transform="scale(0.015625)"/>
       <path id="ArialMT-69" d="M 425 3934 
L 425 4581 
L 988 4581 
L 988 3934 
L 425 3934 
z
M 425 0 
L 425 3319 
L 988 3319 
L 988 0 
L 425 0 
z
" transform="scale(0.015625)"/>
       <path id="ArialMT-64" d="M 2575 0 
L 2575 419 
Q 2259 -75 1647 -75 
Q 1250 -75 917 144 
Q 584 363 401 755 
Q 219 1147 219 1656 
Q 219 2153 384 2558 
Q 550 2963 881 3178 
Q 1213 3394 1622 3394 
Q 1922 3394 2156 3267 
Q 2391 3141 2538 2938 
L 2538 4581 
L 3097 4581 
L 3097 0 
L 2575 0 
z
M 797 1656 
Q 797 1019 1065 703 
Q 1334 388 1700 388 
Q 2069 388 2326 689 
Q 2584 991 2584 1609 
Q 2584 2291 2321 2609 
Q 2059 2928 1675 2928 
Q 1300 2928 1048 2622 
Q 797 2316 797 1656 
z
" transform="scale(0.015625)"/>
      </defs>
      <use xlink:href="#ArialMT-6e"/>
      <use xlink:href="#ArialMT-75" x="55.615234"/>
      <use xlink:href="#ArialMT-6d" x="111.230469"/>
      <use xlink:href="#ArialMT-62" x="194.53125"/>
      <use xlink:href="#ArialMT-65" x="250.146484"/>
      <use xlink:href="#ArialMT-72" x="305.761719"/>
      <use xlink:href="#ArialMT-20" x="339.0625"/>
      <use xlink:href="#ArialMT-6f" x="366.845703"/>
      <use xlink:href="#ArialMT-66" x="422.460938"/>
      <use xlink:href="#ArialMT-20" x="450.244141"/>
      <use xlink:href="#ArialMT-72" x="478.027344"/>
      <use xlink:href="#ArialMT-65" x="511.328125"/>
      <use xlink:href="#ArialMT-73" x="566.943359"/>
      <use xlink:href="#ArialMT-69" x="616.943359"/>
      <use xlink:href="#ArialMT-64" x="639.160156"/>
      <use xlink:href="#ArialMT-75" x="694.775391"/>
      <use xlink:href="#ArialMT-65" x="750.390625"/>
      <use xlink:href="#ArialMT-73" x="806.005859"/>
     </g>
    </g>
   </g>
   <g id="matplotlib.axis_2">
    <g id="ytick_1">
     <g id="line2d_7">
      <defs>
       <path id="meb2c14fa1a" d="M 0 0 
L -20 0 
" style="stroke: #262626; stroke-width: 7"/>
      </defs>
      <g>
       <use xlink:href="#meb2c14fa1a" x="90" y="590.175125" style="fill: #262626; stroke: #262626; stroke-width: 7"/>
      </g>
     </g>
     <g id="text_7">
      <!-- −4 -->
      <g style="fill: #262626" transform="translate(9.492188 608.069656)scale(0.5 -0.5)">
       <defs>
        <path id="ArialMT-2212" d="M 3381 1997 
L 356 1997 
L 356 2522 
L 3381 2522 
L 3381 1997 
z
" transform="scale(0.015625)"/>
        <path id="ArialMT-34" d="M 2069 0 
L 2069 1097 
L 81 1097 
L 81 1613 
L 2172 4581 
L 2631 4581 
L 2631 1613 
L 3250 1613 
L 3250 1097 
L 2631 1097 
L 2631 0 
L 2069 0 
z
M 2069 1613 
L 2069 3678 
L 634 1613 
L 2069 1613 
z
" transform="scale(0.015625)"/>
       </defs>
       <use xlink:href="#ArialMT-2212"/>
       <use xlink:href="#ArialMT-34" x="58.398438"/>
      </g>
     </g>
    </g>
    <g id="ytick_2">
     <g id="line2d_8">
      <g>
       <use xlink:href="#meb2c14fa1a" x="90" y="441.449376" style="fill: #262626; stroke: #262626; stroke-width: 7"/>
      </g>
     </g>
     <g id="text_8">
      <!-- −3 -->
      <g style="fill: #262626" transform="translate(9.492188 459.343907)scale(0.5 -0.5)">
       <defs>
        <path id="ArialMT-33" d="M 269 1209 
L 831 1284 
Q 928 806 1161 595 
Q 1394 384 1728 384 
Q 2125 384 2398 659 
Q 2672 934 2672 1341 
Q 2672 1728 2419 1979 
Q 2166 2231 1775 2231 
Q 1616 2231 1378 2169 
L 1441 2663 
Q 1497 2656 1531 2656 
Q 1891 2656 2178 2843 
Q 2466 3031 2466 3422 
Q 2466 3731 2256 3934 
Q 2047 4138 1716 4138 
Q 1388 4138 1169 3931 
Q 950 3725 888 3313 
L 325 3413 
Q 428 3978 793 4289 
Q 1159 4600 1703 4600 
Q 2078 4600 2393 4439 
Q 2709 4278 2876 4000 
Q 3044 3722 3044 3409 
Q 3044 3113 2884 2869 
Q 2725 2625 2413 2481 
Q 2819 2388 3044 2092 
Q 3269 1797 3269 1353 
Q 3269 753 2831 336 
Q 2394 -81 1725 -81 
Q 1122 -81 723 278 
Q 325 638 269 1209 
z
" transform="scale(0.015625)"/>
       </defs>
       <use xlink:href="#ArialMT-2212"/>
       <use xlink:href="#ArialMT-33" x="58.398438"/>
      </g>
     </g>
    </g>
    <g id="ytick_3">
     <g id="line2d_9">
      <g>
       <use xlink:href="#meb2c14fa1a" x="90" y="292.723627" style="fill: #262626; stroke: #262626; stroke-width: 7"/>
      </g>
     </g>
     <g id="text_9">
      <!-- −2 -->
      <g style="fill: #262626" transform="translate(9.492188 310.618158)scale(0.5 -0.5)">
       <use xlink:href="#ArialMT-2212"/>
       <use xlink:href="#ArialMT-32" x="58.398438"/>
      </g>
     </g>
    </g>
    <g id="ytick_4">
     <g id="line2d_10">
      <g>
       <use xlink:href="#meb2c14fa1a" x="90" y="143.997878" style="fill: #262626; stroke: #262626; stroke-width: 7"/>
      </g>
     </g>
     <g id="text_10">
      <!-- −1 -->
      <g style="fill: #262626" transform="translate(9.492188 161.892409)scale(0.5 -0.5)">
       <use xlink:href="#ArialMT-2212"/>
       <use xlink:href="#ArialMT-31" x="58.398438"/>
      </g>
     </g>
    </g>
    <g id="text_11">
     <!-- $\Delta S/k_B$  -->
     <g style="fill: #262626" transform="translate(-6.432813 449.1)rotate(-90)scale(0.6 -0.6)">
      <defs>
       <path id="DejaVuSans-394" d="M 2188 4044 
L 906 525 
L 3472 525 
L 2188 4044 
z
M 50 0 
L 1831 4666 
L 2547 4666 
L 4325 0 
L 50 0 
z
" transform="scale(0.015625)"/>
       <path id="DejaVuSans-Oblique-53" d="M 3859 4513 
L 3738 3897 
Q 3422 4066 3111 4152 
Q 2800 4238 2509 4238 
Q 1944 4238 1609 3991 
Q 1275 3744 1275 3334 
Q 1275 3109 1398 2989 
Q 1522 2869 2034 2731 
L 2413 2638 
Q 3053 2472 3303 2217 
Q 3553 1963 3553 1503 
Q 3553 797 2998 353 
Q 2444 -91 1538 -91 
Q 1166 -91 791 -17 
Q 416 56 38 206 
L 166 856 
Q 513 641 861 531 
Q 1209 422 1556 422 
Q 2147 422 2503 684 
Q 2859 947 2859 1369 
Q 2859 1650 2717 1795 
Q 2575 1941 2106 2059 
L 1728 2156 
Q 1081 2325 845 2545 
Q 609 2766 609 3163 
Q 609 3859 1145 4304 
Q 1681 4750 2541 4750 
Q 2875 4750 3203 4690 
Q 3531 4631 3859 4513 
z
" transform="scale(0.015625)"/>
       <path id="DejaVuSans-2f" d="M 1625 4666 
L 2156 4666 
L 531 -594 
L 0 -594 
L 1625 4666 
z
" transform="scale(0.015625)"/>
       <path id="DejaVuSans-Oblique-6b" d="M 1172 4863 
L 1747 4863 
L 1197 2028 
L 3169 3500 
L 3916 3500 
L 1716 1825 
L 3322 0 
L 2625 0 
L 1131 1709 
L 800 0 
L 225 0 
L 1172 4863 
z
" transform="scale(0.015625)"/>
       <path id="DejaVuSans-Oblique-42" d="M 1081 4666 
L 2694 4666 
Q 3350 4666 3675 4422 
Q 4000 4178 4000 3688 
Q 4000 3238 3720 2911 
Q 3441 2584 2988 2516 
Q 3375 2428 3569 2181 
Q 3763 1934 3763 1522 
Q 3763 819 3242 409 
Q 2722 0 1819 0 
L 172 0 
L 1081 4666 
z
M 1234 2228 
L 903 519 
L 1919 519 
Q 2491 519 2800 781 
Q 3109 1044 3109 1522 
Q 3109 1891 2904 2059 
Q 2700 2228 2247 2228 
L 1234 2228 
z
M 1606 4147 
L 1331 2741 
L 2272 2741 
Q 2775 2741 3058 2959 
Q 3341 3178 3341 3566 
Q 3341 3869 3150 4008 
Q 2959 4147 2541 4147 
L 1606 4147 
z
" transform="scale(0.015625)"/>
      </defs>
      <use xlink:href="#DejaVuSans-394" transform="translate(0 0.015625)"/>
      <use xlink:href="#DejaVuSans-Oblique-53" transform="translate(68.408203 0.015625)"/>
      <use xlink:href="#DejaVuSans-2f" transform="translate(131.884766 0.015625)"/>
      <use xlink:href="#DejaVuSans-Oblique-6b" transform="translate(165.576172 0.015625)"/>
      <use xlink:href="#DejaVuSans-Oblique-42" transform="translate(223.486328 -16.390625)scale(0.7)"/>
      <use xlink:href="#ArialMT-20" transform="translate(274.243164 0.015625)"/>
     </g>
    </g>
   </g>
   <g id="PathCollection_1">
    <defs>
     <path id="C0_0_58d34bbe6d" d="M 0 7.071068 
C 1.875269 7.071068 3.673985 6.326016 5 5 
C 6.326016 3.673985 7.071068 1.875269 7.071068 -0 
C 7.071068 -1.875269 6.326016 -3.673985 5 -5 
C 3.673985 -6.326016 1.875269 -7.071068 0 -7.071068 
C -1.875269 -7.071068 -3.673985 -6.326016 -5 -5 
C -6.326016 -3.673985 -7.071068 -1.875269 -7.071068 0 
C -7.071068 1.875269 -6.326016 3.673985 -5 5 
C -3.673985 6.326016 -1.875269 7.071068 0 7.071068 
z
"/>
    </defs>
    <g clip-path="url(#p6c9219aa99)">
     <use xlink:href="#C0_0_58d34bbe6d" x="145.8" y="145.7257" style="fill: #ecf8e8; stroke: #000000; stroke-width: 3"/>
    </g>
    <g clip-path="url(#p6c9219aa99)">
     <use xlink:href="#C0_0_58d34bbe6d" x="145.8" y="111.109091" style="fill: #6dc072; stroke: #000000; stroke-width: 3"/>
    </g>
    <g clip-path="url(#p6c9219aa99)">
     <use xlink:href="#C0_0_58d34bbe6d" x="145.8" y="138.64038" style="fill: #dbf1d6; stroke: #000000; stroke-width: 3"/>
    </g>
    <g clip-path="url(#p6c9219aa99)">
     <use xlink:href="#C0_0_58d34bbe6d" x="145.8" y="139.212902" style="fill: #ddf2d8; stroke: #000000; stroke-width: 3"/>
    </g>
    <g clip-path="url(#p6c9219aa99)">
     <use xlink:href="#C0_0_58d34bbe6d" x="156.96" y="129.538145" style="fill: #91d28e; stroke: #000000; stroke-width: 3"/>
    </g>
    <g clip-path="url(#p6c9219aa99)">
     <use xlink:href="#C0_0_58d34bbe6d" x="159.75" y="145.514803" style="fill: #c3e7bc; stroke: #000000; stroke-width: 3"/>
    </g>
    <g clip-path="url(#p6c9219aa99)">
     <use xlink:href="#C0_0_58d34bbe6d" x="173.7" y="166.066892" style="fill: #dbf1d6; stroke: #000000; stroke-width: 3"/>
    </g>
    <g clip-path="url(#p6c9219aa99)">
     <use xlink:href="#C0_0_58d34bbe6d" x="173.7" y="141.313218" style="fill: #8dd08a; stroke: #000000; stroke-width: 3"/>
    </g>
    <g clip-path="url(#p6c9219aa99)">
     <use xlink:href="#C0_0_58d34bbe6d" x="173.7" y="147.336059" style="fill: #a3da9d; stroke: #000000; stroke-width: 3"/>
    </g>
    <g clip-path="url(#p6c9219aa99)">
     <use xlink:href="#C0_0_58d34bbe6d" x="176.49" y="166.859076" style="fill: #d8f0d2; stroke: #000000; stroke-width: 3"/>
    </g>
    <g clip-path="url(#p6c9219aa99)">
     <use xlink:href="#C0_0_58d34bbe6d" x="176.49" y="182.201891" style="fill: #f4fbf2; stroke: #000000; stroke-width: 3"/>
    </g>
    <g clip-path="url(#p6c9219aa99)">
     <use xlink:href="#C0_0_58d34bbe6d" x="184.86" y="156.95147" style="fill: #aadda4; stroke: #000000; stroke-width: 3"/>
    </g>
    <g clip-path="url(#p6c9219aa99)">
     <use xlink:href="#C0_0_58d34bbe6d" x="187.65" y="178.352735" style="fill: #dff3da; stroke: #000000; stroke-width: 3"/>
    </g>
    <g clip-path="url(#p6c9219aa99)">
     <use xlink:href="#C0_0_58d34bbe6d" x="190.44" y="149.77539" style="fill: #84cc83; stroke: #000000; stroke-width: 3"/>
    </g>
    <g clip-path="url(#p6c9219aa99)">
     <use xlink:href="#C0_0_58d34bbe6d" x="190.44" y="145.308547" style="fill: #75c477; stroke: #000000; stroke-width: 3"/>
    </g>
    <g clip-path="url(#p6c9219aa99)">
     <use xlink:href="#C0_0_58d34bbe6d" x="190.44" y="124.076961" style="fill: #2d954d; stroke: #000000; stroke-width: 3"/>
    </g>
    <g clip-path="url(#p6c9219aa99)">
     <use xlink:href="#C0_0_58d34bbe6d" x="193.23" y="177.94379" style="fill: #d6efd0; stroke: #000000; stroke-width: 3"/>
    </g>
    <g clip-path="url(#p6c9219aa99)">
     <use xlink:href="#C0_0_58d34bbe6d" x="193.23" y="151.379047" style="fill: #84cc83; stroke: #000000; stroke-width: 3"/>
    </g>
    <g clip-path="url(#p6c9219aa99)">
     <use xlink:href="#C0_0_58d34bbe6d" x="196.02" y="157.089123" style="fill: #94d390; stroke: #000000; stroke-width: 3"/>
    </g>
    <g clip-path="url(#p6c9219aa99)">
     <use xlink:href="#C0_0_58d34bbe6d" x="204.39" y="176.78553" style="fill: #c2e7bb; stroke: #000000; stroke-width: 3"/>
    </g>
    <g clip-path="url(#p6c9219aa99)">
     <use xlink:href="#C0_0_58d34bbe6d" x="207.18" y="167.97802" style="fill: #a4da9e; stroke: #000000; stroke-width: 3"/>
    </g>
    <g clip-path="url(#p6c9219aa99)">
     <use xlink:href="#C0_0_58d34bbe6d" x="209.97" y="197.374289" style="fill: #e8f6e4; stroke: #000000; stroke-width: 3"/>
    </g>
    <g clip-path="url(#p6c9219aa99)">
     <use xlink:href="#C0_0_58d34bbe6d" x="218.34" y="212.811347" style="fill: #f6fcf4; stroke: #000000; stroke-width: 3"/>
    </g>
    <g clip-path="url(#p6c9219aa99)">
     <use xlink:href="#C0_0_58d34bbe6d" x="221.13" y="210.030732" style="fill: #f1faee; stroke: #000000; stroke-width: 3"/>
    </g>
    <g clip-path="url(#p6c9219aa99)">
     <use xlink:href="#C0_0_58d34bbe6d" x="229.5" y="154.004709" style="fill: #52b365; stroke: #000000; stroke-width: 3"/>
    </g>
    <g clip-path="url(#p6c9219aa99)">
     <use xlink:href="#C0_0_58d34bbe6d" x="229.5" y="151.029212" style="fill: #46ae60; stroke: #000000; stroke-width: 3"/>
    </g>
    <g clip-path="url(#p6c9219aa99)">
     <use xlink:href="#C0_0_58d34bbe6d" x="237.87" y="198.550842" style="fill: #ceecc8; stroke: #000000; stroke-width: 3"/>
    </g>
    <g clip-path="url(#p6c9219aa99)">
     <use xlink:href="#C0_0_58d34bbe6d" x="243.45" y="135.637853" style="fill: #18823d; stroke: #000000; stroke-width: 3"/>
    </g>
    <g clip-path="url(#p6c9219aa99)">
     <use xlink:href="#C0_0_58d34bbe6d" x="254.61" y="225.620545" style="fill: #f0f9ec; stroke: #000000; stroke-width: 3"/>
    </g>
    <g clip-path="url(#p6c9219aa99)">
     <use xlink:href="#C0_0_58d34bbe6d" x="254.61" y="177.08177" style="fill: #81ca81; stroke: #000000; stroke-width: 3"/>
    </g>
    <g clip-path="url(#p6c9219aa99)">
     <use xlink:href="#C0_0_58d34bbe6d" x="260.19" y="204.56772" style="fill: #c8e9c1; stroke: #000000; stroke-width: 3"/>
    </g>
    <g clip-path="url(#p6c9219aa99)">
     <use xlink:href="#C0_0_58d34bbe6d" x="321.57" y="249.83462" style="fill: #f0f9ec; stroke: #000000; stroke-width: 3"/>
    </g>
    <g clip-path="url(#p6c9219aa99)">
     <use xlink:href="#C0_0_58d34bbe6d" x="321.57" y="254.188283" style="fill: #f4fbf2; stroke: #000000; stroke-width: 3"/>
    </g>
    <g clip-path="url(#p6c9219aa99)">
     <use xlink:href="#C0_0_58d34bbe6d" x="338.31" y="214.863905" style="fill: #a8dca2; stroke: #000000; stroke-width: 3"/>
    </g>
    <g clip-path="url(#p6c9219aa99)">
     <use xlink:href="#C0_0_58d34bbe6d" x="341.1" y="247.610439" style="fill: #e7f6e2; stroke: #000000; stroke-width: 3"/>
    </g>
    <g clip-path="url(#p6c9219aa99)">
     <use xlink:href="#C0_0_58d34bbe6d" x="369" y="264.205086" style="fill: #f0f9ed; stroke: #000000; stroke-width: 3"/>
    </g>
    <g clip-path="url(#p6c9219aa99)">
     <use xlink:href="#C0_0_58d34bbe6d" x="369" y="257.090851" style="fill: #e9f7e5; stroke: #000000; stroke-width: 3"/>
    </g>
    <g clip-path="url(#p6c9219aa99)">
     <use xlink:href="#C0_0_58d34bbe6d" x="374.58" y="238.985924" style="fill: #caeac3; stroke: #000000; stroke-width: 3"/>
    </g>
    <g clip-path="url(#p6c9219aa99)">
     <use xlink:href="#C0_0_58d34bbe6d" x="385.74" y="255.020643" style="fill: #e1f3dc; stroke: #000000; stroke-width: 3"/>
    </g>
   </g>
   <g id="PathCollection_2">
    <defs>
     <path id="C1_0_e178760808" d="M 0 7.071068 
C 1.875269 7.071068 3.673985 6.326016 5 5 
C 6.326016 3.673985 7.071068 1.875269 7.071068 -0 
C 7.071068 -1.875269 6.326016 -3.673985 5 -5 
C 3.673985 -6.326016 1.875269 -7.071068 0 -7.071068 
C -1.875269 -7.071068 -3.673985 -6.326016 -5 -5 
C -6.326016 -3.673985 -7.071068 -1.875269 -7.071068 0 
C -7.071068 1.875269 -6.326016 3.673985 -5 5 
C -3.673985 6.326016 -1.875269 7.071068 0 7.071068 
z
"/>
    </defs>
    <g clip-path="url(#p6c9219aa99)">
     <use xlink:href="#C1_0_e178760808" x="145.8" y="177.87852" style="fill: #a9c4de; stroke: #000000; stroke-width: 3"/>
    </g>
    <g clip-path="url(#p6c9219aa99)">
     <use xlink:href="#C1_0_e178760808" x="145.8" y="155.95386" style="fill: #edf5f9; stroke: #000000; stroke-width: 3"/>
    </g>
    <g clip-path="url(#p6c9219aa99)">
     <use xlink:href="#C1_0_e178760808" x="145.8" y="211.579344" style="fill: #873a98; stroke: #000000; stroke-width: 3"/>
    </g>
    <g clip-path="url(#p6c9219aa99)">
     <use xlink:href="#C1_0_e178760808" x="145.8" y="196.139099" style="fill: #8c7eba; stroke: #000000; stroke-width: 3"/>
    </g>
    <g clip-path="url(#p6c9219aa99)">
     <use xlink:href="#C1_0_e178760808" x="145.8" y="184.35323" style="fill: #98aed3; stroke: #000000; stroke-width: 3"/>
    </g>
    <g clip-path="url(#p6c9219aa99)">
     <use xlink:href="#C1_0_e178760808" x="145.8" y="178.756743" style="fill: #a6c2dd; stroke: #000000; stroke-width: 3"/>
    </g>
    <g clip-path="url(#p6c9219aa99)">
     <use xlink:href="#C1_0_e178760808" x="145.8" y="184.067836" style="fill: #98b0d3; stroke: #000000; stroke-width: 3"/>
    </g>
    <g clip-path="url(#p6c9219aa99)">
     <use xlink:href="#C1_0_e178760808" x="145.8" y="153.156458" style="fill: #f3f9fc; stroke: #000000; stroke-width: 3"/>
    </g>
    <g clip-path="url(#p6c9219aa99)">
     <use xlink:href="#C1_0_e178760808" x="173.7" y="211.549711" style="fill: #acc6df; stroke: #000000; stroke-width: 3"/>
    </g>
    <g clip-path="url(#p6c9219aa99)">
     <use xlink:href="#C1_0_e178760808" x="173.7" y="188.709318" style="fill: #e9f2f8; stroke: #000000; stroke-width: 3"/>
    </g>
    <g clip-path="url(#p6c9219aa99)">
     <use xlink:href="#C1_0_e178760808" x="179.28" y="224.202249" style="fill: #9bb6d7; stroke: #000000; stroke-width: 3"/>
    </g>
    <g clip-path="url(#p6c9219aa99)">
     <use xlink:href="#C1_0_e178760808" x="179.28" y="302.887828" style="fill: #4d004b; stroke: #000000; stroke-width: 3"/>
    </g>
    <g clip-path="url(#p6c9219aa99)">
     <use xlink:href="#C1_0_e178760808" x="182.07" y="190.091714" style="fill: #f5fafc; stroke: #000000; stroke-width: 3"/>
    </g>
    <g clip-path="url(#p6c9219aa99)">
     <use xlink:href="#C1_0_e178760808" x="184.86" y="259.308478" style="fill: #8a51a5; stroke: #000000; stroke-width: 3"/>
    </g>
    <g clip-path="url(#p6c9219aa99)">
     <use xlink:href="#C1_0_e178760808" x="184.86" y="273.733427" style="fill: #831a83; stroke: #000000; stroke-width: 3"/>
    </g>
    <g clip-path="url(#p6c9219aa99)">
     <use xlink:href="#C1_0_e178760808" x="184.86" y="216.709516" style="fill: #bcd1e5; stroke: #000000; stroke-width: 3"/>
    </g>
    <g clip-path="url(#p6c9219aa99)">
     <use xlink:href="#C1_0_e178760808" x="187.65" y="204.368967" style="fill: #e2edf5; stroke: #000000; stroke-width: 3"/>
    </g>
    <g clip-path="url(#p6c9219aa99)">
     <use xlink:href="#C1_0_e178760808" x="187.65" y="218.935345" style="fill: #bcd1e5; stroke: #000000; stroke-width: 3"/>
    </g>
    <g clip-path="url(#p6c9219aa99)">
     <use xlink:href="#C1_0_e178760808" x="187.65" y="229.109193" style="fill: #a1bedb; stroke: #000000; stroke-width: 3"/>
    </g>
    <g clip-path="url(#p6c9219aa99)">
     <use xlink:href="#C1_0_e178760808" x="196.02" y="325.888161" style="fill: #4d004b; stroke: #000000; stroke-width: 3"/>
    </g>
    <g clip-path="url(#p6c9219aa99)">
     <use xlink:href="#C1_0_e178760808" x="196.02" y="236.244239" style="fill: #a1bedb; stroke: #000000; stroke-width: 3"/>
    </g>
    <g clip-path="url(#p6c9219aa99)">
     <use xlink:href="#C1_0_e178760808" x="196.02" y="253.097668" style="fill: #8c8cc1; stroke: #000000; stroke-width: 3"/>
    </g>
    <g clip-path="url(#p6c9219aa99)">
     <use xlink:href="#C1_0_e178760808" x="198.81" y="248.400173" style="fill: #92a3cd; stroke: #000000; stroke-width: 3"/>
    </g>
    <g clip-path="url(#p6c9219aa99)">
     <use xlink:href="#C1_0_e178760808" x="201.6" y="284.985102" style="fill: #863092; stroke: #000000; stroke-width: 3"/>
    </g>
    <g clip-path="url(#p6c9219aa99)">
     <use xlink:href="#C1_0_e178760808" x="218.34" y="322.230058" style="fill: #4d004b; stroke: #000000; stroke-width: 3"/>
    </g>
    <g clip-path="url(#p6c9219aa99)">
     <use xlink:href="#C1_0_e178760808" x="221.13" y="221.353876" style="fill: #ecf4f9; stroke: #000000; stroke-width: 3"/>
    </g>
    <g clip-path="url(#p6c9219aa99)">
     <use xlink:href="#C1_0_e178760808" x="226.71" y="302.848546" style="fill: #873b99; stroke: #000000; stroke-width: 3"/>
    </g>
    <g clip-path="url(#p6c9219aa99)">
     <use xlink:href="#C1_0_e178760808" x="226.71" y="302.848546" style="fill: #873b99; stroke: #000000; stroke-width: 3"/>
    </g>
    <g clip-path="url(#p6c9219aa99)">
     <use xlink:href="#C1_0_e178760808" x="229.5" y="298.782697" style="fill: #894fa3; stroke: #000000; stroke-width: 3"/>
    </g>
    <g clip-path="url(#p6c9219aa99)">
     <use xlink:href="#C1_0_e178760808" x="229.5" y="263.626376" style="fill: #9cb7d7; stroke: #000000; stroke-width: 3"/>
    </g>
    <g clip-path="url(#p6c9219aa99)">
     <use xlink:href="#C1_0_e178760808" x="229.5" y="290.184459" style="fill: #8c69b0; stroke: #000000; stroke-width: 3"/>
    </g>
    <g clip-path="url(#p6c9219aa99)">
     <use xlink:href="#C1_0_e178760808" x="229.5" y="298.161712" style="fill: #8a51a5; stroke: #000000; stroke-width: 3"/>
    </g>
    <g clip-path="url(#p6c9219aa99)">
     <use xlink:href="#C1_0_e178760808" x="229.5" y="365.24774" style="fill: #4d004b; stroke: #000000; stroke-width: 3"/>
    </g>
    <g clip-path="url(#p6c9219aa99)">
     <use xlink:href="#C1_0_e178760808" x="229.5" y="224.194994" style="fill: #f0f7fa; stroke: #000000; stroke-width: 3"/>
    </g>
    <g clip-path="url(#p6c9219aa99)">
     <use xlink:href="#C1_0_e178760808" x="229.5" y="260.768201" style="fill: #a0bddb; stroke: #000000; stroke-width: 3"/>
    </g>
    <g clip-path="url(#p6c9219aa99)">
     <use xlink:href="#C1_0_e178760808" x="229.5" y="280.770042" style="fill: #8c85be; stroke: #000000; stroke-width: 3"/>
    </g>
    <g clip-path="url(#p6c9219aa99)">
     <use xlink:href="#C1_0_e178760808" x="232.29" y="499.08671" style="fill: #4d004b; stroke: #000000; stroke-width: 3"/>
    </g>
    <g clip-path="url(#p6c9219aa99)">
     <use xlink:href="#C1_0_e178760808" x="260.19" y="412.520602" style="fill: #4d004b; stroke: #000000; stroke-width: 3"/>
    </g>
    <g clip-path="url(#p6c9219aa99)">
     <use xlink:href="#C1_0_e178760808" x="282.51" y="293.65022" style="fill: #99b2d5; stroke: #000000; stroke-width: 3"/>
    </g>
    <g clip-path="url(#p6c9219aa99)">
     <use xlink:href="#C1_0_e178760808" x="293.67" y="291.442948" style="fill: #a5c1dc; stroke: #000000; stroke-width: 3"/>
    </g>
    <g clip-path="url(#p6c9219aa99)">
     <use xlink:href="#C1_0_e178760808" x="307.62" y="292.251987" style="fill: #afc8e0; stroke: #000000; stroke-width: 3"/>
    </g>
    <g clip-path="url(#p6c9219aa99)">
     <use xlink:href="#C1_0_e178760808" x="324.36" y="357.761132" style="fill: #873d9a; stroke: #000000; stroke-width: 3"/>
    </g>
    <g clip-path="url(#p6c9219aa99)">
     <use xlink:href="#C1_0_e178760808" x="329.94" y="541.895869" style="fill: #4d004b; stroke: #000000; stroke-width: 3"/>
    </g>
    <g clip-path="url(#p6c9219aa99)">
     <use xlink:href="#C1_0_e178760808" x="338.31" y="326.531833" style="fill: #8f9bc9; stroke: #000000; stroke-width: 3"/>
    </g>
    <g clip-path="url(#p6c9219aa99)">
     <use xlink:href="#C1_0_e178760808" x="346.68" y="307.392171" style="fill: #adc7e0; stroke: #000000; stroke-width: 3"/>
    </g>
    <g clip-path="url(#p6c9219aa99)">
     <use xlink:href="#C1_0_e178760808" x="357.84" y="312.522241" style="fill: #aac4de; stroke: #000000; stroke-width: 3"/>
    </g>
    <g clip-path="url(#p6c9219aa99)">
     <use xlink:href="#C1_0_e178760808" x="360.63" y="443.668434" style="fill: #4d004b; stroke: #000000; stroke-width: 3"/>
    </g>
    <g clip-path="url(#p6c9219aa99)">
     <use xlink:href="#C1_0_e178760808" x="363.42" y="355.03739" style="fill: #8c6ab1; stroke: #000000; stroke-width: 3"/>
    </g>
    <g clip-path="url(#p6c9219aa99)">
     <use xlink:href="#C1_0_e178760808" x="369" y="605.290909" style="fill: #4d004b; stroke: #000000; stroke-width: 3"/>
    </g>
    <g clip-path="url(#p6c9219aa99)">
     <use xlink:href="#C1_0_e178760808" x="369" y="296.676758" style="fill: #cfdfed; stroke: #000000; stroke-width: 3"/>
    </g>
    <g clip-path="url(#p6c9219aa99)">
     <use xlink:href="#C1_0_e178760808" x="369" y="466.077208" style="fill: #4d004b; stroke: #000000; stroke-width: 3"/>
    </g>
    <g clip-path="url(#p6c9219aa99)">
     <use xlink:href="#C1_0_e178760808" x="388.53" y="501.20051" style="fill: #4d004b; stroke: #000000; stroke-width: 3"/>
    </g>
    <g clip-path="url(#p6c9219aa99)">
     <use xlink:href="#C1_0_e178760808" x="472.23" y="353.947502" style="fill: #9ab4d6; stroke: #000000; stroke-width: 3"/>
    </g>
    <g clip-path="url(#p6c9219aa99)">
     <use xlink:href="#C1_0_e178760808" x="508.5" y="495.91587" style="fill: #4d004b; stroke: #000000; stroke-width: 3"/>
    </g>
    <g clip-path="url(#p6c9219aa99)">
     <use xlink:href="#C1_0_e178760808" x="544.77" y="463.338576" style="fill: #4d004b; stroke: #000000; stroke-width: 3"/>
    </g>
   </g>
   <g id="PathCollection_3">
    <defs>
     <path id="ma8140bbe13" d="M 0 7.071068 
C 1.875269 7.071068 3.673985 6.326016 5 5 
C 6.326016 3.673985 7.071068 1.875269 7.071068 0 
C 7.071068 -1.875269 6.326016 -3.673985 5 -5 
C 3.673985 -6.326016 1.875269 -7.071068 0 -7.071068 
C -1.875269 -7.071068 -3.673985 -6.326016 -5 -5 
C -6.326016 -3.673985 -7.071068 -1.875269 -7.071068 0 
C -7.071068 1.875269 -6.326016 3.673985 -5 5 
C -3.673985 6.326016 -1.875269 7.071068 0 7.071068 
z
" style="stroke: #000000; stroke-width: 3"/>
    </defs>
    <g clip-path="url(#p6c9219aa99)">
     <use xlink:href="#ma8140bbe13" x="134.64" y="135.582036" style="fill: #ff0000; stroke: #000000; stroke-width: 3"/>
     <use xlink:href="#ma8140bbe13" x="179.28" y="185.668472" style="fill: #ff0000; stroke: #000000; stroke-width: 3"/>
     <use xlink:href="#ma8140bbe13" x="223.92" y="215.552122" style="fill: #ff0000; stroke: #000000; stroke-width: 3"/>
     <use xlink:href="#ma8140bbe13" x="268.56" y="240.322999" style="fill: #ff0000; stroke: #000000; stroke-width: 3"/>
     <use xlink:href="#ma8140bbe13" x="313.2" y="248.521069" style="fill: #ff0000; stroke: #000000; stroke-width: 3"/>
     <use xlink:href="#ma8140bbe13" x="357.84" y="266.051614" style="fill: #ff0000; stroke: #000000; stroke-width: 3"/>
     <use xlink:href="#ma8140bbe13" x="447.12" y="296.860193" style="fill: #ff0000; stroke: #000000; stroke-width: 3"/>
    </g>
   </g>
   <g id="patch_3">
    <path d="M 90 630 
L 90 86.4 
" style="fill: none; stroke: #262626; stroke-width: 7; stroke-linejoin: miter; stroke-linecap: square"/>
   </g>
   <g id="patch_4">
    <path d="M 648 630 
L 648 86.4 
" style="fill: none; stroke: #262626; stroke-width: 7; stroke-linejoin: miter; stroke-linecap: square"/>
   </g>
   <g id="patch_5">
    <path d="M 90 630 
L 648 630 
" style="fill: none; stroke: #262626; stroke-width: 7; stroke-linejoin: miter; stroke-linecap: square"/>
   </g>
   <g id="patch_6">
    <path d="M 90 86.4 
L 648 86.4 
" style="fill: none; stroke: #262626; stroke-width: 7; stroke-linejoin: miter; stroke-linecap: square"/>
   </g>
   <g id="legend_1">
    <g id="patch_7">
     <path d="M 367.589063 153.201562 
L 627 153.201562 
Q 633 153.201562 633 147.201562 
L 633 107.4 
Q 633 101.4 627 101.4 
L 367.589063 101.4 
Q 361.589063 101.4 361.589063 107.4 
L 361.589063 147.201562 
Q 361.589063 153.201562 367.589063 153.201562 
z
" style="fill: #ffffff; opacity: 0.8; stroke: #cccccc; stroke-linejoin: miter"/>
    </g>
    <g id="PathCollection_4">
     <g>
      <use xlink:href="#ma8140bbe13" x="403.589063" y="127.364062" style="fill: #ff0000; stroke: #000000; stroke-width: 3"/>
     </g>
    </g>
    <g id="text_12">
     <!-- GS Repeats -->
     <g style="fill: #262626" transform="translate(457.589063 135.239062)scale(0.3 -0.3)">
      <defs>
       <path id="ArialMT-47" d="M 2638 1797 
L 2638 2334 
L 4578 2338 
L 4578 638 
Q 4131 281 3656 101 
Q 3181 -78 2681 -78 
Q 2006 -78 1454 211 
Q 903 500 622 1047 
Q 341 1594 341 2269 
Q 341 2938 620 3517 
Q 900 4097 1425 4378 
Q 1950 4659 2634 4659 
Q 3131 4659 3532 4498 
Q 3934 4338 4162 4050 
Q 4391 3763 4509 3300 
L 3963 3150 
Q 3859 3500 3706 3700 
Q 3553 3900 3268 4020 
Q 2984 4141 2638 4141 
Q 2222 4141 1919 4014 
Q 1616 3888 1430 3681 
Q 1244 3475 1141 3228 
Q 966 2803 966 2306 
Q 966 1694 1177 1281 
Q 1388 869 1791 669 
Q 2194 469 2647 469 
Q 3041 469 3416 620 
Q 3791 772 3984 944 
L 3984 1797 
L 2638 1797 
z
" transform="scale(0.015625)"/>
       <path id="ArialMT-53" d="M 288 1472 
L 859 1522 
Q 900 1178 1048 958 
Q 1197 738 1509 602 
Q 1822 466 2213 466 
Q 2559 466 2825 569 
Q 3091 672 3220 851 
Q 3350 1031 3350 1244 
Q 3350 1459 3225 1620 
Q 3100 1781 2813 1891 
Q 2628 1963 1997 2114 
Q 1366 2266 1113 2400 
Q 784 2572 623 2826 
Q 463 3081 463 3397 
Q 463 3744 659 4045 
Q 856 4347 1234 4503 
Q 1613 4659 2075 4659 
Q 2584 4659 2973 4495 
Q 3363 4331 3572 4012 
Q 3781 3694 3797 3291 
L 3216 3247 
Q 3169 3681 2898 3903 
Q 2628 4125 2100 4125 
Q 1550 4125 1298 3923 
Q 1047 3722 1047 3438 
Q 1047 3191 1225 3031 
Q 1400 2872 2139 2705 
Q 2878 2538 3153 2413 
Q 3553 2228 3743 1945 
Q 3934 1663 3934 1294 
Q 3934 928 3725 604 
Q 3516 281 3123 101 
Q 2731 -78 2241 -78 
Q 1619 -78 1198 103 
Q 778 284 539 648 
Q 300 1013 288 1472 
z
" transform="scale(0.015625)"/>
       <path id="ArialMT-52" d="M 503 0 
L 503 4581 
L 2534 4581 
Q 3147 4581 3465 4457 
Q 3784 4334 3975 4021 
Q 4166 3709 4166 3331 
Q 4166 2844 3850 2509 
Q 3534 2175 2875 2084 
Q 3116 1969 3241 1856 
Q 3506 1613 3744 1247 
L 4541 0 
L 3778 0 
L 3172 953 
Q 2906 1366 2734 1584 
Q 2563 1803 2427 1890 
Q 2291 1978 2150 2013 
Q 2047 2034 1813 2034 
L 1109 2034 
L 1109 0 
L 503 0 
z
M 1109 2559 
L 2413 2559 
Q 2828 2559 3062 2645 
Q 3297 2731 3419 2920 
Q 3541 3109 3541 3331 
Q 3541 3656 3305 3865 
Q 3069 4075 2559 4075 
L 1109 4075 
L 1109 2559 
z
" transform="scale(0.015625)"/>
       <path id="ArialMT-70" d="M 422 -1272 
L 422 3319 
L 934 3319 
L 934 2888 
Q 1116 3141 1344 3267 
Q 1572 3394 1897 3394 
Q 2322 3394 2647 3175 
Q 2972 2956 3137 2557 
Q 3303 2159 3303 1684 
Q 3303 1175 3120 767 
Q 2938 359 2589 142 
Q 2241 -75 1856 -75 
Q 1575 -75 1351 44 
Q 1128 163 984 344 
L 984 -1272 
L 422 -1272 
z
M 931 1641 
Q 931 1000 1190 694 
Q 1450 388 1819 388 
Q 2194 388 2461 705 
Q 2728 1022 2728 1688 
Q 2728 2322 2467 2637 
Q 2206 2953 1844 2953 
Q 1484 2953 1207 2617 
Q 931 2281 931 1641 
z
" transform="scale(0.015625)"/>
       <path id="ArialMT-61" d="M 2588 409 
Q 2275 144 1986 34 
Q 1697 -75 1366 -75 
Q 819 -75 525 192 
Q 231 459 231 875 
Q 231 1119 342 1320 
Q 453 1522 633 1644 
Q 813 1766 1038 1828 
Q 1203 1872 1538 1913 
Q 2219 1994 2541 2106 
Q 2544 2222 2544 2253 
Q 2544 2597 2384 2738 
Q 2169 2928 1744 2928 
Q 1347 2928 1158 2789 
Q 969 2650 878 2297 
L 328 2372 
Q 403 2725 575 2942 
Q 747 3159 1072 3276 
Q 1397 3394 1825 3394 
Q 2250 3394 2515 3294 
Q 2781 3194 2906 3042 
Q 3031 2891 3081 2659 
Q 3109 2516 3109 2141 
L 3109 1391 
Q 3109 606 3145 398 
Q 3181 191 3288 0 
L 2700 0 
Q 2613 175 2588 409 
z
M 2541 1666 
Q 2234 1541 1622 1453 
Q 1275 1403 1131 1340 
Q 988 1278 909 1158 
Q 831 1038 831 891 
Q 831 666 1001 516 
Q 1172 366 1500 366 
Q 1825 366 2078 508 
Q 2331 650 2450 897 
Q 2541 1088 2541 1459 
L 2541 1666 
z
" transform="scale(0.015625)"/>
       <path id="ArialMT-74" d="M 1650 503 
L 1731 6 
Q 1494 -44 1306 -44 
Q 1000 -44 831 53 
Q 663 150 594 308 
Q 525 466 525 972 
L 525 2881 
L 113 2881 
L 113 3319 
L 525 3319 
L 525 4141 
L 1084 4478 
L 1084 3319 
L 1650 3319 
L 1650 2881 
L 1084 2881 
L 1084 941 
Q 1084 700 1114 631 
Q 1144 563 1211 522 
Q 1278 481 1403 481 
Q 1497 481 1650 503 
z
" transform="scale(0.015625)"/>
      </defs>
      <use xlink:href="#ArialMT-47"/>
      <use xlink:href="#ArialMT-53" x="77.783203"/>
      <use xlink:href="#ArialMT-20" x="144.482422"/>
      <use xlink:href="#ArialMT-52" x="172.265625"/>
      <use xlink:href="#ArialMT-65" x="244.482422"/>
      <use xlink:href="#ArialMT-70" x="300.097656"/>
      <use xlink:href="#ArialMT-65" x="355.712891"/>
      <use xlink:href="#ArialMT-61" x="411.328125"/>
      <use xlink:href="#ArialMT-74" x="466.943359"/>
      <use xlink:href="#ArialMT-73" x="494.726562"/>
     </g>
    </g>
   </g>
  </g>
 </g>
 <defs>
  <clipPath id="p6c9219aa99">
   <rect x="90" y="86.4" width="558" height="543.6"/>
  </clipPath>
 </defs>
</svg>
