<?xml version="1.0" encoding="utf-8" standalone="no"?>
<!DOCTYPE svg PUBLIC "-//W3C//DTD SVG 1.1//EN"
  "http://www.w3.org/Graphics/SVG/1.1/DTD/svg11.dtd">
<svg xmlns:xlink="http://www.w3.org/1999/xlink" width="720pt" height="720pt" viewBox="0 0 720 720" xmlns="http://www.w3.org/2000/svg" version="1.1">
 <metadata>
  <rdf:RDF xmlns:dc="http://purl.org/dc/elements/1.1/" xmlns:cc="http://creativecommons.org/ns#" xmlns:rdf="http://www.w3.org/1999/02/22-rdf-syntax-ns#">
   <cc:Work>
    <dc:type rdf:resource="http://purl.org/dc/dcmitype/StillImage"/>
    <dc:date>2023-01-17T14:16:34.259990</dc:date>
    <dc:format>image/svg+xml</dc:format>
    <dc:creator>
     <cc:Agent>
      <dc:title>Matplotlib v3.5.0, https://matplotlib.org/</dc:title>
     </cc:Agent>
    </dc:creator>
   </cc:Work>
  </rdf:RDF>
 </metadata>
 <defs>
  <style type="text/css">*{stroke-linejoin: round; stroke-linecap: butt}</style>
 </defs>
 <g id="figure_1">
  <g id="patch_1">
   <path d="M 0 720 
L 720 720 
L 720 0 
L 0 0 
z
" style="fill: #ffffff"/>
  </g>
  <g id="axes_1">
   <g id="patch_2">
    <path d="M 90 630 
L 648 630 
L 648 86.4 
L 90 86.4 
z
" style="fill: #ffffff"/>
   </g>
   <g id="matplotlib.axis_1">
    <g id="text_1">
     <!-- protein:solvent interaction  -->
     <g style="fill: #262626" transform="translate(18.825 752.946875)scale(0.6 -0.6)">
      <defs>
       <path id="ArialMT-70" d="M 422 -1272 
L 422 3319 
L 934 3319 
L 934 2888 
Q 1116 3141 1344 3267 
Q 1572 3394 1897 3394 
Q 2322 3394 2647 3175 
Q 2972 2956 3137 2557 
Q 3303 2159 3303 1684 
Q 3303 1175 3120 767 
Q 2938 359 2589 142 
Q 2241 -75 1856 -75 
Q 1575 -75 1351 44 
Q 1128 163 984 344 
L 984 -1272 
L 422 -1272 
z
M 931 1641 
Q 931 1000 1190 694 
Q 1450 388 1819 388 
Q 2194 388 2461 705 
Q 2728 1022 2728 1688 
Q 2728 2322 2467 2637 
Q 2206 2953 1844 2953 
Q 1484 2953 1207 2617 
Q 931 2281 931 1641 
z
" transform="scale(0.015625)"/>
       <path id="ArialMT-72" d="M 416 0 
L 416 3319 
L 922 3319 
L 922 2816 
Q 1116 3169 1280 3281 
Q 1444 3394 1641 3394 
Q 1925 3394 2219 3213 
L 2025 2691 
Q 1819 2813 1613 2813 
Q 1428 2813 1281 2702 
Q 1134 2591 1072 2394 
Q 978 2094 978 1738 
L 978 0 
L 416 0 
z
" transform="scale(0.015625)"/>
       <path id="ArialMT-6f" d="M 213 1659 
Q 213 2581 725 3025 
Q 1153 3394 1769 3394 
Q 2453 3394 2887 2945 
Q 3322 2497 3322 1706 
Q 3322 1066 3130 698 
Q 2938 331 2570 128 
Q 2203 -75 1769 -75 
Q 1072 -75 642 372 
Q 213 819 213 1659 
z
M 791 1659 
Q 791 1022 1069 705 
Q 1347 388 1769 388 
Q 2188 388 2466 706 
Q 2744 1025 2744 1678 
Q 2744 2294 2464 2611 
Q 2184 2928 1769 2928 
Q 1347 2928 1069 2612 
Q 791 2297 791 1659 
z
" transform="scale(0.015625)"/>
       <path id="ArialMT-74" d="M 1650 503 
L 1731 6 
Q 1494 -44 1306 -44 
Q 1000 -44 831 53 
Q 663 150 594 308 
Q 525 466 525 972 
L 525 2881 
L 113 2881 
L 113 3319 
L 525 3319 
L 525 4141 
L 1084 4478 
L 1084 3319 
L 1650 3319 
L 1650 2881 
L 1084 2881 
L 1084 941 
Q 1084 700 1114 631 
Q 1144 563 1211 522 
Q 1278 481 1403 481 
Q 1497 481 1650 503 
z
" transform="scale(0.015625)"/>
       <path id="ArialMT-65" d="M 2694 1069 
L 3275 997 
Q 3138 488 2766 206 
Q 2394 -75 1816 -75 
Q 1088 -75 661 373 
Q 234 822 234 1631 
Q 234 2469 665 2931 
Q 1097 3394 1784 3394 
Q 2450 3394 2872 2941 
Q 3294 2488 3294 1666 
Q 3294 1616 3291 1516 
L 816 1516 
Q 847 969 1125 678 
Q 1403 388 1819 388 
Q 2128 388 2347 550 
Q 2566 713 2694 1069 
z
M 847 1978 
L 2700 1978 
Q 2663 2397 2488 2606 
Q 2219 2931 1791 2931 
Q 1403 2931 1139 2672 
Q 875 2413 847 1978 
z
" transform="scale(0.015625)"/>
       <path id="ArialMT-69" d="M 425 3934 
L 425 4581 
L 988 4581 
L 988 3934 
L 425 3934 
z
M 425 0 
L 425 3319 
L 988 3319 
L 988 0 
L 425 0 
z
" transform="scale(0.015625)"/>
       <path id="ArialMT-6e" d="M 422 0 
L 422 3319 
L 928 3319 
L 928 2847 
Q 1294 3394 1984 3394 
Q 2284 3394 2536 3286 
Q 2788 3178 2913 3003 
Q 3038 2828 3088 2588 
Q 3119 2431 3119 2041 
L 3119 0 
L 2556 0 
L 2556 2019 
Q 2556 2363 2490 2533 
Q 2425 2703 2258 2804 
Q 2091 2906 1866 2906 
Q 1506 2906 1245 2678 
Q 984 2450 984 1813 
L 984 0 
L 422 0 
z
" transform="scale(0.015625)"/>
       <path id="ArialMT-3a" d="M 578 2678 
L 578 3319 
L 1219 3319 
L 1219 2678 
L 578 2678 
z
M 578 0 
L 578 641 
L 1219 641 
L 1219 0 
L 578 0 
z
" transform="scale(0.015625)"/>
       <path id="ArialMT-73" d="M 197 991 
L 753 1078 
Q 800 744 1014 566 
Q 1228 388 1613 388 
Q 2000 388 2187 545 
Q 2375 703 2375 916 
Q 2375 1106 2209 1216 
Q 2094 1291 1634 1406 
Q 1016 1563 777 1677 
Q 538 1791 414 1992 
Q 291 2194 291 2438 
Q 291 2659 392 2848 
Q 494 3038 669 3163 
Q 800 3259 1026 3326 
Q 1253 3394 1513 3394 
Q 1903 3394 2198 3281 
Q 2494 3169 2634 2976 
Q 2775 2784 2828 2463 
L 2278 2388 
Q 2241 2644 2061 2787 
Q 1881 2931 1553 2931 
Q 1166 2931 1000 2803 
Q 834 2675 834 2503 
Q 834 2394 903 2306 
Q 972 2216 1119 2156 
Q 1203 2125 1616 2013 
Q 2213 1853 2448 1751 
Q 2684 1650 2818 1456 
Q 2953 1263 2953 975 
Q 2953 694 2789 445 
Q 2625 197 2315 61 
Q 2006 -75 1616 -75 
Q 969 -75 630 194 
Q 291 463 197 991 
z
" transform="scale(0.015625)"/>
       <path id="ArialMT-6c" d="M 409 0 
L 409 4581 
L 972 4581 
L 972 0 
L 409 0 
z
" transform="scale(0.015625)"/>
       <path id="ArialMT-76" d="M 1344 0 
L 81 3319 
L 675 3319 
L 1388 1331 
Q 1503 1009 1600 663 
Q 1675 925 1809 1294 
L 2547 3319 
L 3125 3319 
L 1869 0 
L 1344 0 
z
" transform="scale(0.015625)"/>
       <path id="ArialMT-20" transform="scale(0.015625)"/>
       <path id="ArialMT-61" d="M 2588 409 
Q 2275 144 1986 34 
Q 1697 -75 1366 -75 
Q 819 -75 525 192 
Q 231 459 231 875 
Q 231 1119 342 1320 
Q 453 1522 633 1644 
Q 813 1766 1038 1828 
Q 1203 1872 1538 1913 
Q 2219 1994 2541 2106 
Q 2544 2222 2544 2253 
Q 2544 2597 2384 2738 
Q 2169 2928 1744 2928 
Q 1347 2928 1158 2789 
Q 969 2650 878 2297 
L 328 2372 
Q 403 2725 575 2942 
Q 747 3159 1072 3276 
Q 1397 3394 1825 3394 
Q 2250 3394 2515 3294 
Q 2781 3194 2906 3042 
Q 3031 2891 3081 2659 
Q 3109 2516 3109 2141 
L 3109 1391 
Q 3109 606 3145 398 
Q 3181 191 3288 0 
L 2700 0 
Q 2613 175 2588 409 
z
M 2541 1666 
Q 2234 1541 1622 1453 
Q 1275 1403 1131 1340 
Q 988 1278 909 1158 
Q 831 1038 831 891 
Q 831 666 1001 516 
Q 1172 366 1500 366 
Q 1825 366 2078 508 
Q 2331 650 2450 897 
Q 2541 1088 2541 1459 
L 2541 1666 
z
" transform="scale(0.015625)"/>
       <path id="ArialMT-63" d="M 2588 1216 
L 3141 1144 
Q 3050 572 2676 248 
Q 2303 -75 1759 -75 
Q 1078 -75 664 370 
Q 250 816 250 1647 
Q 250 2184 428 2587 
Q 606 2991 970 3192 
Q 1334 3394 1763 3394 
Q 2303 3394 2647 3120 
Q 2991 2847 3088 2344 
L 2541 2259 
Q 2463 2594 2264 2762 
Q 2066 2931 1784 2931 
Q 1359 2931 1093 2626 
Q 828 2322 828 1663 
Q 828 994 1084 691 
Q 1341 388 1753 388 
Q 2084 388 2306 591 
Q 2528 794 2588 1216 
z
" transform="scale(0.015625)"/>
      </defs>
      <use xlink:href="#ArialMT-70"/>
      <use xlink:href="#ArialMT-72" x="55.615234"/>
      <use xlink:href="#ArialMT-6f" x="88.916016"/>
      <use xlink:href="#ArialMT-74" x="144.53125"/>
      <use xlink:href="#ArialMT-65" x="172.314453"/>
      <use xlink:href="#ArialMT-69" x="227.929688"/>
      <use xlink:href="#ArialMT-6e" x="250.146484"/>
      <use xlink:href="#ArialMT-3a" x="305.761719"/>
      <use xlink:href="#ArialMT-73" x="333.544922"/>
      <use xlink:href="#ArialMT-6f" x="383.544922"/>
      <use xlink:href="#ArialMT-6c" x="439.160156"/>
      <use xlink:href="#ArialMT-76" x="461.376953"/>
      <use xlink:href="#ArialMT-65" x="511.376953"/>
      <use xlink:href="#ArialMT-6e" x="566.992188"/>
      <use xlink:href="#ArialMT-74" x="622.607422"/>
      <use xlink:href="#ArialMT-20" x="650.390625"/>
      <use xlink:href="#ArialMT-69" x="678.173828"/>
      <use xlink:href="#ArialMT-6e" x="700.390625"/>
      <use xlink:href="#ArialMT-74" x="756.005859"/>
      <use xlink:href="#ArialMT-65" x="783.789062"/>
      <use xlink:href="#ArialMT-72" x="839.404297"/>
      <use xlink:href="#ArialMT-61" x="872.705078"/>
      <use xlink:href="#ArialMT-63" x="928.320312"/>
      <use xlink:href="#ArialMT-74" x="978.320312"/>
      <use xlink:href="#ArialMT-69" x="1006.103516"/>
      <use xlink:href="#ArialMT-6f" x="1028.320312"/>
      <use xlink:href="#ArialMT-6e" x="1083.935547"/>
      <use xlink:href="#ArialMT-20" x="1139.550781"/>
     </g>
    </g>
   </g>
   <g id="matplotlib.axis_2">
    <g id="ytick_1">
     <g id="line2d_1">
      <defs>
       <path id="m896a14c133" d="M 0 0 
L -20 0 
" style="stroke: #262626; stroke-width: 7"/>
      </defs>
      <g>
       <use xlink:href="#m896a14c133" x="90" y="618.757369" style="fill: #262626; stroke: #262626; stroke-width: 7"/>
      </g>
     </g>
     <g id="text_2">
      <!-- −1.0 -->
      <g style="fill: #262626" transform="translate(-32.203125 636.6519)scale(0.5 -0.5)">
       <defs>
        <path id="ArialMT-2212" d="M 3381 1997 
L 356 1997 
L 356 2522 
L 3381 2522 
L 3381 1997 
z
" transform="scale(0.015625)"/>
        <path id="ArialMT-31" d="M 2384 0 
L 1822 0 
L 1822 3584 
Q 1619 3391 1289 3197 
Q 959 3003 697 2906 
L 697 3450 
Q 1169 3672 1522 3987 
Q 1875 4303 2022 4600 
L 2384 4600 
L 2384 0 
z
" transform="scale(0.015625)"/>
        <path id="ArialMT-2e" d="M 581 0 
L 581 641 
L 1222 641 
L 1222 0 
L 581 0 
z
" transform="scale(0.015625)"/>
        <path id="ArialMT-30" d="M 266 2259 
Q 266 3072 433 3567 
Q 600 4063 929 4331 
Q 1259 4600 1759 4600 
Q 2128 4600 2406 4451 
Q 2684 4303 2865 4023 
Q 3047 3744 3150 3342 
Q 3253 2941 3253 2259 
Q 3253 1453 3087 958 
Q 2922 463 2592 192 
Q 2263 -78 1759 -78 
Q 1097 -78 719 397 
Q 266 969 266 2259 
z
M 844 2259 
Q 844 1131 1108 757 
Q 1372 384 1759 384 
Q 2147 384 2411 759 
Q 2675 1134 2675 2259 
Q 2675 3391 2411 3762 
Q 2147 4134 1753 4134 
Q 1366 4134 1134 3806 
Q 844 3388 844 2259 
z
" transform="scale(0.015625)"/>
       </defs>
       <use xlink:href="#ArialMT-2212"/>
       <use xlink:href="#ArialMT-31" x="58.398438"/>
       <use xlink:href="#ArialMT-2e" x="114.013672"/>
       <use xlink:href="#ArialMT-30" x="141.796875"/>
      </g>
     </g>
    </g>
    <g id="ytick_2">
     <g id="line2d_2">
      <g>
       <use xlink:href="#m896a14c133" x="90" y="445.685554" style="fill: #262626; stroke: #262626; stroke-width: 7"/>
      </g>
     </g>
     <g id="text_3">
      <!-- −0.5 -->
      <g style="fill: #262626" transform="translate(-32.203125 463.580085)scale(0.5 -0.5)">
       <defs>
        <path id="ArialMT-35" d="M 266 1200 
L 856 1250 
Q 922 819 1161 601 
Q 1400 384 1738 384 
Q 2144 384 2425 690 
Q 2706 997 2706 1503 
Q 2706 1984 2436 2262 
Q 2166 2541 1728 2541 
Q 1456 2541 1237 2417 
Q 1019 2294 894 2097 
L 366 2166 
L 809 4519 
L 3088 4519 
L 3088 3981 
L 1259 3981 
L 1013 2750 
Q 1425 3038 1878 3038 
Q 2478 3038 2890 2622 
Q 3303 2206 3303 1553 
Q 3303 931 2941 478 
Q 2500 -78 1738 -78 
Q 1113 -78 717 272 
Q 322 622 266 1200 
z
" transform="scale(0.015625)"/>
       </defs>
       <use xlink:href="#ArialMT-2212"/>
       <use xlink:href="#ArialMT-30" x="58.398438"/>
       <use xlink:href="#ArialMT-2e" x="114.013672"/>
       <use xlink:href="#ArialMT-35" x="141.796875"/>
      </g>
     </g>
    </g>
    <g id="ytick_3">
     <g id="line2d_3">
      <g>
       <use xlink:href="#m896a14c133" x="90" y="272.613738" style="fill: #262626; stroke: #262626; stroke-width: 7"/>
      </g>
     </g>
     <g id="text_4">
      <!-- 0.0 -->
      <g style="fill: #262626" transform="translate(-3 290.50827)scale(0.5 -0.5)">
       <use xlink:href="#ArialMT-30"/>
       <use xlink:href="#ArialMT-2e" x="55.615234"/>
       <use xlink:href="#ArialMT-30" x="83.398438"/>
      </g>
     </g>
    </g>
    <g id="ytick_4">
     <g id="line2d_4">
      <g>
       <use xlink:href="#m896a14c133" x="90" y="99.541923" style="fill: #262626; stroke: #262626; stroke-width: 7"/>
      </g>
     </g>
     <g id="text_5">
      <!-- 0.5 -->
      <g style="fill: #262626" transform="translate(-3 117.436454)scale(0.5 -0.5)">
       <use xlink:href="#ArialMT-30"/>
       <use xlink:href="#ArialMT-2e" x="55.615234"/>
       <use xlink:href="#ArialMT-35" x="83.398438"/>
      </g>
     </g>
    </g>
    <g id="text_6">
     <!-- $(R_{ee}$/$R_{ee}^{aq})$-1 -->
     <g style="fill: #262626" transform="translate(-53.603125 514.2)rotate(-90)scale(0.6 -0.6)">
      <defs>
       <path id="DejaVuSans-28" d="M 1984 4856 
Q 1566 4138 1362 3434 
Q 1159 2731 1159 2009 
Q 1159 1288 1364 580 
Q 1569 -128 1984 -844 
L 1484 -844 
Q 1016 -109 783 600 
Q 550 1309 550 2009 
Q 550 2706 781 3412 
Q 1013 4119 1484 4856 
L 1984 4856 
z
" transform="scale(0.015625)"/>
       <path id="DejaVuSans-Oblique-52" d="M 1613 4147 
L 1294 2491 
L 2106 2491 
Q 2584 2491 2879 2755 
Q 3175 3019 3175 3444 
Q 3175 3784 2976 3965 
Q 2778 4147 2406 4147 
L 1613 4147 
z
M 2772 2241 
Q 2972 2194 3105 2009 
Q 3238 1825 3413 1275 
L 3809 0 
L 3144 0 
L 2778 1197 
Q 2638 1659 2453 1815 
Q 2269 1972 1888 1972 
L 1191 1972 
L 806 0 
L 172 0 
L 1081 4666 
L 2503 4666 
Q 3150 4666 3495 4373 
Q 3841 4081 3841 3531 
Q 3841 3044 3547 2687 
Q 3253 2331 2772 2241 
z
" transform="scale(0.015625)"/>
       <path id="DejaVuSans-Oblique-65" d="M 3078 2063 
Q 3088 2113 3092 2166 
Q 3097 2219 3097 2272 
Q 3097 2653 2873 2875 
Q 2650 3097 2266 3097 
Q 1838 3097 1509 2826 
Q 1181 2556 1013 2059 
L 3078 2063 
z
M 3578 1613 
L 903 1613 
Q 884 1494 878 1425 
Q 872 1356 872 1306 
Q 872 872 1139 634 
Q 1406 397 1894 397 
Q 2269 397 2603 481 
Q 2938 566 3225 728 
L 3116 159 
Q 2806 34 2476 -28 
Q 2147 -91 1806 -91 
Q 1078 -91 686 257 
Q 294 606 294 1247 
Q 294 1794 489 2264 
Q 684 2734 1063 3103 
Q 1306 3334 1642 3459 
Q 1978 3584 2356 3584 
Q 2950 3584 3301 3228 
Q 3653 2872 3653 2272 
Q 3653 2128 3634 1964 
Q 3616 1800 3578 1613 
z
" transform="scale(0.015625)"/>
       <path id="ArialMT-2f" d="M 0 -78 
L 1328 4659 
L 1778 4659 
L 453 -78 
L 0 -78 
z
" transform="scale(0.015625)"/>
       <path id="DejaVuSans-Oblique-61" d="M 3438 1997 
L 3047 0 
L 2472 0 
L 2578 531 
Q 2325 219 2001 64 
Q 1678 -91 1281 -91 
Q 834 -91 548 182 
Q 263 456 263 884 
Q 263 1497 752 1853 
Q 1241 2209 2100 2209 
L 2900 2209 
L 2931 2363 
Q 2938 2388 2941 2417 
Q 2944 2447 2944 2509 
Q 2944 2788 2717 2942 
Q 2491 3097 2081 3097 
Q 1800 3097 1504 3025 
Q 1209 2953 897 2809 
L 997 3341 
Q 1322 3463 1633 3523 
Q 1944 3584 2234 3584 
Q 2853 3584 3176 3315 
Q 3500 3047 3500 2534 
Q 3500 2431 3484 2292 
Q 3469 2153 3438 1997 
z
M 2816 1759 
L 2241 1759 
Q 1534 1759 1195 1570 
Q 856 1381 856 984 
Q 856 709 1029 553 
Q 1203 397 1509 397 
Q 1978 397 2328 733 
Q 2678 1069 2791 1631 
L 2816 1759 
z
" transform="scale(0.015625)"/>
       <path id="DejaVuSans-Oblique-71" d="M 2669 525 
Q 2438 222 2123 65 
Q 1809 -91 1428 -91 
Q 897 -91 595 267 
Q 294 625 294 1253 
Q 294 1759 480 2231 
Q 666 2703 1013 3078 
Q 1238 3322 1530 3453 
Q 1822 3584 2144 3584 
Q 2531 3584 2781 3431 
Q 3031 3278 3144 2969 
L 3244 3494 
L 3822 3494 
L 2888 -1319 
L 2309 -1319 
L 2669 525 
z
M 891 1338 
Q 891 875 1084 633 
Q 1278 391 1644 391 
Q 2188 391 2572 911 
Q 2956 1431 2956 2175 
Q 2956 2625 2757 2864 
Q 2559 3103 2188 3103 
Q 1916 3103 1684 2976 
Q 1453 2850 1281 2606 
Q 1100 2350 995 2006 
Q 891 1663 891 1338 
z
" transform="scale(0.015625)"/>
       <path id="DejaVuSans-29" d="M 513 4856 
L 1013 4856 
Q 1481 4119 1714 3412 
Q 1947 2706 1947 2009 
Q 1947 1309 1714 600 
Q 1481 -109 1013 -844 
L 513 -844 
Q 928 -128 1133 580 
Q 1338 1288 1338 2009 
Q 1338 2731 1133 3434 
Q 928 4138 513 4856 
z
" transform="scale(0.015625)"/>
       <path id="ArialMT-2d" d="M 203 1375 
L 203 1941 
L 1931 1941 
L 1931 1375 
L 203 1375 
z
" transform="scale(0.015625)"/>
      </defs>
      <use xlink:href="#DejaVuSans-28" transform="translate(0 0.017188)"/>
      <use xlink:href="#DejaVuSans-Oblique-52" transform="translate(39.013672 0.017188)"/>
      <use xlink:href="#DejaVuSans-Oblique-65" transform="translate(108.496094 -16.389062)scale(0.7)"/>
      <use xlink:href="#DejaVuSans-Oblique-65" transform="translate(151.5625 -16.389062)scale(0.7)"/>
      <use xlink:href="#ArialMT-2f" transform="translate(197.363281 0.017188)"/>
      <use xlink:href="#DejaVuSans-Oblique-52" transform="translate(225.146484 0.017188)"/>
      <use xlink:href="#DejaVuSans-Oblique-61" transform="translate(301.645677 38.8)scale(0.7)"/>
      <use xlink:href="#DejaVuSans-Oblique-71" transform="translate(344.541185 38.8)scale(0.7)"/>
      <use xlink:href="#DejaVuSans-Oblique-65" transform="translate(294.628906 -27.326562)scale(0.7)"/>
      <use xlink:href="#DejaVuSans-Oblique-65" transform="translate(337.695312 -27.326562)scale(0.7)"/>
      <use xlink:href="#DejaVuSans-29" transform="translate(391.709154 0.017188)"/>
      <use xlink:href="#ArialMT-2d" transform="translate(430.722826 0.017188)"/>
      <use xlink:href="#ArialMT-31" transform="translate(464.023607 0.017188)"/>
     </g>
    </g>
   </g>
   <g id="line2d_5">
    <path d="M 622.636364 393.446738 
L 538.090909 398.609665 
L 453.545455 347.502718 
L 369 272.613738 
L 284.454545 215.72431 
L 199.909091 153.138241 
L 115.363636 120.842635 
" clip-path="url(#pc6a9d2efbd)" style="fill: none; stroke: #008000; stroke-width: 8; stroke-linecap: round"/>
    <defs>
     <path id="m2089b128ba" d="M 0 15 
C 3.978047 15 7.793698 13.419505 10.606602 10.606602 
C 13.419505 7.793698 15 3.978047 15 0 
C 15 -3.978047 13.419505 -7.793698 10.606602 -10.606602 
C 7.793698 -13.419505 3.978047 -15 0 -15 
C -3.978047 -15 -7.793698 -13.419505 -10.606602 -10.606602 
C -13.419505 -7.793698 -15 -3.978047 -15 0 
C -15 3.978047 -13.419505 7.793698 -10.606602 10.606602 
C -7.793698 13.419505 -3.978047 15 0 15 
z
" style="stroke: #008000"/>
    </defs>
    <g clip-path="url(#pc6a9d2efbd)">
     <use xlink:href="#m2089b128ba" x="622.636364" y="393.446738" style="fill: #008000; stroke: #008000"/>
     <use xlink:href="#m2089b128ba" x="538.090909" y="398.609665" style="fill: #008000; stroke: #008000"/>
     <use xlink:href="#m2089b128ba" x="453.545455" y="347.502718" style="fill: #008000; stroke: #008000"/>
     <use xlink:href="#m2089b128ba" x="369" y="272.613738" style="fill: #008000; stroke: #008000"/>
     <use xlink:href="#m2089b128ba" x="284.454545" y="215.72431" style="fill: #008000; stroke: #008000"/>
     <use xlink:href="#m2089b128ba" x="199.909091" y="153.138241" style="fill: #008000; stroke: #008000"/>
     <use xlink:href="#m2089b128ba" x="115.363636" y="120.842635" style="fill: #008000; stroke: #008000"/>
    </g>
   </g>
   <g id="line2d_6">
    <path d="M 622.636364 486.826908 
L 538.090909 386.679114 
L 453.545455 347.415631 
L 369 272.613738 
L 284.454545 244.774336 
L 199.909091 230.531332 
L 115.363636 217.617207 
" clip-path="url(#pc6a9d2efbd)" style="fill: none; stroke: #0000ff; stroke-width: 8; stroke-linecap: round"/>
    <defs>
     <path id="me676ae5d8c" d="M 0 15 
C 3.978047 15 7.793698 13.419505 10.606602 10.606602 
C 13.419505 7.793698 15 3.978047 15 0 
C 15 -3.978047 13.419505 -7.793698 10.606602 -10.606602 
C 7.793698 -13.419505 3.978047 -15 0 -15 
C -3.978047 -15 -7.793698 -13.419505 -10.606602 -10.606602 
C -13.419505 -7.793698 -15 -3.978047 -15 0 
C -15 3.978047 -13.419505 7.793698 -10.606602 10.606602 
C -7.793698 13.419505 -3.978047 15 0 15 
z
" style="stroke: #0000ff"/>
    </defs>
    <g clip-path="url(#pc6a9d2efbd)">
     <use xlink:href="#me676ae5d8c" x="622.636364" y="486.826908" style="fill: #0000ff; stroke: #0000ff"/>
     <use xlink:href="#me676ae5d8c" x="538.090909" y="386.679114" style="fill: #0000ff; stroke: #0000ff"/>
     <use xlink:href="#me676ae5d8c" x="453.545455" y="347.415631" style="fill: #0000ff; stroke: #0000ff"/>
     <use xlink:href="#me676ae5d8c" x="369" y="272.613738" style="fill: #0000ff; stroke: #0000ff"/>
     <use xlink:href="#me676ae5d8c" x="284.454545" y="244.774336" style="fill: #0000ff; stroke: #0000ff"/>
     <use xlink:href="#me676ae5d8c" x="199.909091" y="230.531332" style="fill: #0000ff; stroke: #0000ff"/>
     <use xlink:href="#me676ae5d8c" x="115.363636" y="217.617207" style="fill: #0000ff; stroke: #0000ff"/>
    </g>
   </g>
   <g id="line2d_7">
    <path d="M 622.636364 392.973456 
L 538.090909 344.520156 
L 453.545455 300.00685 
L 369 272.613738 
L 284.454545 240.53451 
L 199.909091 222.943962 
L 115.363636 203.601218 
" clip-path="url(#pc6a9d2efbd)" style="fill: none; stroke: #ff0000; stroke-width: 8; stroke-linecap: round"/>
    <defs>
     <path id="m395f573ec7" d="M 0 15 
C 3.978047 15 7.793698 13.419505 10.606602 10.606602 
C 13.419505 7.793698 15 3.978047 15 0 
C 15 -3.978047 13.419505 -7.793698 10.606602 -10.606602 
C 7.793698 -13.419505 3.978047 -15 0 -15 
C -3.978047 -15 -7.793698 -13.419505 -10.606602 -10.606602 
C -13.419505 -7.793698 -15 -3.978047 -15 0 
C -15 3.978047 -13.419505 7.793698 -10.606602 10.606602 
C -7.793698 13.419505 -3.978047 15 0 15 
z
" style="stroke: #ff0000"/>
    </defs>
    <g clip-path="url(#pc6a9d2efbd)">
     <use xlink:href="#m395f573ec7" x="622.636364" y="392.973456" style="fill: #ff0000; stroke: #ff0000"/>
     <use xlink:href="#m395f573ec7" x="538.090909" y="344.520156" style="fill: #ff0000; stroke: #ff0000"/>
     <use xlink:href="#m395f573ec7" x="453.545455" y="300.00685" style="fill: #ff0000; stroke: #ff0000"/>
     <use xlink:href="#m395f573ec7" x="369" y="272.613738" style="fill: #ff0000; stroke: #ff0000"/>
     <use xlink:href="#m395f573ec7" x="284.454545" y="240.53451" style="fill: #ff0000; stroke: #ff0000"/>
     <use xlink:href="#m395f573ec7" x="199.909091" y="222.943962" style="fill: #ff0000; stroke: #ff0000"/>
     <use xlink:href="#m395f573ec7" x="115.363636" y="203.601218" style="fill: #ff0000; stroke: #ff0000"/>
    </g>
   </g>
   <g id="patch_3">
    <path d="M 90 630 
L 90 86.4 
" style="fill: none; stroke: #262626; stroke-width: 7; stroke-linejoin: miter; stroke-linecap: square"/>
   </g>
   <g id="patch_4">
    <path d="M 648 630 
L 648 86.4 
" style="fill: none; stroke: #262626; stroke-width: 7; stroke-linejoin: miter; stroke-linecap: square"/>
   </g>
   <g id="patch_5">
    <path d="M 90 630 
L 648 630 
" style="fill: none; stroke: #262626; stroke-width: 7; stroke-linejoin: miter; stroke-linecap: square"/>
   </g>
   <g id="patch_6">
    <path d="M 90 86.4 
L 648 86.4 
" style="fill: none; stroke: #262626; stroke-width: 7; stroke-linejoin: miter; stroke-linecap: square"/>
   </g>
   <g id="PathCollection_1">
    <defs>
     <path id="m3da6804c03" d="M 0 14.142136 
C 3.750538 14.142136 7.347969 12.652031 10 10 
C 12.652031 7.347969 14.142136 3.750538 14.142136 0 
C 14.142136 -3.750538 12.652031 -7.347969 10 -10 
C 7.347969 -12.652031 3.750538 -14.142136 0 -14.142136 
C -3.750538 -14.142136 -7.347969 -12.652031 -10 -10 
C -12.652031 -7.347969 -14.142136 -3.750538 -14.142136 0 
C -14.142136 3.750538 -12.652031 7.347969 -10 10 
C -7.347969 12.652031 -3.750538 14.142136 0 14.142136 
z
" style="stroke: #000000; stroke-width: 5"/>
    </defs>
    <g clip-path="url(#pc6a9d2efbd)">
     <use xlink:href="#m3da6804c03" x="622.636364" y="393.446738" style="fill: #008000; stroke: #000000; stroke-width: 5"/>
     <use xlink:href="#m3da6804c03" x="538.090909" y="398.609665" style="fill: #008000; stroke: #000000; stroke-width: 5"/>
     <use xlink:href="#m3da6804c03" x="453.545455" y="347.502718" style="fill: #008000; stroke: #000000; stroke-width: 5"/>
     <use xlink:href="#m3da6804c03" x="369" y="272.613738" style="fill: #008000; stroke: #000000; stroke-width: 5"/>
     <use xlink:href="#m3da6804c03" x="284.454545" y="215.72431" style="fill: #008000; stroke: #000000; stroke-width: 5"/>
     <use xlink:href="#m3da6804c03" x="199.909091" y="153.138241" style="fill: #008000; stroke: #000000; stroke-width: 5"/>
     <use xlink:href="#m3da6804c03" x="115.363636" y="120.842635" style="fill: #008000; stroke: #000000; stroke-width: 5"/>
    </g>
   </g>
   <g id="PathCollection_2">
    <defs>
     <path id="m7613da7830" d="M 0 14.142136 
C 3.750538 14.142136 7.347969 12.652031 10 10 
C 12.652031 7.347969 14.142136 3.750538 14.142136 0 
C 14.142136 -3.750538 12.652031 -7.347969 10 -10 
C 7.347969 -12.652031 3.750538 -14.142136 0 -14.142136 
C -3.750538 -14.142136 -7.347969 -12.652031 -10 -10 
C -12.652031 -7.347969 -14.142136 -3.750538 -14.142136 0 
C -14.142136 3.750538 -12.652031 7.347969 -10 10 
C -7.347969 12.652031 -3.750538 14.142136 0 14.142136 
z
" style="stroke: #000000; stroke-width: 5"/>
    </defs>
    <g clip-path="url(#pc6a9d2efbd)">
     <use xlink:href="#m7613da7830" x="622.636364" y="486.826908" style="fill: #0000ff; stroke: #000000; stroke-width: 5"/>
     <use xlink:href="#m7613da7830" x="538.090909" y="386.679114" style="fill: #0000ff; stroke: #000000; stroke-width: 5"/>
     <use xlink:href="#m7613da7830" x="453.545455" y="347.415631" style="fill: #0000ff; stroke: #000000; stroke-width: 5"/>
     <use xlink:href="#m7613da7830" x="369" y="272.613738" style="fill: #0000ff; stroke: #000000; stroke-width: 5"/>
     <use xlink:href="#m7613da7830" x="284.454545" y="244.774336" style="fill: #0000ff; stroke: #000000; stroke-width: 5"/>
     <use xlink:href="#m7613da7830" x="199.909091" y="230.531332" style="fill: #0000ff; stroke: #000000; stroke-width: 5"/>
     <use xlink:href="#m7613da7830" x="115.363636" y="217.617207" style="fill: #0000ff; stroke: #000000; stroke-width: 5"/>
    </g>
   </g>
   <g id="PathCollection_3">
    <defs>
     <path id="me5c7fa2a18" d="M 0 14.142136 
C 3.750538 14.142136 7.347969 12.652031 10 10 
C 12.652031 7.347969 14.142136 3.750538 14.142136 0 
C 14.142136 -3.750538 12.652031 -7.347969 10 -10 
C 7.347969 -12.652031 3.750538 -14.142136 0 -14.142136 
C -3.750538 -14.142136 -7.347969 -12.652031 -10 -10 
C -12.652031 -7.347969 -14.142136 -3.750538 -14.142136 0 
C -14.142136 3.750538 -12.652031 7.347969 -10 10 
C -7.347969 12.652031 -3.750538 14.142136 0 14.142136 
z
" style="stroke: #000000; stroke-width: 5"/>
    </defs>
    <g clip-path="url(#pc6a9d2efbd)">
     <use xlink:href="#me5c7fa2a18" x="622.636364" y="392.973456" style="fill: #ff0000; stroke: #000000; stroke-width: 5"/>
     <use xlink:href="#me5c7fa2a18" x="538.090909" y="344.520156" style="fill: #ff0000; stroke: #000000; stroke-width: 5"/>
     <use xlink:href="#me5c7fa2a18" x="453.545455" y="300.00685" style="fill: #ff0000; stroke: #000000; stroke-width: 5"/>
     <use xlink:href="#me5c7fa2a18" x="369" y="272.613738" style="fill: #ff0000; stroke: #000000; stroke-width: 5"/>
     <use xlink:href="#me5c7fa2a18" x="284.454545" y="240.53451" style="fill: #ff0000; stroke: #000000; stroke-width: 5"/>
     <use xlink:href="#me5c7fa2a18" x="199.909091" y="222.943962" style="fill: #ff0000; stroke: #000000; stroke-width: 5"/>
     <use xlink:href="#me5c7fa2a18" x="115.363636" y="203.601218" style="fill: #ff0000; stroke: #000000; stroke-width: 5"/>
    </g>
   </g>
   <g id="LineCollection_1">
    <path d="M 622.636364 368.395829 
L 622.636364 418.497647 
" clip-path="url(#pc6a9d2efbd)" style="fill: none; stroke: #000000; stroke-width: 5"/>
    <path d="M 538.090909 371.374186 
L 538.090909 425.845144 
" clip-path="url(#pc6a9d2efbd)" style="fill: none; stroke: #000000; stroke-width: 5"/>
    <path d="M 453.545455 341.278719 
L 453.545455 353.726717 
" clip-path="url(#pc6a9d2efbd)" style="fill: none; stroke: #000000; stroke-width: 5"/>
    <path d="M 369 272.613738 
L 369 272.613738 
" clip-path="url(#pc6a9d2efbd)" style="fill: none; stroke: #000000; stroke-width: 5"/>
    <path d="M 284.454545 220.085941 
L 284.454545 211.362679 
" clip-path="url(#pc6a9d2efbd)" style="fill: none; stroke: #000000; stroke-width: 5"/>
    <path d="M 199.909091 160.568282 
L 199.909091 145.708201 
" clip-path="url(#pc6a9d2efbd)" style="fill: none; stroke: #000000; stroke-width: 5"/>
    <path d="M 115.363636 130.576179 
L 115.363636 111.109091 
" clip-path="url(#pc6a9d2efbd)" style="fill: none; stroke: #000000; stroke-width: 5"/>
   </g>
   <g id="LineCollection_2">
    <path d="M 622.636364 368.362907 
L 622.636364 605.290909 
" clip-path="url(#pc6a9d2efbd)" style="fill: none; stroke: #000000; stroke-width: 5"/>
    <path d="M 538.090909 364.042866 
L 538.090909 409.315362 
" clip-path="url(#pc6a9d2efbd)" style="fill: none; stroke: #000000; stroke-width: 5"/>
    <path d="M 453.545455 322.234071 
L 453.545455 372.597191 
" clip-path="url(#pc6a9d2efbd)" style="fill: none; stroke: #000000; stroke-width: 5"/>
    <path d="M 369 272.613738 
L 369 272.613738 
" clip-path="url(#pc6a9d2efbd)" style="fill: none; stroke: #000000; stroke-width: 5"/>
    <path d="M 284.454545 245.374681 
L 284.454545 244.173991 
" clip-path="url(#pc6a9d2efbd)" style="fill: none; stroke: #000000; stroke-width: 5"/>
    <path d="M 199.909091 231.439538 
L 199.909091 229.623127 
" clip-path="url(#pc6a9d2efbd)" style="fill: none; stroke: #000000; stroke-width: 5"/>
    <path d="M 115.363636 218.796466 
L 115.363636 216.437948 
" clip-path="url(#pc6a9d2efbd)" style="fill: none; stroke: #000000; stroke-width: 5"/>
   </g>
   <g id="LineCollection_3">
    <path d="M 622.636364 383.843497 
L 622.636364 402.103415 
" clip-path="url(#pc6a9d2efbd)" style="fill: none; stroke: #000000; stroke-width: 5"/>
    <path d="M 538.090909 334.995794 
L 538.090909 354.044518 
" clip-path="url(#pc6a9d2efbd)" style="fill: none; stroke: #000000; stroke-width: 5"/>
    <path d="M 453.545455 299.152612 
L 453.545455 300.861089 
" clip-path="url(#pc6a9d2efbd)" style="fill: none; stroke: #000000; stroke-width: 5"/>
    <path d="M 369 272.613738 
L 369 272.613738 
" clip-path="url(#pc6a9d2efbd)" style="fill: none; stroke: #000000; stroke-width: 5"/>
    <path d="M 284.454545 241.088523 
L 284.454545 239.980496 
" clip-path="url(#pc6a9d2efbd)" style="fill: none; stroke: #000000; stroke-width: 5"/>
    <path d="M 199.909091 223.70625 
L 199.909091 222.181674 
" clip-path="url(#pc6a9d2efbd)" style="fill: none; stroke: #000000; stroke-width: 5"/>
    <path d="M 115.363636 204.538375 
L 115.363636 202.664061 
" clip-path="url(#pc6a9d2efbd)" style="fill: none; stroke: #000000; stroke-width: 5"/>
   </g>
   <g id="line2d_8">
    <path d="M 90 272.613738 
L 648 272.613738 
" clip-path="url(#pc6a9d2efbd)" style="fill: none; stroke-dasharray: 18.5,8; stroke-dashoffset: 0; stroke: #000000; stroke-width: 5"/>
   </g>
   <g id="line2d_9"/>
   <g id="line2d_10"/>
   <g id="line2d_11"/>
   <g id="legend_1">
    <g id="patch_7">
     <path d="M 111 615 
L 320.320312 615 
Q 326.320312 615 326.320312 609 
L 326.320312 484.326563 
Q 326.320312 478.326563 320.320312 478.326563 
L 111 478.326563 
Q 105 478.326563 105 484.326563 
L 105 609 
Q 105 615 111 615 
z
" style="fill: #ffffff; opacity: 0.8; stroke: #cccccc; stroke-linejoin: miter"/>
    </g>
    <g id="line2d_12">
     <path d="M 117 501.3 
L 147 501.3 
L 177 501.3 
" style="fill: none; stroke: #008000; stroke-width: 8; stroke-linecap: round"/>
     <g>
      <use xlink:href="#m2089b128ba" x="147" y="501.3" style="fill: #008000; stroke: #008000"/>
     </g>
    </g>
    <g id="text_7">
     <!-- M.PvuII -->
     <g style="fill: #262626" transform="translate(201 511.8)scale(0.3 -0.3)">
      <defs>
       <path id="ArialMT-4d" d="M 475 0 
L 475 4581 
L 1388 4581 
L 2472 1338 
Q 2622 884 2691 659 
Q 2769 909 2934 1394 
L 4031 4581 
L 4847 4581 
L 4847 0 
L 4263 0 
L 4263 3834 
L 2931 0 
L 2384 0 
L 1059 3900 
L 1059 0 
L 475 0 
z
" transform="scale(0.015625)"/>
       <path id="ArialMT-50" d="M 494 0 
L 494 4581 
L 2222 4581 
Q 2678 4581 2919 4538 
Q 3256 4481 3484 4323 
Q 3713 4166 3852 3881 
Q 3991 3597 3991 3256 
Q 3991 2672 3619 2267 
Q 3247 1863 2275 1863 
L 1100 1863 
L 1100 0 
L 494 0 
z
M 1100 2403 
L 2284 2403 
Q 2872 2403 3119 2622 
Q 3366 2841 3366 3238 
Q 3366 3525 3220 3729 
Q 3075 3934 2838 4000 
Q 2684 4041 2272 4041 
L 1100 4041 
L 1100 2403 
z
" transform="scale(0.015625)"/>
       <path id="ArialMT-75" d="M 2597 0 
L 2597 488 
Q 2209 -75 1544 -75 
Q 1250 -75 995 37 
Q 741 150 617 320 
Q 494 491 444 738 
Q 409 903 409 1263 
L 409 3319 
L 972 3319 
L 972 1478 
Q 972 1038 1006 884 
Q 1059 663 1231 536 
Q 1403 409 1656 409 
Q 1909 409 2131 539 
Q 2353 669 2445 892 
Q 2538 1116 2538 1541 
L 2538 3319 
L 3100 3319 
L 3100 0 
L 2597 0 
z
" transform="scale(0.015625)"/>
       <path id="ArialMT-49" d="M 597 0 
L 597 4581 
L 1203 4581 
L 1203 0 
L 597 0 
z
" transform="scale(0.015625)"/>
      </defs>
      <use xlink:href="#ArialMT-4d"/>
      <use xlink:href="#ArialMT-2e" x="83.300781"/>
      <use xlink:href="#ArialMT-50" x="111.083984"/>
      <use xlink:href="#ArialMT-76" x="177.783203"/>
      <use xlink:href="#ArialMT-75" x="227.783203"/>
      <use xlink:href="#ArialMT-49" x="283.398438"/>
      <use xlink:href="#ArialMT-49" x="311.181641"/>
     </g>
    </g>
    <g id="line2d_13">
     <path d="M 117 544.101562 
L 147 544.101562 
L 177 544.101562 
" style="fill: none; stroke: #0000ff; stroke-width: 8; stroke-linecap: round"/>
     <g>
      <use xlink:href="#me676ae5d8c" x="147" y="544.101562" style="fill: #0000ff; stroke: #0000ff"/>
     </g>
    </g>
    <g id="text_8">
     <!-- hUpf2 -->
     <g style="fill: #262626" transform="translate(201 554.601562)scale(0.3 -0.3)">
      <defs>
       <path id="ArialMT-68" d="M 422 0 
L 422 4581 
L 984 4581 
L 984 2938 
Q 1378 3394 1978 3394 
Q 2347 3394 2619 3248 
Q 2891 3103 3008 2847 
Q 3125 2591 3125 2103 
L 3125 0 
L 2563 0 
L 2563 2103 
Q 2563 2525 2380 2717 
Q 2197 2909 1863 2909 
Q 1613 2909 1392 2779 
Q 1172 2650 1078 2428 
Q 984 2206 984 1816 
L 984 0 
L 422 0 
z
" transform="scale(0.015625)"/>
       <path id="ArialMT-55" d="M 3500 4581 
L 4106 4581 
L 4106 1934 
Q 4106 1244 3950 837 
Q 3794 431 3386 176 
Q 2978 -78 2316 -78 
Q 1672 -78 1262 144 
Q 853 366 678 786 
Q 503 1206 503 1934 
L 503 4581 
L 1109 4581 
L 1109 1938 
Q 1109 1341 1220 1058 
Q 1331 775 1601 622 
Q 1872 469 2263 469 
Q 2931 469 3215 772 
Q 3500 1075 3500 1938 
L 3500 4581 
z
" transform="scale(0.015625)"/>
       <path id="ArialMT-66" d="M 556 0 
L 556 2881 
L 59 2881 
L 59 3319 
L 556 3319 
L 556 3672 
Q 556 4006 616 4169 
Q 697 4388 901 4523 
Q 1106 4659 1475 4659 
Q 1713 4659 2000 4603 
L 1916 4113 
Q 1741 4144 1584 4144 
Q 1328 4144 1222 4034 
Q 1116 3925 1116 3625 
L 1116 3319 
L 1763 3319 
L 1763 2881 
L 1116 2881 
L 1116 0 
L 556 0 
z
" transform="scale(0.015625)"/>
       <path id="ArialMT-32" d="M 3222 541 
L 3222 0 
L 194 0 
Q 188 203 259 391 
Q 375 700 629 1000 
Q 884 1300 1366 1694 
Q 2113 2306 2375 2664 
Q 2638 3022 2638 3341 
Q 2638 3675 2398 3904 
Q 2159 4134 1775 4134 
Q 1369 4134 1125 3890 
Q 881 3647 878 3216 
L 300 3275 
Q 359 3922 746 4261 
Q 1134 4600 1788 4600 
Q 2447 4600 2831 4234 
Q 3216 3869 3216 3328 
Q 3216 3053 3103 2787 
Q 2991 2522 2730 2228 
Q 2469 1934 1863 1422 
Q 1356 997 1212 845 
Q 1069 694 975 541 
L 3222 541 
z
" transform="scale(0.015625)"/>
      </defs>
      <use xlink:href="#ArialMT-68"/>
      <use xlink:href="#ArialMT-55" x="55.615234"/>
      <use xlink:href="#ArialMT-70" x="127.832031"/>
      <use xlink:href="#ArialMT-66" x="183.447266"/>
      <use xlink:href="#ArialMT-32" x="211.230469"/>
     </g>
    </g>
    <g id="line2d_14">
     <path d="M 117 586.5375 
L 147 586.5375 
L 177 586.5375 
" style="fill: none; stroke: #ff0000; stroke-width: 8; stroke-linecap: round"/>
     <g>
      <use xlink:href="#m395f573ec7" x="147" y="586.5375" style="fill: #ff0000; stroke: #ff0000"/>
     </g>
    </g>
    <g id="text_9">
     <!-- UGDH-fl -->
     <g style="fill: #262626" transform="translate(201 597.0375)scale(0.3 -0.3)">
      <defs>
       <path id="ArialMT-47" d="M 2638 1797 
L 2638 2334 
L 4578 2338 
L 4578 638 
Q 4131 281 3656 101 
Q 3181 -78 2681 -78 
Q 2006 -78 1454 211 
Q 903 500 622 1047 
Q 341 1594 341 2269 
Q 341 2938 620 3517 
Q 900 4097 1425 4378 
Q 1950 4659 2634 4659 
Q 3131 4659 3532 4498 
Q 3934 4338 4162 4050 
Q 4391 3763 4509 3300 
L 3963 3150 
Q 3859 3500 3706 3700 
Q 3553 3900 3268 4020 
Q 2984 4141 2638 4141 
Q 2222 4141 1919 4014 
Q 1616 3888 1430 3681 
Q 1244 3475 1141 3228 
Q 966 2803 966 2306 
Q 966 1694 1177 1281 
Q 1388 869 1791 669 
Q 2194 469 2647 469 
Q 3041 469 3416 620 
Q 3791 772 3984 944 
L 3984 1797 
L 2638 1797 
z
" transform="scale(0.015625)"/>
       <path id="ArialMT-44" d="M 494 0 
L 494 4581 
L 2072 4581 
Q 2606 4581 2888 4516 
Q 3281 4425 3559 4188 
Q 3922 3881 4101 3404 
Q 4281 2928 4281 2316 
Q 4281 1794 4159 1391 
Q 4038 988 3847 723 
Q 3656 459 3429 307 
Q 3203 156 2883 78 
Q 2563 0 2147 0 
L 494 0 
z
M 1100 541 
L 2078 541 
Q 2531 541 2789 625 
Q 3047 709 3200 863 
Q 3416 1078 3536 1442 
Q 3656 1806 3656 2325 
Q 3656 3044 3420 3430 
Q 3184 3816 2847 3947 
Q 2603 4041 2063 4041 
L 1100 4041 
L 1100 541 
z
" transform="scale(0.015625)"/>
       <path id="ArialMT-48" d="M 513 0 
L 513 4581 
L 1119 4581 
L 1119 2700 
L 3500 2700 
L 3500 4581 
L 4106 4581 
L 4106 0 
L 3500 0 
L 3500 2159 
L 1119 2159 
L 1119 0 
L 513 0 
z
" transform="scale(0.015625)"/>
      </defs>
      <use xlink:href="#ArialMT-55"/>
      <use xlink:href="#ArialMT-47" x="72.216797"/>
      <use xlink:href="#ArialMT-44" x="150"/>
      <use xlink:href="#ArialMT-48" x="222.216797"/>
      <use xlink:href="#ArialMT-2d" x="294.433594"/>
      <use xlink:href="#ArialMT-66" x="327.734375"/>
      <use xlink:href="#ArialMT-6c" x="355.517578"/>
     </g>
    </g>
   </g>
  </g>
 </g>
 <defs>
  <clipPath id="pc6a9d2efbd">
   <rect x="90" y="86.4" width="558" height="543.6"/>
  </clipPath>
 </defs>
</svg>
