<?xml version="1.0" encoding="utf-8" standalone="no"?>
<!DOCTYPE svg PUBLIC "-//W3C//DTD SVG 1.1//EN"
  "http://www.w3.org/Graphics/SVG/1.1/DTD/svg11.dtd">
<svg xmlns:xlink="http://www.w3.org/1999/xlink" width="720pt" height="720pt" viewBox="0 0 720 720" xmlns="http://www.w3.org/2000/svg" version="1.1">
 <metadata>
  <rdf:RDF xmlns:dc="http://purl.org/dc/elements/1.1/" xmlns:cc="http://creativecommons.org/ns#" xmlns:rdf="http://www.w3.org/1999/02/22-rdf-syntax-ns#">
   <cc:Work>
    <dc:type rdf:resource="http://purl.org/dc/dcmitype/StillImage"/>
    <dc:date>2023-01-17T11:04:22.647155</dc:date>
    <dc:format>image/svg+xml</dc:format>
    <dc:creator>
     <cc:Agent>
      <dc:title>Matplotlib v3.5.0, https://matplotlib.org/</dc:title>
     </cc:Agent>
    </dc:creator>
   </cc:Work>
  </rdf:RDF>
 </metadata>
 <defs>
  <style type="text/css">*{stroke-linejoin: round; stroke-linecap: butt}</style>
 </defs>
 <g id="figure_1">
  <g id="patch_1">
   <path d="M 0 720 
L 720 720 
L 720 0 
L 0 0 
z
" style="fill: #ffffff"/>
  </g>
  <g id="axes_1">
   <g id="patch_2">
    <path d="M 90 630 
L 648 630 
L 648 86.4 
L 90 86.4 
z
" style="fill: #ffffff"/>
   </g>
   <g id="matplotlib.axis_1">
    <g id="xtick_1">
     <g id="line2d_1">
      <defs>
       <path id="m2f7cd71c8f" d="M 0 0 
L 0 20 
" style="stroke: #262626; stroke-width: 7"/>
      </defs>
      <g>
       <use xlink:href="#m2f7cd71c8f" x="90" y="630" style="fill: #262626; stroke: #262626; stroke-width: 7"/>
      </g>
     </g>
     <g id="text_1">
      <!-- 0.00 -->
      <g style="fill: #262626" transform="translate(41.347656 689.289062)scale(0.5 -0.5)">
       <defs>
        <path id="ArialMT-30" d="M 266 2259 
Q 266 3072 433 3567 
Q 600 4063 929 4331 
Q 1259 4600 1759 4600 
Q 2128 4600 2406 4451 
Q 2684 4303 2865 4023 
Q 3047 3744 3150 3342 
Q 3253 2941 3253 2259 
Q 3253 1453 3087 958 
Q 2922 463 2592 192 
Q 2263 -78 1759 -78 
Q 1097 -78 719 397 
Q 266 969 266 2259 
z
M 844 2259 
Q 844 1131 1108 757 
Q 1372 384 1759 384 
Q 2147 384 2411 759 
Q 2675 1134 2675 2259 
Q 2675 3391 2411 3762 
Q 2147 4134 1753 4134 
Q 1366 4134 1134 3806 
Q 844 3388 844 2259 
z
" transform="scale(0.015625)"/>
        <path id="ArialMT-2e" d="M 581 0 
L 581 641 
L 1222 641 
L 1222 0 
L 581 0 
z
" transform="scale(0.015625)"/>
       </defs>
       <use xlink:href="#ArialMT-30"/>
       <use xlink:href="#ArialMT-2e" x="55.615234"/>
       <use xlink:href="#ArialMT-30" x="83.398438"/>
       <use xlink:href="#ArialMT-30" x="139.013672"/>
      </g>
     </g>
    </g>
    <g id="xtick_2">
     <g id="line2d_2">
      <g>
       <use xlink:href="#m2f7cd71c8f" x="222.857143" y="630" style="fill: #262626; stroke: #262626; stroke-width: 7"/>
      </g>
     </g>
     <g id="text_2">
      <!-- 0.25 -->
      <g style="fill: #262626" transform="translate(174.204799 689.289062)scale(0.5 -0.5)">
       <defs>
        <path id="ArialMT-32" d="M 3222 541 
L 3222 0 
L 194 0 
Q 188 203 259 391 
Q 375 700 629 1000 
Q 884 1300 1366 1694 
Q 2113 2306 2375 2664 
Q 2638 3022 2638 3341 
Q 2638 3675 2398 3904 
Q 2159 4134 1775 4134 
Q 1369 4134 1125 3890 
Q 881 3647 878 3216 
L 300 3275 
Q 359 3922 746 4261 
Q 1134 4600 1788 4600 
Q 2447 4600 2831 4234 
Q 3216 3869 3216 3328 
Q 3216 3053 3103 2787 
Q 2991 2522 2730 2228 
Q 2469 1934 1863 1422 
Q 1356 997 1212 845 
Q 1069 694 975 541 
L 3222 541 
z
" transform="scale(0.015625)"/>
        <path id="ArialMT-35" d="M 266 1200 
L 856 1250 
Q 922 819 1161 601 
Q 1400 384 1738 384 
Q 2144 384 2425 690 
Q 2706 997 2706 1503 
Q 2706 1984 2436 2262 
Q 2166 2541 1728 2541 
Q 1456 2541 1237 2417 
Q 1019 2294 894 2097 
L 366 2166 
L 809 4519 
L 3088 4519 
L 3088 3981 
L 1259 3981 
L 1013 2750 
Q 1425 3038 1878 3038 
Q 2478 3038 2890 2622 
Q 3303 2206 3303 1553 
Q 3303 931 2941 478 
Q 2500 -78 1738 -78 
Q 1113 -78 717 272 
Q 322 622 266 1200 
z
" transform="scale(0.015625)"/>
       </defs>
       <use xlink:href="#ArialMT-30"/>
       <use xlink:href="#ArialMT-2e" x="55.615234"/>
       <use xlink:href="#ArialMT-32" x="83.398438"/>
       <use xlink:href="#ArialMT-35" x="139.013672"/>
      </g>
     </g>
    </g>
    <g id="xtick_3">
     <g id="line2d_3">
      <g>
       <use xlink:href="#m2f7cd71c8f" x="355.714286" y="630" style="fill: #262626; stroke: #262626; stroke-width: 7"/>
      </g>
     </g>
     <g id="text_3">
      <!-- 0.50 -->
      <g style="fill: #262626" transform="translate(307.061942 689.289062)scale(0.5 -0.5)">
       <use xlink:href="#ArialMT-30"/>
       <use xlink:href="#ArialMT-2e" x="55.615234"/>
       <use xlink:href="#ArialMT-35" x="83.398438"/>
       <use xlink:href="#ArialMT-30" x="139.013672"/>
      </g>
     </g>
    </g>
    <g id="xtick_4">
     <g id="line2d_4">
      <g>
       <use xlink:href="#m2f7cd71c8f" x="488.571429" y="630" style="fill: #262626; stroke: #262626; stroke-width: 7"/>
      </g>
     </g>
     <g id="text_4">
      <!-- 0.75 -->
      <g style="fill: #262626" transform="translate(439.919085 689.289062)scale(0.5 -0.5)">
       <defs>
        <path id="ArialMT-37" d="M 303 3981 
L 303 4522 
L 3269 4522 
L 3269 4084 
Q 2831 3619 2401 2847 
Q 1972 2075 1738 1259 
Q 1569 684 1522 0 
L 944 0 
Q 953 541 1156 1306 
Q 1359 2072 1739 2783 
Q 2119 3494 2547 3981 
L 303 3981 
z
" transform="scale(0.015625)"/>
       </defs>
       <use xlink:href="#ArialMT-30"/>
       <use xlink:href="#ArialMT-2e" x="55.615234"/>
       <use xlink:href="#ArialMT-37" x="83.398438"/>
       <use xlink:href="#ArialMT-35" x="139.013672"/>
      </g>
     </g>
    </g>
    <g id="xtick_5">
     <g id="line2d_5">
      <g>
       <use xlink:href="#m2f7cd71c8f" x="621.428571" y="630" style="fill: #262626; stroke: #262626; stroke-width: 7"/>
      </g>
     </g>
     <g id="text_5">
      <!-- 1.00 -->
      <g style="fill: #262626" transform="translate(572.776228 689.289062)scale(0.5 -0.5)">
       <defs>
        <path id="ArialMT-31" d="M 2384 0 
L 1822 0 
L 1822 3584 
Q 1619 3391 1289 3197 
Q 959 3003 697 2906 
L 697 3450 
Q 1169 3672 1522 3987 
Q 1875 4303 2022 4600 
L 2384 4600 
L 2384 0 
z
" transform="scale(0.015625)"/>
       </defs>
       <use xlink:href="#ArialMT-31"/>
       <use xlink:href="#ArialMT-2e" x="55.615234"/>
       <use xlink:href="#ArialMT-30" x="83.398438"/>
       <use xlink:href="#ArialMT-30" x="139.013672"/>
      </g>
     </g>
    </g>
    <g id="text_6">
     <!-- Cluster_ILVAM -->
     <g style="fill: #262626" transform="translate(171.69375 746.904688)scale(0.6 -0.6)">
      <defs>
       <path id="ArialMT-43" d="M 3763 1606 
L 4369 1453 
Q 4178 706 3683 314 
Q 3188 -78 2472 -78 
Q 1731 -78 1267 223 
Q 803 525 561 1097 
Q 319 1669 319 2325 
Q 319 3041 592 3573 
Q 866 4106 1370 4382 
Q 1875 4659 2481 4659 
Q 3169 4659 3637 4309 
Q 4106 3959 4291 3325 
L 3694 3184 
Q 3534 3684 3231 3912 
Q 2928 4141 2469 4141 
Q 1941 4141 1586 3887 
Q 1231 3634 1087 3207 
Q 944 2781 944 2328 
Q 944 1744 1114 1308 
Q 1284 872 1643 656 
Q 2003 441 2422 441 
Q 2931 441 3284 734 
Q 3638 1028 3763 1606 
z
" transform="scale(0.015625)"/>
       <path id="ArialMT-6c" d="M 409 0 
L 409 4581 
L 972 4581 
L 972 0 
L 409 0 
z
" transform="scale(0.015625)"/>
       <path id="ArialMT-75" d="M 2597 0 
L 2597 488 
Q 2209 -75 1544 -75 
Q 1250 -75 995 37 
Q 741 150 617 320 
Q 494 491 444 738 
Q 409 903 409 1263 
L 409 3319 
L 972 3319 
L 972 1478 
Q 972 1038 1006 884 
Q 1059 663 1231 536 
Q 1403 409 1656 409 
Q 1909 409 2131 539 
Q 2353 669 2445 892 
Q 2538 1116 2538 1541 
L 2538 3319 
L 3100 3319 
L 3100 0 
L 2597 0 
z
" transform="scale(0.015625)"/>
       <path id="ArialMT-73" d="M 197 991 
L 753 1078 
Q 800 744 1014 566 
Q 1228 388 1613 388 
Q 2000 388 2187 545 
Q 2375 703 2375 916 
Q 2375 1106 2209 1216 
Q 2094 1291 1634 1406 
Q 1016 1563 777 1677 
Q 538 1791 414 1992 
Q 291 2194 291 2438 
Q 291 2659 392 2848 
Q 494 3038 669 3163 
Q 800 3259 1026 3326 
Q 1253 3394 1513 3394 
Q 1903 3394 2198 3281 
Q 2494 3169 2634 2976 
Q 2775 2784 2828 2463 
L 2278 2388 
Q 2241 2644 2061 2787 
Q 1881 2931 1553 2931 
Q 1166 2931 1000 2803 
Q 834 2675 834 2503 
Q 834 2394 903 2306 
Q 972 2216 1119 2156 
Q 1203 2125 1616 2013 
Q 2213 1853 2448 1751 
Q 2684 1650 2818 1456 
Q 2953 1263 2953 975 
Q 2953 694 2789 445 
Q 2625 197 2315 61 
Q 2006 -75 1616 -75 
Q 969 -75 630 194 
Q 291 463 197 991 
z
" transform="scale(0.015625)"/>
       <path id="ArialMT-74" d="M 1650 503 
L 1731 6 
Q 1494 -44 1306 -44 
Q 1000 -44 831 53 
Q 663 150 594 308 
Q 525 466 525 972 
L 525 2881 
L 113 2881 
L 113 3319 
L 525 3319 
L 525 4141 
L 1084 4478 
L 1084 3319 
L 1650 3319 
L 1650 2881 
L 1084 2881 
L 1084 941 
Q 1084 700 1114 631 
Q 1144 563 1211 522 
Q 1278 481 1403 481 
Q 1497 481 1650 503 
z
" transform="scale(0.015625)"/>
       <path id="ArialMT-65" d="M 2694 1069 
L 3275 997 
Q 3138 488 2766 206 
Q 2394 -75 1816 -75 
Q 1088 -75 661 373 
Q 234 822 234 1631 
Q 234 2469 665 2931 
Q 1097 3394 1784 3394 
Q 2450 3394 2872 2941 
Q 3294 2488 3294 1666 
Q 3294 1616 3291 1516 
L 816 1516 
Q 847 969 1125 678 
Q 1403 388 1819 388 
Q 2128 388 2347 550 
Q 2566 713 2694 1069 
z
M 847 1978 
L 2700 1978 
Q 2663 2397 2488 2606 
Q 2219 2931 1791 2931 
Q 1403 2931 1139 2672 
Q 875 2413 847 1978 
z
" transform="scale(0.015625)"/>
       <path id="ArialMT-72" d="M 416 0 
L 416 3319 
L 922 3319 
L 922 2816 
Q 1116 3169 1280 3281 
Q 1444 3394 1641 3394 
Q 1925 3394 2219 3213 
L 2025 2691 
Q 1819 2813 1613 2813 
Q 1428 2813 1281 2702 
Q 1134 2591 1072 2394 
Q 978 2094 978 1738 
L 978 0 
L 416 0 
z
" transform="scale(0.015625)"/>
       <path id="ArialMT-5f" d="M -97 -1272 
L -97 -866 
L 3631 -866 
L 3631 -1272 
L -97 -1272 
z
" transform="scale(0.015625)"/>
       <path id="ArialMT-49" d="M 597 0 
L 597 4581 
L 1203 4581 
L 1203 0 
L 597 0 
z
" transform="scale(0.015625)"/>
       <path id="ArialMT-4c" d="M 469 0 
L 469 4581 
L 1075 4581 
L 1075 541 
L 3331 541 
L 3331 0 
L 469 0 
z
" transform="scale(0.015625)"/>
       <path id="ArialMT-56" d="M 1803 0 
L 28 4581 
L 684 4581 
L 1875 1253 
Q 2019 853 2116 503 
Q 2222 878 2363 1253 
L 3600 4581 
L 4219 4581 
L 2425 0 
L 1803 0 
z
" transform="scale(0.015625)"/>
       <path id="ArialMT-41" d="M -9 0 
L 1750 4581 
L 2403 4581 
L 4278 0 
L 3588 0 
L 3053 1388 
L 1138 1388 
L 634 0 
L -9 0 
z
M 1313 1881 
L 2866 1881 
L 2388 3150 
Q 2169 3728 2063 4100 
Q 1975 3659 1816 3225 
L 1313 1881 
z
" transform="scale(0.015625)"/>
       <path id="ArialMT-4d" d="M 475 0 
L 475 4581 
L 1388 4581 
L 2472 1338 
Q 2622 884 2691 659 
Q 2769 909 2934 1394 
L 4031 4581 
L 4847 4581 
L 4847 0 
L 4263 0 
L 4263 3834 
L 2931 0 
L 2384 0 
L 1059 3900 
L 1059 0 
L 475 0 
z
" transform="scale(0.015625)"/>
      </defs>
      <use xlink:href="#ArialMT-43"/>
      <use xlink:href="#ArialMT-6c" x="72.216797"/>
      <use xlink:href="#ArialMT-75" x="94.433594"/>
      <use xlink:href="#ArialMT-73" x="150.048828"/>
      <use xlink:href="#ArialMT-74" x="200.048828"/>
      <use xlink:href="#ArialMT-65" x="227.832031"/>
      <use xlink:href="#ArialMT-72" x="283.447266"/>
      <use xlink:href="#ArialMT-5f" x="316.748047"/>
      <use xlink:href="#ArialMT-49" x="372.363281"/>
      <use xlink:href="#ArialMT-4c" x="400.146484"/>
      <use xlink:href="#ArialMT-56" x="448.386719"/>
      <use xlink:href="#ArialMT-41" x="507.710938"/>
      <use xlink:href="#ArialMT-4d" x="574.410156"/>
     </g>
    </g>
   </g>
   <g id="matplotlib.axis_2">
    <g id="ytick_1">
     <g id="line2d_6">
      <defs>
       <path id="mc3ced7ca30" d="M 0 0 
L -20 0 
" style="stroke: #262626; stroke-width: 7"/>
      </defs>
      <g>
       <use xlink:href="#mc3ced7ca30" x="90" y="590.175125" style="fill: #262626; stroke: #262626; stroke-width: 7"/>
      </g>
     </g>
     <g id="text_7">
      <!-- −4 -->
      <g style="fill: #262626" transform="translate(9.492188 608.069656)scale(0.5 -0.5)">
       <defs>
        <path id="ArialMT-2212" d="M 3381 1997 
L 356 1997 
L 356 2522 
L 3381 2522 
L 3381 1997 
z
" transform="scale(0.015625)"/>
        <path id="ArialMT-34" d="M 2069 0 
L 2069 1097 
L 81 1097 
L 81 1613 
L 2172 4581 
L 2631 4581 
L 2631 1613 
L 3250 1613 
L 3250 1097 
L 2631 1097 
L 2631 0 
L 2069 0 
z
M 2069 1613 
L 2069 3678 
L 634 1613 
L 2069 1613 
z
" transform="scale(0.015625)"/>
       </defs>
       <use xlink:href="#ArialMT-2212"/>
       <use xlink:href="#ArialMT-34" x="58.398438"/>
      </g>
     </g>
    </g>
    <g id="ytick_2">
     <g id="line2d_7">
      <g>
       <use xlink:href="#mc3ced7ca30" x="90" y="441.449376" style="fill: #262626; stroke: #262626; stroke-width: 7"/>
      </g>
     </g>
     <g id="text_8">
      <!-- −3 -->
      <g style="fill: #262626" transform="translate(9.492188 459.343907)scale(0.5 -0.5)">
       <defs>
        <path id="ArialMT-33" d="M 269 1209 
L 831 1284 
Q 928 806 1161 595 
Q 1394 384 1728 384 
Q 2125 384 2398 659 
Q 2672 934 2672 1341 
Q 2672 1728 2419 1979 
Q 2166 2231 1775 2231 
Q 1616 2231 1378 2169 
L 1441 2663 
Q 1497 2656 1531 2656 
Q 1891 2656 2178 2843 
Q 2466 3031 2466 3422 
Q 2466 3731 2256 3934 
Q 2047 4138 1716 4138 
Q 1388 4138 1169 3931 
Q 950 3725 888 3313 
L 325 3413 
Q 428 3978 793 4289 
Q 1159 4600 1703 4600 
Q 2078 4600 2393 4439 
Q 2709 4278 2876 4000 
Q 3044 3722 3044 3409 
Q 3044 3113 2884 2869 
Q 2725 2625 2413 2481 
Q 2819 2388 3044 2092 
Q 3269 1797 3269 1353 
Q 3269 753 2831 336 
Q 2394 -81 1725 -81 
Q 1122 -81 723 278 
Q 325 638 269 1209 
z
" transform="scale(0.015625)"/>
       </defs>
       <use xlink:href="#ArialMT-2212"/>
       <use xlink:href="#ArialMT-33" x="58.398438"/>
      </g>
     </g>
    </g>
    <g id="ytick_3">
     <g id="line2d_8">
      <g>
       <use xlink:href="#mc3ced7ca30" x="90" y="292.723627" style="fill: #262626; stroke: #262626; stroke-width: 7"/>
      </g>
     </g>
     <g id="text_9">
      <!-- −2 -->
      <g style="fill: #262626" transform="translate(9.492188 310.618158)scale(0.5 -0.5)">
       <use xlink:href="#ArialMT-2212"/>
       <use xlink:href="#ArialMT-32" x="58.398438"/>
      </g>
     </g>
    </g>
    <g id="ytick_4">
     <g id="line2d_9">
      <g>
       <use xlink:href="#mc3ced7ca30" x="90" y="143.997878" style="fill: #262626; stroke: #262626; stroke-width: 7"/>
      </g>
     </g>
     <g id="text_10">
      <!-- −1 -->
      <g style="fill: #262626" transform="translate(9.492188 161.892409)scale(0.5 -0.5)">
       <use xlink:href="#ArialMT-2212"/>
       <use xlink:href="#ArialMT-31" x="58.398438"/>
      </g>
     </g>
    </g>
    <g id="text_11">
     <!-- $\Delta S/k_B$  -->
     <g style="fill: #262626" transform="translate(-6.432813 449.1)rotate(-90)scale(0.6 -0.6)">
      <defs>
       <path id="DejaVuSans-394" d="M 2188 4044 
L 906 525 
L 3472 525 
L 2188 4044 
z
M 50 0 
L 1831 4666 
L 2547 4666 
L 4325 0 
L 50 0 
z
" transform="scale(0.015625)"/>
       <path id="DejaVuSans-Oblique-53" d="M 3859 4513 
L 3738 3897 
Q 3422 4066 3111 4152 
Q 2800 4238 2509 4238 
Q 1944 4238 1609 3991 
Q 1275 3744 1275 3334 
Q 1275 3109 1398 2989 
Q 1522 2869 2034 2731 
L 2413 2638 
Q 3053 2472 3303 2217 
Q 3553 1963 3553 1503 
Q 3553 797 2998 353 
Q 2444 -91 1538 -91 
Q 1166 -91 791 -17 
Q 416 56 38 206 
L 166 856 
Q 513 641 861 531 
Q 1209 422 1556 422 
Q 2147 422 2503 684 
Q 2859 947 2859 1369 
Q 2859 1650 2717 1795 
Q 2575 1941 2106 2059 
L 1728 2156 
Q 1081 2325 845 2545 
Q 609 2766 609 3163 
Q 609 3859 1145 4304 
Q 1681 4750 2541 4750 
Q 2875 4750 3203 4690 
Q 3531 4631 3859 4513 
z
" transform="scale(0.015625)"/>
       <path id="DejaVuSans-2f" d="M 1625 4666 
L 2156 4666 
L 531 -594 
L 0 -594 
L 1625 4666 
z
" transform="scale(0.015625)"/>
       <path id="DejaVuSans-Oblique-6b" d="M 1172 4863 
L 1747 4863 
L 1197 2028 
L 3169 3500 
L 3916 3500 
L 1716 1825 
L 3322 0 
L 2625 0 
L 1131 1709 
L 800 0 
L 225 0 
L 1172 4863 
z
" transform="scale(0.015625)"/>
       <path id="DejaVuSans-Oblique-42" d="M 1081 4666 
L 2694 4666 
Q 3350 4666 3675 4422 
Q 4000 4178 4000 3688 
Q 4000 3238 3720 2911 
Q 3441 2584 2988 2516 
Q 3375 2428 3569 2181 
Q 3763 1934 3763 1522 
Q 3763 819 3242 409 
Q 2722 0 1819 0 
L 172 0 
L 1081 4666 
z
M 1234 2228 
L 903 519 
L 1919 519 
Q 2491 519 2800 781 
Q 3109 1044 3109 1522 
Q 3109 1891 2904 2059 
Q 2700 2228 2247 2228 
L 1234 2228 
z
M 1606 4147 
L 1331 2741 
L 2272 2741 
Q 2775 2741 3058 2959 
Q 3341 3178 3341 3566 
Q 3341 3869 3150 4008 
Q 2959 4147 2541 4147 
L 1606 4147 
z
" transform="scale(0.015625)"/>
       <path id="ArialMT-20" transform="scale(0.015625)"/>
      </defs>
      <use xlink:href="#DejaVuSans-394" transform="translate(0 0.015625)"/>
      <use xlink:href="#DejaVuSans-Oblique-53" transform="translate(68.408203 0.015625)"/>
      <use xlink:href="#DejaVuSans-2f" transform="translate(131.884766 0.015625)"/>
      <use xlink:href="#DejaVuSans-Oblique-6b" transform="translate(165.576172 0.015625)"/>
      <use xlink:href="#DejaVuSans-Oblique-42" transform="translate(223.486328 -16.390625)scale(0.7)"/>
      <use xlink:href="#ArialMT-20" transform="translate(274.243164 0.015625)"/>
     </g>
    </g>
   </g>
   <g id="PathCollection_1">
    <defs>
     <path id="C0_0_11312273b9" d="M 0 7.071068 
C 1.875269 7.071068 3.673985 6.326016 5 5 
C 6.326016 3.673985 7.071068 1.875269 7.071068 -0 
C 7.071068 -1.875269 6.326016 -3.673985 5 -5 
C 3.673985 -6.326016 1.875269 -7.071068 0 -7.071068 
C -1.875269 -7.071068 -3.673985 -6.326016 -5 -5 
C -6.326016 -3.673985 -7.071068 -1.875269 -7.071068 0 
C -7.071068 1.875269 -6.326016 3.673985 -5 5 
C -3.673985 6.326016 -1.875269 7.071068 0 7.071068 
z
"/>
    </defs>
    <g clip-path="url(#p9a60a5721e)">
     <use xlink:href="#C0_0_11312273b9" x="505.356942" y="254.188283" style="fill: #f4fbf2; stroke: #000000; stroke-width: 3"/>
    </g>
    <g clip-path="url(#p9a60a5721e)">
     <use xlink:href="#C0_0_11312273b9" x="274.476002" y="249.83462" style="fill: #f0f9ec; stroke: #000000; stroke-width: 3"/>
    </g>
    <g clip-path="url(#p9a60a5721e)">
     <use xlink:href="#C0_0_11312273b9" x="150.606257" y="264.205086" style="fill: #f0f9ed; stroke: #000000; stroke-width: 3"/>
    </g>
    <g clip-path="url(#p9a60a5721e)">
     <use xlink:href="#C0_0_11312273b9" x="219.144511" y="255.020643" style="fill: #e1f3dc; stroke: #000000; stroke-width: 3"/>
    </g>
    <g clip-path="url(#p9a60a5721e)">
     <use xlink:href="#C0_0_11312273b9" x="189.442392" y="257.090851" style="fill: #e9f7e5; stroke: #000000; stroke-width: 3"/>
    </g>
    <g clip-path="url(#p9a60a5721e)">
     <use xlink:href="#C0_0_11312273b9" x="191.732124" y="238.985924" style="fill: #caeac3; stroke: #000000; stroke-width: 3"/>
    </g>
    <g clip-path="url(#p9a60a5721e)">
     <use xlink:href="#C0_0_11312273b9" x="201.458123" y="197.374289" style="fill: #e8f6e4; stroke: #000000; stroke-width: 3"/>
    </g>
    <g clip-path="url(#p9a60a5721e)">
     <use xlink:href="#C0_0_11312273b9" x="338.279508" y="156.95147" style="fill: #aadda4; stroke: #000000; stroke-width: 3"/>
    </g>
    <g clip-path="url(#p9a60a5721e)">
     <use xlink:href="#C0_0_11312273b9" x="400.570233" y="149.77539" style="fill: #84cc83; stroke: #000000; stroke-width: 3"/>
    </g>
    <g clip-path="url(#p9a60a5721e)">
     <use xlink:href="#C0_0_11312273b9" x="503.681218" y="157.089123" style="fill: #94d390; stroke: #000000; stroke-width: 3"/>
    </g>
    <g clip-path="url(#p9a60a5721e)">
     <use xlink:href="#C0_0_11312273b9" x="275.096669" y="177.94379" style="fill: #d6efd0; stroke: #000000; stroke-width: 3"/>
    </g>
    <g clip-path="url(#p9a60a5721e)">
     <use xlink:href="#C0_0_11312273b9" x="350.993707" y="145.514803" style="fill: #c3e7bc; stroke: #000000; stroke-width: 3"/>
    </g>
    <g clip-path="url(#p9a60a5721e)">
     <use xlink:href="#C0_0_11312273b9" x="223.489345" y="182.201891" style="fill: #f4fbf2; stroke: #000000; stroke-width: 3"/>
    </g>
    <g clip-path="url(#p9a60a5721e)">
     <use xlink:href="#C0_0_11312273b9" x="211.912918" y="214.863905" style="fill: #a8dca2; stroke: #000000; stroke-width: 3"/>
    </g>
    <g clip-path="url(#p9a60a5721e)">
     <use xlink:href="#C0_0_11312273b9" x="222.483184" y="176.78553" style="fill: #c2e7bb; stroke: #000000; stroke-width: 3"/>
    </g>
    <g clip-path="url(#p9a60a5721e)">
     <use xlink:href="#C0_0_11312273b9" x="293.759901" y="151.029212" style="fill: #46ae60; stroke: #000000; stroke-width: 3"/>
    </g>
    <g clip-path="url(#p9a60a5721e)">
     <use xlink:href="#C0_0_11312273b9" x="175.050528" y="167.97802" style="fill: #a4da9e; stroke: #000000; stroke-width: 3"/>
    </g>
    <g clip-path="url(#p9a60a5721e)">
     <use xlink:href="#C0_0_11312273b9" x="344.488544" y="145.7257" style="fill: #ecf8e8; stroke: #000000; stroke-width: 3"/>
    </g>
    <g clip-path="url(#p9a60a5721e)">
     <use xlink:href="#C0_0_11312273b9" x="131.924162" y="139.212902" style="fill: #ddf2d8; stroke: #000000; stroke-width: 3"/>
    </g>
    <g clip-path="url(#p9a60a5721e)">
     <use xlink:href="#C0_0_11312273b9" x="-441.428571" y="124.076961" style="fill: #2d954d; stroke: #000000; stroke-width: 3"/>
    </g>
    <g clip-path="url(#p9a60a5721e)">
     <use xlink:href="#C0_0_11312273b9" x="183.811205" y="111.109091" style="fill: #6dc072; stroke: #000000; stroke-width: 3"/>
    </g>
    <g clip-path="url(#p9a60a5721e)">
     <use xlink:href="#C0_0_11312273b9" x="262.605993" y="154.004709" style="fill: #52b365; stroke: #000000; stroke-width: 3"/>
    </g>
    <g clip-path="url(#p9a60a5721e)">
     <use xlink:href="#C0_0_11312273b9" x="283.007804" y="210.030732" style="fill: #f1faee; stroke: #000000; stroke-width: 3"/>
    </g>
    <g clip-path="url(#p9a60a5721e)">
     <use xlink:href="#C0_0_11312273b9" x="440.823348" y="145.308547" style="fill: #75c477; stroke: #000000; stroke-width: 3"/>
    </g>
    <g clip-path="url(#p9a60a5721e)">
     <use xlink:href="#C0_0_11312273b9" x="522.101367" y="151.379047" style="fill: #84cc83; stroke: #000000; stroke-width: 3"/>
    </g>
    <g clip-path="url(#p9a60a5721e)">
     <use xlink:href="#C0_0_11312273b9" x="131.698162" y="138.64038" style="fill: #dbf1d6; stroke: #000000; stroke-width: 3"/>
    </g>
    <g clip-path="url(#p9a60a5721e)">
     <use xlink:href="#C0_0_11312273b9" x="-441.428571" y="198.550842" style="fill: #ceecc8; stroke: #000000; stroke-width: 3"/>
    </g>
    <g clip-path="url(#p9a60a5721e)">
     <use xlink:href="#C0_0_11312273b9" x="-441.428571" y="166.859076" style="fill: #d8f0d2; stroke: #000000; stroke-width: 3"/>
    </g>
    <g clip-path="url(#p9a60a5721e)">
     <use xlink:href="#C0_0_11312273b9" x="333.15983" y="177.08177" style="fill: #81ca81; stroke: #000000; stroke-width: 3"/>
    </g>
    <g clip-path="url(#p9a60a5721e)">
     <use xlink:href="#C0_0_11312273b9" x="547.505413" y="247.610439" style="fill: #e7f6e2; stroke: #000000; stroke-width: 3"/>
    </g>
    <g clip-path="url(#p9a60a5721e)">
     <use xlink:href="#C0_0_11312273b9" x="258.452933" y="135.637853" style="fill: #18823d; stroke: #000000; stroke-width: 3"/>
    </g>
    <g clip-path="url(#p9a60a5721e)">
     <use xlink:href="#C0_0_11312273b9" x="203.796439" y="225.620545" style="fill: #f0f9ec; stroke: #000000; stroke-width: 3"/>
    </g>
    <g clip-path="url(#p9a60a5721e)">
     <use xlink:href="#C0_0_11312273b9" x="532.451424" y="129.538145" style="fill: #91d28e; stroke: #000000; stroke-width: 3"/>
    </g>
    <g clip-path="url(#p9a60a5721e)">
     <use xlink:href="#C0_0_11312273b9" x="408.938803" y="212.811347" style="fill: #f6fcf4; stroke: #000000; stroke-width: 3"/>
    </g>
    <g clip-path="url(#p9a60a5721e)">
     <use xlink:href="#C0_0_11312273b9" x="430.431676" y="178.352735" style="fill: #dff3da; stroke: #000000; stroke-width: 3"/>
    </g>
    <g clip-path="url(#p9a60a5721e)">
     <use xlink:href="#C0_0_11312273b9" x="243.274012" y="204.56772" style="fill: #c8e9c1; stroke: #000000; stroke-width: 3"/>
    </g>
    <g clip-path="url(#p9a60a5721e)">
     <use xlink:href="#C0_0_11312273b9" x="221.411102" y="166.066892" style="fill: #dbf1d6; stroke: #000000; stroke-width: 3"/>
    </g>
    <g clip-path="url(#p9a60a5721e)">
     <use xlink:href="#C0_0_11312273b9" x="256.322366" y="141.313218" style="fill: #8dd08a; stroke: #000000; stroke-width: 3"/>
    </g>
    <g clip-path="url(#p9a60a5721e)">
     <use xlink:href="#C0_0_11312273b9" x="242.977884" y="147.336059" style="fill: #a3da9d; stroke: #000000; stroke-width: 3"/>
    </g>
   </g>
   <g id="PathCollection_2">
    <defs>
     <path id="C1_0_65c5f29b37" d="M 0 7.071068 
C 1.875269 7.071068 3.673985 6.326016 5 5 
C 6.326016 3.673985 7.071068 1.875269 7.071068 -0 
C 7.071068 -1.875269 6.326016 -3.673985 5 -5 
C 3.673985 -6.326016 1.875269 -7.071068 0 -7.071068 
C -1.875269 -7.071068 -3.673985 -6.326016 -5 -5 
C -6.326016 -3.673985 -7.071068 -1.875269 -7.071068 0 
C -7.071068 1.875269 -6.326016 3.673985 -5 5 
C -3.673985 6.326016 -1.875269 7.071068 0 7.071068 
z
"/>
    </defs>
    <g clip-path="url(#p9a60a5721e)">
     <use xlink:href="#C1_0_65c5f29b37" x="721.922165" y="353.947502" style="fill: #9ab4d6; stroke: #000000; stroke-width: 3"/>
    </g>
    <g clip-path="url(#p9a60a5721e)">
     <use xlink:href="#C1_0_65c5f29b37" x="567.902911" y="355.03739" style="fill: #8c6ab1; stroke: #000000; stroke-width: 3"/>
    </g>
    <g clip-path="url(#p9a60a5721e)">
     <use xlink:href="#C1_0_65c5f29b37" x="332.620101" y="307.392171" style="fill: #adc7e0; stroke: #000000; stroke-width: 3"/>
    </g>
    <g clip-path="url(#p9a60a5721e)">
     <use xlink:href="#C1_0_65c5f29b37" x="223.362501" y="501.20051" style="fill: #4d004b; stroke: #000000; stroke-width: 3"/>
    </g>
    <g clip-path="url(#p9a60a5721e)">
     <use xlink:href="#C1_0_65c5f29b37" x="185.426898" y="466.077208" style="fill: #4d004b; stroke: #000000; stroke-width: 3"/>
    </g>
    <g clip-path="url(#p9a60a5721e)">
     <use xlink:href="#C1_0_65c5f29b37" x="211.401051" y="605.290909" style="fill: #4d004b; stroke: #000000; stroke-width: 3"/>
    </g>
    <g clip-path="url(#p9a60a5721e)">
     <use xlink:href="#C1_0_65c5f29b37" x="179.241852" y="296.676758" style="fill: #cfdfed; stroke: #000000; stroke-width: 3"/>
    </g>
    <g clip-path="url(#p9a60a5721e)">
     <use xlink:href="#C1_0_65c5f29b37" x="160.017415" y="322.230058" style="fill: #4d004b; stroke: #000000; stroke-width: 3"/>
    </g>
    <g clip-path="url(#p9a60a5721e)">
     <use xlink:href="#C1_0_65c5f29b37" x="151.456932" y="211.579344" style="fill: #873a98; stroke: #000000; stroke-width: 3"/>
    </g>
    <g clip-path="url(#p9a60a5721e)">
     <use xlink:href="#C1_0_65c5f29b37" x="167.509705" y="253.097668" style="fill: #8c8cc1; stroke: #000000; stroke-width: 3"/>
    </g>
    <g clip-path="url(#p9a60a5721e)">
     <use xlink:href="#C1_0_65c5f29b37" x="210.108014" y="302.887828" style="fill: #4d004b; stroke: #000000; stroke-width: 3"/>
    </g>
    <g clip-path="url(#p9a60a5721e)">
     <use xlink:href="#C1_0_65c5f29b37" x="287.619256" y="216.709516" style="fill: #bcd1e5; stroke: #000000; stroke-width: 3"/>
    </g>
    <g clip-path="url(#p9a60a5721e)">
     <use xlink:href="#C1_0_65c5f29b37" x="126.077925" y="229.109193" style="fill: #a1bedb; stroke: #000000; stroke-width: 3"/>
    </g>
    <g clip-path="url(#p9a60a5721e)">
     <use xlink:href="#C1_0_65c5f29b37" x="274.069392" y="224.202249" style="fill: #9bb6d7; stroke: #000000; stroke-width: 3"/>
    </g>
    <g clip-path="url(#p9a60a5721e)">
     <use xlink:href="#C1_0_65c5f29b37" x="114.406629" y="204.368967" style="fill: #e2edf5; stroke: #000000; stroke-width: 3"/>
    </g>
    <g clip-path="url(#p9a60a5721e)">
     <use xlink:href="#C1_0_65c5f29b37" x="157.231474" y="298.161712" style="fill: #8a51a5; stroke: #000000; stroke-width: 3"/>
    </g>
    <g clip-path="url(#p9a60a5721e)">
     <use xlink:href="#C1_0_65c5f29b37" x="299.563104" y="291.442948" style="fill: #a5c1dc; stroke: #000000; stroke-width: 3"/>
    </g>
    <g clip-path="url(#p9a60a5721e)">
     <use xlink:href="#C1_0_65c5f29b37" x="355.322771" y="365.24774" style="fill: #4d004b; stroke: #000000; stroke-width: 3"/>
    </g>
    <g clip-path="url(#p9a60a5721e)">
     <use xlink:href="#C1_0_65c5f29b37" x="201.659805" y="499.08671" style="fill: #4d004b; stroke: #000000; stroke-width: 3"/>
    </g>
    <g clip-path="url(#p9a60a5721e)">
     <use xlink:href="#C1_0_65c5f29b37" x="118.738952" y="177.87852" style="fill: #a9c4de; stroke: #000000; stroke-width: 3"/>
    </g>
    <g clip-path="url(#p9a60a5721e)">
     <use xlink:href="#C1_0_65c5f29b37" x="179.567666" y="290.184459" style="fill: #8c69b0; stroke: #000000; stroke-width: 3"/>
    </g>
    <g clip-path="url(#p9a60a5721e)">
     <use xlink:href="#C1_0_65c5f29b37" x="190.934797" y="184.35323" style="fill: #98aed3; stroke: #000000; stroke-width: 3"/>
    </g>
    <g clip-path="url(#p9a60a5721e)">
     <use xlink:href="#C1_0_65c5f29b37" x="463.604017" y="196.139099" style="fill: #8c7eba; stroke: #000000; stroke-width: 3"/>
    </g>
    <g clip-path="url(#p9a60a5721e)">
     <use xlink:href="#C1_0_65c5f29b37" x="238.660229" y="443.668434" style="fill: #4d004b; stroke: #000000; stroke-width: 3"/>
    </g>
    <g clip-path="url(#p9a60a5721e)">
     <use xlink:href="#C1_0_65c5f29b37" x="160.68491" y="541.895869" style="fill: #4d004b; stroke: #000000; stroke-width: 3"/>
    </g>
    <g clip-path="url(#p9a60a5721e)">
     <use xlink:href="#C1_0_65c5f29b37" x="155.355999" y="190.091714" style="fill: #f5fafc; stroke: #000000; stroke-width: 3"/>
    </g>
    <g clip-path="url(#p9a60a5721e)">
     <use xlink:href="#C1_0_65c5f29b37" x="183.941911" y="153.156458" style="fill: #f3f9fc; stroke: #000000; stroke-width: 3"/>
    </g>
    <g clip-path="url(#p9a60a5721e)">
     <use xlink:href="#C1_0_65c5f29b37" x="165.62174" y="218.935345" style="fill: #bcd1e5; stroke: #000000; stroke-width: 3"/>
    </g>
    <g clip-path="url(#p9a60a5721e)">
     <use xlink:href="#C1_0_65c5f29b37" x="183.036228" y="248.400173" style="fill: #92a3cd; stroke: #000000; stroke-width: 3"/>
    </g>
    <g clip-path="url(#p9a60a5721e)">
     <use xlink:href="#C1_0_65c5f29b37" x="158.535114" y="263.626376" style="fill: #9cb7d7; stroke: #000000; stroke-width: 3"/>
    </g>
    <g clip-path="url(#p9a60a5721e)">
     <use xlink:href="#C1_0_65c5f29b37" x="407.02944" y="280.770042" style="fill: #8c85be; stroke: #000000; stroke-width: 3"/>
    </g>
    <g clip-path="url(#p9a60a5721e)">
     <use xlink:href="#C1_0_65c5f29b37" x="203.385091" y="211.549711" style="fill: #acc6df; stroke: #000000; stroke-width: 3"/>
    </g>
    <g clip-path="url(#p9a60a5721e)">
     <use xlink:href="#C1_0_65c5f29b37" x="121.49455" y="260.768201" style="fill: #a0bddb; stroke: #000000; stroke-width: 3"/>
    </g>
    <g clip-path="url(#p9a60a5721e)">
     <use xlink:href="#C1_0_65c5f29b37" x="356.241981" y="224.194994" style="fill: #f0f7fa; stroke: #000000; stroke-width: 3"/>
    </g>
    <g clip-path="url(#p9a60a5721e)">
     <use xlink:href="#C1_0_65c5f29b37" x="135.667749" y="155.95386" style="fill: #edf5f9; stroke: #000000; stroke-width: 3"/>
    </g>
    <g clip-path="url(#p9a60a5721e)">
     <use xlink:href="#C1_0_65c5f29b37" x="221.663635" y="178.756743" style="fill: #a6c2dd; stroke: #000000; stroke-width: 3"/>
    </g>
    <g clip-path="url(#p9a60a5721e)">
     <use xlink:href="#C1_0_65c5f29b37" x="390.640261" y="298.782697" style="fill: #894fa3; stroke: #000000; stroke-width: 3"/>
    </g>
    <g clip-path="url(#p9a60a5721e)">
     <use xlink:href="#C1_0_65c5f29b37" x="247.401606" y="325.888161" style="fill: #4d004b; stroke: #000000; stroke-width: 3"/>
    </g>
    <g clip-path="url(#p9a60a5721e)">
     <use xlink:href="#C1_0_65c5f29b37" x="281.418657" y="184.067836" style="fill: #98b0d3; stroke: #000000; stroke-width: 3"/>
    </g>
    <g clip-path="url(#p9a60a5721e)">
     <use xlink:href="#C1_0_65c5f29b37" x="116.345779" y="221.353876" style="fill: #ecf4f9; stroke: #000000; stroke-width: 3"/>
    </g>
    <g clip-path="url(#p9a60a5721e)">
     <use xlink:href="#C1_0_65c5f29b37" x="317.164939" y="293.65022" style="fill: #99b2d5; stroke: #000000; stroke-width: 3"/>
    </g>
    <g clip-path="url(#p9a60a5721e)">
     <use xlink:href="#C1_0_65c5f29b37" x="389.816662" y="273.733427" style="fill: #831a83; stroke: #000000; stroke-width: 3"/>
    </g>
    <g clip-path="url(#p9a60a5721e)">
     <use xlink:href="#C1_0_65c5f29b37" x="162.904378" y="284.985102" style="fill: #863092; stroke: #000000; stroke-width: 3"/>
    </g>
    <g clip-path="url(#p9a60a5721e)">
     <use xlink:href="#C1_0_65c5f29b37" x="621.428571" y="463.338576" style="fill: #4d004b; stroke: #000000; stroke-width: 3"/>
    </g>
    <g clip-path="url(#p9a60a5721e)">
     <use xlink:href="#C1_0_65c5f29b37" x="487.523868" y="302.848546" style="fill: #873b99; stroke: #000000; stroke-width: 3"/>
    </g>
    <g clip-path="url(#p9a60a5721e)">
     <use xlink:href="#C1_0_65c5f29b37" x="487.523868" y="302.848546" style="fill: #873b99; stroke: #000000; stroke-width: 3"/>
    </g>
    <g clip-path="url(#p9a60a5721e)">
     <use xlink:href="#C1_0_65c5f29b37" x="248.082725" y="357.761132" style="fill: #873d9a; stroke: #000000; stroke-width: 3"/>
    </g>
    <g clip-path="url(#p9a60a5721e)">
     <use xlink:href="#C1_0_65c5f29b37" x="295.718015" y="236.244239" style="fill: #a1bedb; stroke: #000000; stroke-width: 3"/>
    </g>
    <g clip-path="url(#p9a60a5721e)">
     <use xlink:href="#C1_0_65c5f29b37" x="206.738709" y="412.520602" style="fill: #4d004b; stroke: #000000; stroke-width: 3"/>
    </g>
    <g clip-path="url(#p9a60a5721e)">
     <use xlink:href="#C1_0_65c5f29b37" x="219.604581" y="292.251987" style="fill: #afc8e0; stroke: #000000; stroke-width: 3"/>
    </g>
    <g clip-path="url(#p9a60a5721e)">
     <use xlink:href="#C1_0_65c5f29b37" x="198.46171" y="312.522241" style="fill: #aac4de; stroke: #000000; stroke-width: 3"/>
    </g>
    <g clip-path="url(#p9a60a5721e)">
     <use xlink:href="#C1_0_65c5f29b37" x="228.944923" y="326.531833" style="fill: #8f9bc9; stroke: #000000; stroke-width: 3"/>
    </g>
    <g clip-path="url(#p9a60a5721e)">
     <use xlink:href="#C1_0_65c5f29b37" x="245.509019" y="495.91587" style="fill: #4d004b; stroke: #000000; stroke-width: 3"/>
    </g>
    <g clip-path="url(#p9a60a5721e)">
     <use xlink:href="#C1_0_65c5f29b37" x="221.411102" y="188.709318" style="fill: #e9f2f8; stroke: #000000; stroke-width: 3"/>
    </g>
    <g clip-path="url(#p9a60a5721e)">
     <use xlink:href="#C1_0_65c5f29b37" x="262.963064" y="259.308478" style="fill: #8a51a5; stroke: #000000; stroke-width: 3"/>
    </g>
   </g>
   <g id="patch_3">
    <path d="M 90 630 
L 90 86.4 
" style="fill: none; stroke: #262626; stroke-width: 7; stroke-linejoin: miter; stroke-linecap: square"/>
   </g>
   <g id="patch_4">
    <path d="M 648 630 
L 648 86.4 
" style="fill: none; stroke: #262626; stroke-width: 7; stroke-linejoin: miter; stroke-linecap: square"/>
   </g>
   <g id="patch_5">
    <path d="M 90 630 
L 648 630 
" style="fill: none; stroke: #262626; stroke-width: 7; stroke-linejoin: miter; stroke-linecap: square"/>
   </g>
   <g id="patch_6">
    <path d="M 90 86.4 
L 648 86.4 
" style="fill: none; stroke: #262626; stroke-width: 7; stroke-linejoin: miter; stroke-linecap: square"/>
   </g>
   <g id="text_12">
    <!-- Pearson Corr: -0.09 -->
    <g style="fill: #262626" transform="translate(193.378125 78.45)scale(0.4 -0.4)">
     <defs>
      <path id="ArialMT-50" d="M 494 0 
L 494 4581 
L 2222 4581 
Q 2678 4581 2919 4538 
Q 3256 4481 3484 4323 
Q 3713 4166 3852 3881 
Q 3991 3597 3991 3256 
Q 3991 2672 3619 2267 
Q 3247 1863 2275 1863 
L 1100 1863 
L 1100 0 
L 494 0 
z
M 1100 2403 
L 2284 2403 
Q 2872 2403 3119 2622 
Q 3366 2841 3366 3238 
Q 3366 3525 3220 3729 
Q 3075 3934 2838 4000 
Q 2684 4041 2272 4041 
L 1100 4041 
L 1100 2403 
z
" transform="scale(0.015625)"/>
      <path id="ArialMT-61" d="M 2588 409 
Q 2275 144 1986 34 
Q 1697 -75 1366 -75 
Q 819 -75 525 192 
Q 231 459 231 875 
Q 231 1119 342 1320 
Q 453 1522 633 1644 
Q 813 1766 1038 1828 
Q 1203 1872 1538 1913 
Q 2219 1994 2541 2106 
Q 2544 2222 2544 2253 
Q 2544 2597 2384 2738 
Q 2169 2928 1744 2928 
Q 1347 2928 1158 2789 
Q 969 2650 878 2297 
L 328 2372 
Q 403 2725 575 2942 
Q 747 3159 1072 3276 
Q 1397 3394 1825 3394 
Q 2250 3394 2515 3294 
Q 2781 3194 2906 3042 
Q 3031 2891 3081 2659 
Q 3109 2516 3109 2141 
L 3109 1391 
Q 3109 606 3145 398 
Q 3181 191 3288 0 
L 2700 0 
Q 2613 175 2588 409 
z
M 2541 1666 
Q 2234 1541 1622 1453 
Q 1275 1403 1131 1340 
Q 988 1278 909 1158 
Q 831 1038 831 891 
Q 831 666 1001 516 
Q 1172 366 1500 366 
Q 1825 366 2078 508 
Q 2331 650 2450 897 
Q 2541 1088 2541 1459 
L 2541 1666 
z
" transform="scale(0.015625)"/>
      <path id="ArialMT-6f" d="M 213 1659 
Q 213 2581 725 3025 
Q 1153 3394 1769 3394 
Q 2453 3394 2887 2945 
Q 3322 2497 3322 1706 
Q 3322 1066 3130 698 
Q 2938 331 2570 128 
Q 2203 -75 1769 -75 
Q 1072 -75 642 372 
Q 213 819 213 1659 
z
M 791 1659 
Q 791 1022 1069 705 
Q 1347 388 1769 388 
Q 2188 388 2466 706 
Q 2744 1025 2744 1678 
Q 2744 2294 2464 2611 
Q 2184 2928 1769 2928 
Q 1347 2928 1069 2612 
Q 791 2297 791 1659 
z
" transform="scale(0.015625)"/>
      <path id="ArialMT-6e" d="M 422 0 
L 422 3319 
L 928 3319 
L 928 2847 
Q 1294 3394 1984 3394 
Q 2284 3394 2536 3286 
Q 2788 3178 2913 3003 
Q 3038 2828 3088 2588 
Q 3119 2431 3119 2041 
L 3119 0 
L 2556 0 
L 2556 2019 
Q 2556 2363 2490 2533 
Q 2425 2703 2258 2804 
Q 2091 2906 1866 2906 
Q 1506 2906 1245 2678 
Q 984 2450 984 1813 
L 984 0 
L 422 0 
z
" transform="scale(0.015625)"/>
      <path id="ArialMT-3a" d="M 578 2678 
L 578 3319 
L 1219 3319 
L 1219 2678 
L 578 2678 
z
M 578 0 
L 578 641 
L 1219 641 
L 1219 0 
L 578 0 
z
" transform="scale(0.015625)"/>
      <path id="ArialMT-2d" d="M 203 1375 
L 203 1941 
L 1931 1941 
L 1931 1375 
L 203 1375 
z
" transform="scale(0.015625)"/>
      <path id="ArialMT-39" d="M 350 1059 
L 891 1109 
Q 959 728 1153 556 
Q 1347 384 1650 384 
Q 1909 384 2104 503 
Q 2300 622 2425 820 
Q 2550 1019 2634 1356 
Q 2719 1694 2719 2044 
Q 2719 2081 2716 2156 
Q 2547 1888 2255 1720 
Q 1963 1553 1622 1553 
Q 1053 1553 659 1965 
Q 266 2378 266 3053 
Q 266 3750 677 4175 
Q 1088 4600 1706 4600 
Q 2153 4600 2523 4359 
Q 2894 4119 3086 3673 
Q 3278 3228 3278 2384 
Q 3278 1506 3087 986 
Q 2897 466 2520 194 
Q 2144 -78 1638 -78 
Q 1100 -78 759 220 
Q 419 519 350 1059 
z
M 2653 3081 
Q 2653 3566 2395 3850 
Q 2138 4134 1775 4134 
Q 1400 4134 1122 3828 
Q 844 3522 844 3034 
Q 844 2597 1108 2323 
Q 1372 2050 1759 2050 
Q 2150 2050 2401 2323 
Q 2653 2597 2653 3081 
z
" transform="scale(0.015625)"/>
     </defs>
     <use xlink:href="#ArialMT-50"/>
     <use xlink:href="#ArialMT-65" x="66.699219"/>
     <use xlink:href="#ArialMT-61" x="122.314453"/>
     <use xlink:href="#ArialMT-72" x="177.929688"/>
     <use xlink:href="#ArialMT-73" x="211.230469"/>
     <use xlink:href="#ArialMT-6f" x="261.230469"/>
     <use xlink:href="#ArialMT-6e" x="316.845703"/>
     <use xlink:href="#ArialMT-20" x="372.460938"/>
     <use xlink:href="#ArialMT-43" x="400.244141"/>
     <use xlink:href="#ArialMT-6f" x="472.460938"/>
     <use xlink:href="#ArialMT-72" x="528.076172"/>
     <use xlink:href="#ArialMT-72" x="561.376953"/>
     <use xlink:href="#ArialMT-3a" x="594.677734"/>
     <use xlink:href="#ArialMT-20" x="622.460938"/>
     <use xlink:href="#ArialMT-2d" x="650.244141"/>
     <use xlink:href="#ArialMT-30" x="683.544922"/>
     <use xlink:href="#ArialMT-2e" x="739.160156"/>
     <use xlink:href="#ArialMT-30" x="766.943359"/>
     <use xlink:href="#ArialMT-39" x="822.558594"/>
    </g>
   </g>
  </g>
 </g>
 <defs>
  <clipPath id="p9a60a5721e">
   <rect x="90" y="86.4" width="558" height="543.6"/>
  </clipPath>
 </defs>
</svg>
