<?xml version="1.0" encoding="utf-8" standalone="no"?>
<!DOCTYPE svg PUBLIC "-//W3C//DTD SVG 1.1//EN"
  "http://www.w3.org/Graphics/SVG/1.1/DTD/svg11.dtd">
<svg xmlns:xlink="http://www.w3.org/1999/xlink" width="720pt" height="720pt" viewBox="0 0 720 720" xmlns="http://www.w3.org/2000/svg" version="1.1">
 <metadata>
  <rdf:RDF xmlns:dc="http://purl.org/dc/elements/1.1/" xmlns:cc="http://creativecommons.org/ns#" xmlns:rdf="http://www.w3.org/1999/02/22-rdf-syntax-ns#">
   <cc:Work>
    <dc:type rdf:resource="http://purl.org/dc/dcmitype/StillImage"/>
    <dc:date>2023-01-18T13:04:38.112887</dc:date>
    <dc:format>image/svg+xml</dc:format>
    <dc:creator>
     <cc:Agent>
      <dc:title>Matplotlib v3.5.0, https://matplotlib.org/</dc:title>
     </cc:Agent>
    </dc:creator>
   </cc:Work>
  </rdf:RDF>
 </metadata>
 <defs>
  <style type="text/css">*{stroke-linejoin: round; stroke-linecap: butt}</style>
 </defs>
 <g id="figure_1">
  <g id="patch_1">
   <path d="M 0 720 
L 720 720 
L 720 0 
L 0 0 
z
" style="fill: #ffffff"/>
  </g>
  <g id="axes_1">
   <g id="patch_2">
    <path d="M 90 630 
L 648 630 
L 648 86.4 
L 90 86.4 
z
" style="fill: #ffffff"/>
   </g>
   <g id="line2d_1">
    <path d="M 308.22358 630 
L 308.22358 86.4 
" clip-path="url(#pa5f50922ce)" style="fill: none; stroke-dasharray: 18.5,8; stroke-dashoffset: 0; stroke: #000000; stroke-width: 5"/>
   </g>
   <g id="matplotlib.axis_1">
    <g id="xtick_1">
     <g id="line2d_2">
      <defs>
       <path id="m47d067b7f8" d="M 0 0 
L 0 20 
" style="stroke: #262626; stroke-width: 7"/>
      </defs>
      <g>
       <use xlink:href="#m47d067b7f8" x="90" y="630" style="fill: #262626; stroke: #262626; stroke-width: 7"/>
      </g>
     </g>
     <g id="text_1">
      <!-- 0.0 -->
      <g style="fill: #262626" transform="translate(55.25 689.289062)scale(0.5 -0.5)">
       <defs>
        <path id="ArialMT-30" d="M 266 2259 
Q 266 3072 433 3567 
Q 600 4063 929 4331 
Q 1259 4600 1759 4600 
Q 2128 4600 2406 4451 
Q 2684 4303 2865 4023 
Q 3047 3744 3150 3342 
Q 3253 2941 3253 2259 
Q 3253 1453 3087 958 
Q 2922 463 2592 192 
Q 2263 -78 1759 -78 
Q 1097 -78 719 397 
Q 266 969 266 2259 
z
M 844 2259 
Q 844 1131 1108 757 
Q 1372 384 1759 384 
Q 2147 384 2411 759 
Q 2675 1134 2675 2259 
Q 2675 3391 2411 3762 
Q 2147 4134 1753 4134 
Q 1366 4134 1134 3806 
Q 844 3388 844 2259 
z
" transform="scale(0.015625)"/>
        <path id="ArialMT-2e" d="M 581 0 
L 581 641 
L 1222 641 
L 1222 0 
L 581 0 
z
" transform="scale(0.015625)"/>
       </defs>
       <use xlink:href="#ArialMT-30"/>
       <use xlink:href="#ArialMT-2e" x="55.615234"/>
       <use xlink:href="#ArialMT-30" x="83.398438"/>
      </g>
     </g>
    </g>
    <g id="xtick_2">
     <g id="line2d_3">
      <g>
       <use xlink:href="#m47d067b7f8" x="201.6" y="630" style="fill: #262626; stroke: #262626; stroke-width: 7"/>
      </g>
     </g>
     <g id="text_2">
      <!-- 0.2 -->
      <g style="fill: #262626" transform="translate(166.85 689.289062)scale(0.5 -0.5)">
       <defs>
        <path id="ArialMT-32" d="M 3222 541 
L 3222 0 
L 194 0 
Q 188 203 259 391 
Q 375 700 629 1000 
Q 884 1300 1366 1694 
Q 2113 2306 2375 2664 
Q 2638 3022 2638 3341 
Q 2638 3675 2398 3904 
Q 2159 4134 1775 4134 
Q 1369 4134 1125 3890 
Q 881 3647 878 3216 
L 300 3275 
Q 359 3922 746 4261 
Q 1134 4600 1788 4600 
Q 2447 4600 2831 4234 
Q 3216 3869 3216 3328 
Q 3216 3053 3103 2787 
Q 2991 2522 2730 2228 
Q 2469 1934 1863 1422 
Q 1356 997 1212 845 
Q 1069 694 975 541 
L 3222 541 
z
" transform="scale(0.015625)"/>
       </defs>
       <use xlink:href="#ArialMT-30"/>
       <use xlink:href="#ArialMT-2e" x="55.615234"/>
       <use xlink:href="#ArialMT-32" x="83.398438"/>
      </g>
     </g>
    </g>
    <g id="xtick_3">
     <g id="line2d_4">
      <g>
       <use xlink:href="#m47d067b7f8" x="313.2" y="630" style="fill: #262626; stroke: #262626; stroke-width: 7"/>
      </g>
     </g>
     <g id="text_3">
      <!-- 0.4 -->
      <g style="fill: #262626" transform="translate(278.45 689.289062)scale(0.5 -0.5)">
       <defs>
        <path id="ArialMT-34" d="M 2069 0 
L 2069 1097 
L 81 1097 
L 81 1613 
L 2172 4581 
L 2631 4581 
L 2631 1613 
L 3250 1613 
L 3250 1097 
L 2631 1097 
L 2631 0 
L 2069 0 
z
M 2069 1613 
L 2069 3678 
L 634 1613 
L 2069 1613 
z
" transform="scale(0.015625)"/>
       </defs>
       <use xlink:href="#ArialMT-30"/>
       <use xlink:href="#ArialMT-2e" x="55.615234"/>
       <use xlink:href="#ArialMT-34" x="83.398438"/>
      </g>
     </g>
    </g>
    <g id="xtick_4">
     <g id="line2d_5">
      <g>
       <use xlink:href="#m47d067b7f8" x="424.8" y="630" style="fill: #262626; stroke: #262626; stroke-width: 7"/>
      </g>
     </g>
     <g id="text_4">
      <!-- 0.6 -->
      <g style="fill: #262626" transform="translate(390.05 689.289062)scale(0.5 -0.5)">
       <defs>
        <path id="ArialMT-36" d="M 3184 3459 
L 2625 3416 
Q 2550 3747 2413 3897 
Q 2184 4138 1850 4138 
Q 1581 4138 1378 3988 
Q 1113 3794 959 3422 
Q 806 3050 800 2363 
Q 1003 2672 1297 2822 
Q 1591 2972 1913 2972 
Q 2475 2972 2870 2558 
Q 3266 2144 3266 1488 
Q 3266 1056 3080 686 
Q 2894 316 2569 119 
Q 2244 -78 1831 -78 
Q 1128 -78 684 439 
Q 241 956 241 2144 
Q 241 3472 731 4075 
Q 1159 4600 1884 4600 
Q 2425 4600 2770 4297 
Q 3116 3994 3184 3459 
z
M 888 1484 
Q 888 1194 1011 928 
Q 1134 663 1356 523 
Q 1578 384 1822 384 
Q 2178 384 2434 671 
Q 2691 959 2691 1453 
Q 2691 1928 2437 2201 
Q 2184 2475 1800 2475 
Q 1419 2475 1153 2201 
Q 888 1928 888 1484 
z
" transform="scale(0.015625)"/>
       </defs>
       <use xlink:href="#ArialMT-30"/>
       <use xlink:href="#ArialMT-2e" x="55.615234"/>
       <use xlink:href="#ArialMT-36" x="83.398438"/>
      </g>
     </g>
    </g>
    <g id="xtick_5">
     <g id="line2d_6">
      <g>
       <use xlink:href="#m47d067b7f8" x="536.4" y="630" style="fill: #262626; stroke: #262626; stroke-width: 7"/>
      </g>
     </g>
     <g id="text_5">
      <!-- 0.8 -->
      <g style="fill: #262626" transform="translate(501.65 689.289062)scale(0.5 -0.5)">
       <defs>
        <path id="ArialMT-38" d="M 1131 2484 
Q 781 2613 612 2850 
Q 444 3088 444 3419 
Q 444 3919 803 4259 
Q 1163 4600 1759 4600 
Q 2359 4600 2725 4251 
Q 3091 3903 3091 3403 
Q 3091 3084 2923 2848 
Q 2756 2613 2416 2484 
Q 2838 2347 3058 2040 
Q 3278 1734 3278 1309 
Q 3278 722 2862 322 
Q 2447 -78 1769 -78 
Q 1091 -78 675 323 
Q 259 725 259 1325 
Q 259 1772 486 2073 
Q 713 2375 1131 2484 
z
M 1019 3438 
Q 1019 3113 1228 2906 
Q 1438 2700 1772 2700 
Q 2097 2700 2305 2904 
Q 2513 3109 2513 3406 
Q 2513 3716 2298 3927 
Q 2084 4138 1766 4138 
Q 1444 4138 1231 3931 
Q 1019 3725 1019 3438 
z
M 838 1322 
Q 838 1081 952 856 
Q 1066 631 1291 507 
Q 1516 384 1775 384 
Q 2178 384 2440 643 
Q 2703 903 2703 1303 
Q 2703 1709 2433 1975 
Q 2163 2241 1756 2241 
Q 1359 2241 1098 1978 
Q 838 1716 838 1322 
z
" transform="scale(0.015625)"/>
       </defs>
       <use xlink:href="#ArialMT-30"/>
       <use xlink:href="#ArialMT-2e" x="55.615234"/>
       <use xlink:href="#ArialMT-38" x="83.398438"/>
      </g>
     </g>
    </g>
    <g id="xtick_6">
     <g id="line2d_7">
      <g>
       <use xlink:href="#m47d067b7f8" x="648" y="630" style="fill: #262626; stroke: #262626; stroke-width: 7"/>
      </g>
     </g>
     <g id="text_6">
      <!-- 1.0 -->
      <g style="fill: #262626" transform="translate(613.25 689.289062)scale(0.5 -0.5)">
       <defs>
        <path id="ArialMT-31" d="M 2384 0 
L 1822 0 
L 1822 3584 
Q 1619 3391 1289 3197 
Q 959 3003 697 2906 
L 697 3450 
Q 1169 3672 1522 3987 
Q 1875 4303 2022 4600 
L 2384 4600 
L 2384 0 
z
" transform="scale(0.015625)"/>
       </defs>
       <use xlink:href="#ArialMT-31"/>
       <use xlink:href="#ArialMT-2e" x="55.615234"/>
       <use xlink:href="#ArialMT-30" x="83.398438"/>
      </g>
     </g>
    </g>
    <g id="text_7">
     <!-- $\delta$ -->
     <g style="fill: #262626" transform="translate(350.4 746.173437)scale(0.6 -0.6)">
      <defs>
       <path id="DejaVuSans-Oblique-3b4" d="M 3472 4053 
Q 3197 4272 2450 4272 
Q 1659 4272 1588 3906 
Q 1531 3619 2328 3469 
Q 2953 3353 3253 3003 
Q 3616 2581 3447 1716 
Q 3284 888 2763 400 
Q 2238 -91 1488 -91 
Q 741 -91 406 400 
Q 72 888 241 1747 
Q 363 2384 891 2900 
Q 1097 3100 1353 3213 
Q 913 3459 1000 3900 
Q 1166 4750 2544 4750 
Q 3234 4750 3566 4531 
L 3472 4053 
z
M 1753 3056 
Q 1525 2966 1306 2738 
Q 969 2384 847 1747 
Q 722 1113 919 756 
Q 1119 397 1584 397 
Q 2044 397 2381 759 
Q 2722 1122 2838 1716 
Q 2956 2338 2731 2638 
Q 2491 2959 2103 2994 
Q 1906 3013 1753 3056 
z
" transform="scale(0.015625)"/>
      </defs>
      <use xlink:href="#DejaVuSans-Oblique-3b4" transform="translate(0 0.78125)"/>
     </g>
    </g>
   </g>
   <g id="matplotlib.axis_2">
    <g id="ytick_1">
     <g id="line2d_8">
      <defs>
       <path id="ma71190f49d" d="M 0 0 
L -20 0 
" style="stroke: #262626; stroke-width: 7"/>
      </defs>
      <g>
       <use xlink:href="#ma71190f49d" x="90" y="562.05" style="fill: #262626; stroke: #262626; stroke-width: 7"/>
      </g>
     </g>
     <g id="text_8">
      <!-- −4 -->
      <g style="fill: #262626" transform="translate(9.492188 579.944531)scale(0.5 -0.5)">
       <defs>
        <path id="ArialMT-2212" d="M 3381 1997 
L 356 1997 
L 356 2522 
L 3381 2522 
L 3381 1997 
z
" transform="scale(0.015625)"/>
       </defs>
       <use xlink:href="#ArialMT-2212"/>
       <use xlink:href="#ArialMT-34" x="58.398438"/>
      </g>
     </g>
    </g>
    <g id="ytick_2">
     <g id="line2d_9">
      <g>
       <use xlink:href="#ma71190f49d" x="90" y="426.15" style="fill: #262626; stroke: #262626; stroke-width: 7"/>
      </g>
     </g>
     <g id="text_9">
      <!-- −3 -->
      <g style="fill: #262626" transform="translate(9.492188 444.044531)scale(0.5 -0.5)">
       <defs>
        <path id="ArialMT-33" d="M 269 1209 
L 831 1284 
Q 928 806 1161 595 
Q 1394 384 1728 384 
Q 2125 384 2398 659 
Q 2672 934 2672 1341 
Q 2672 1728 2419 1979 
Q 2166 2231 1775 2231 
Q 1616 2231 1378 2169 
L 1441 2663 
Q 1497 2656 1531 2656 
Q 1891 2656 2178 2843 
Q 2466 3031 2466 3422 
Q 2466 3731 2256 3934 
Q 2047 4138 1716 4138 
Q 1388 4138 1169 3931 
Q 950 3725 888 3313 
L 325 3413 
Q 428 3978 793 4289 
Q 1159 4600 1703 4600 
Q 2078 4600 2393 4439 
Q 2709 4278 2876 4000 
Q 3044 3722 3044 3409 
Q 3044 3113 2884 2869 
Q 2725 2625 2413 2481 
Q 2819 2388 3044 2092 
Q 3269 1797 3269 1353 
Q 3269 753 2831 336 
Q 2394 -81 1725 -81 
Q 1122 -81 723 278 
Q 325 638 269 1209 
z
" transform="scale(0.015625)"/>
       </defs>
       <use xlink:href="#ArialMT-2212"/>
       <use xlink:href="#ArialMT-33" x="58.398438"/>
      </g>
     </g>
    </g>
    <g id="ytick_3">
     <g id="line2d_10">
      <g>
       <use xlink:href="#ma71190f49d" x="90" y="290.25" style="fill: #262626; stroke: #262626; stroke-width: 7"/>
      </g>
     </g>
     <g id="text_10">
      <!-- −2 -->
      <g style="fill: #262626" transform="translate(9.492188 308.144531)scale(0.5 -0.5)">
       <use xlink:href="#ArialMT-2212"/>
       <use xlink:href="#ArialMT-32" x="58.398438"/>
      </g>
     </g>
    </g>
    <g id="ytick_4">
     <g id="line2d_11">
      <g>
       <use xlink:href="#ma71190f49d" x="90" y="154.35" style="fill: #262626; stroke: #262626; stroke-width: 7"/>
      </g>
     </g>
     <g id="text_11">
      <!-- −1 -->
      <g style="fill: #262626" transform="translate(9.492188 172.244531)scale(0.5 -0.5)">
       <use xlink:href="#ArialMT-2212"/>
       <use xlink:href="#ArialMT-31" x="58.398438"/>
      </g>
     </g>
    </g>
    <g id="text_12">
     <!-- $\Delta S/k_B$ -->
     <g style="fill: #262626" transform="translate(-6.432813 440.7)rotate(-90)scale(0.6 -0.6)">
      <defs>
       <path id="DejaVuSans-394" d="M 2188 4044 
L 906 525 
L 3472 525 
L 2188 4044 
z
M 50 0 
L 1831 4666 
L 2547 4666 
L 4325 0 
L 50 0 
z
" transform="scale(0.015625)"/>
       <path id="DejaVuSans-Oblique-53" d="M 3859 4513 
L 3738 3897 
Q 3422 4066 3111 4152 
Q 2800 4238 2509 4238 
Q 1944 4238 1609 3991 
Q 1275 3744 1275 3334 
Q 1275 3109 1398 2989 
Q 1522 2869 2034 2731 
L 2413 2638 
Q 3053 2472 3303 2217 
Q 3553 1963 3553 1503 
Q 3553 797 2998 353 
Q 2444 -91 1538 -91 
Q 1166 -91 791 -17 
Q 416 56 38 206 
L 166 856 
Q 513 641 861 531 
Q 1209 422 1556 422 
Q 2147 422 2503 684 
Q 2859 947 2859 1369 
Q 2859 1650 2717 1795 
Q 2575 1941 2106 2059 
L 1728 2156 
Q 1081 2325 845 2545 
Q 609 2766 609 3163 
Q 609 3859 1145 4304 
Q 1681 4750 2541 4750 
Q 2875 4750 3203 4690 
Q 3531 4631 3859 4513 
z
" transform="scale(0.015625)"/>
       <path id="DejaVuSans-2f" d="M 1625 4666 
L 2156 4666 
L 531 -594 
L 0 -594 
L 1625 4666 
z
" transform="scale(0.015625)"/>
       <path id="DejaVuSans-Oblique-6b" d="M 1172 4863 
L 1747 4863 
L 1197 2028 
L 3169 3500 
L 3916 3500 
L 1716 1825 
L 3322 0 
L 2625 0 
L 1131 1709 
L 800 0 
L 225 0 
L 1172 4863 
z
" transform="scale(0.015625)"/>
       <path id="DejaVuSans-Oblique-42" d="M 1081 4666 
L 2694 4666 
Q 3350 4666 3675 4422 
Q 4000 4178 4000 3688 
Q 4000 3238 3720 2911 
Q 3441 2584 2988 2516 
Q 3375 2428 3569 2181 
Q 3763 1934 3763 1522 
Q 3763 819 3242 409 
Q 2722 0 1819 0 
L 172 0 
L 1081 4666 
z
M 1234 2228 
L 903 519 
L 1919 519 
Q 2491 519 2800 781 
Q 3109 1044 3109 1522 
Q 3109 1891 2904 2059 
Q 2700 2228 2247 2228 
L 1234 2228 
z
M 1606 4147 
L 1331 2741 
L 2272 2741 
Q 2775 2741 3058 2959 
Q 3341 3178 3341 3566 
Q 3341 3869 3150 4008 
Q 2959 4147 2541 4147 
L 1606 4147 
z
" transform="scale(0.015625)"/>
      </defs>
      <use xlink:href="#DejaVuSans-394" transform="translate(0 0.015625)"/>
      <use xlink:href="#DejaVuSans-Oblique-53" transform="translate(68.408203 0.015625)"/>
      <use xlink:href="#DejaVuSans-2f" transform="translate(131.884766 0.015625)"/>
      <use xlink:href="#DejaVuSans-Oblique-6b" transform="translate(165.576172 0.015625)"/>
      <use xlink:href="#DejaVuSans-Oblique-42" transform="translate(223.486328 -16.390625)scale(0.7)"/>
     </g>
    </g>
   </g>
   <g id="PathCollection_1">
    <defs>
     <path id="C0_0_d1ce3d0a9d" d="M 0 7.071068 
C 1.875269 7.071068 3.673985 6.326016 5 5 
C 6.326016 3.673985 7.071068 1.875269 7.071068 -0 
C 7.071068 -1.875269 6.326016 -3.673985 5 -5 
C 3.673985 -6.326016 1.875269 -7.071068 0 -7.071068 
C -1.875269 -7.071068 -3.673985 -6.326016 -5 -5 
C -6.326016 -3.673985 -7.071068 -1.875269 -7.071068 0 
C -7.071068 1.875269 -6.326016 3.673985 -5 5 
C -3.673985 6.326016 -1.875269 7.071068 0 7.071068 
z
"/>
    </defs>
    <g clip-path="url(#pa5f50922ce)">
     <use xlink:href="#C0_0_d1ce3d0a9d" x="391.025737" y="255.037851" style="fill: #f4fbf2; stroke: #000000; stroke-width: 3"/>
    </g>
    <g clip-path="url(#pa5f50922ce)">
     <use xlink:href="#C0_0_d1ce3d0a9d" x="341.328746" y="251.059637" style="fill: #f0f9ec; stroke: #000000; stroke-width: 3"/>
    </g>
    <g clip-path="url(#pa5f50922ce)">
     <use xlink:href="#C0_0_d1ce3d0a9d" x="332.818395" y="264.19083" style="fill: #f0f9ed; stroke: #000000; stroke-width: 3"/>
    </g>
    <g clip-path="url(#pa5f50922ce)">
     <use xlink:href="#C0_0_d1ce3d0a9d" x="322.923477" y="255.798431" style="fill: #e1f3dc; stroke: #000000; stroke-width: 3"/>
    </g>
    <g clip-path="url(#pa5f50922ce)">
     <use xlink:href="#C0_0_d1ce3d0a9d" x="337.741569" y="257.690108" style="fill: #e9f7e5; stroke: #000000; stroke-width: 3"/>
    </g>
    <g clip-path="url(#pa5f50922ce)">
     <use xlink:href="#C0_0_d1ce3d0a9d" x="371.071785" y="241.146507" style="fill: #caeac3; stroke: #000000; stroke-width: 3"/>
    </g>
    <g clip-path="url(#pa5f50922ce)">
     <use xlink:href="#C0_0_d1ce3d0a9d" x="327.849393" y="203.123358" style="fill: #e8f6e4; stroke: #000000; stroke-width: 3"/>
    </g>
    <g clip-path="url(#pa5f50922ce)">
     <use xlink:href="#C0_0_d1ce3d0a9d" x="345.433877" y="166.186506" style="fill: #aadda4; stroke: #000000; stroke-width: 3"/>
    </g>
    <g clip-path="url(#pa5f50922ce)">
     <use xlink:href="#C0_0_d1ce3d0a9d" x="372.202555" y="159.629274" style="fill: #84cc83; stroke: #000000; stroke-width: 3"/>
    </g>
    <g clip-path="url(#pa5f50922ce)">
     <use xlink:href="#C0_0_d1ce3d0a9d" x="256.091159" y="166.312288" style="fill: #94d390; stroke: #000000; stroke-width: 3"/>
    </g>
    <g clip-path="url(#pa5f50922ce)">
     <use xlink:href="#C0_0_d1ce3d0a9d" x="390.917393" y="185.368499" style="fill: #d6efd0; stroke: #000000; stroke-width: 3"/>
    </g>
    <g clip-path="url(#pa5f50922ce)">
     <use xlink:href="#C0_0_d1ce3d0a9d" x="294.487684" y="155.736109" style="fill: #c3e7bc; stroke: #000000; stroke-width: 3"/>
    </g>
    <g clip-path="url(#pa5f50922ce)">
     <use xlink:href="#C0_0_d1ce3d0a9d" x="188.983886" y="189.259391" style="fill: #f4fbf2; stroke: #000000; stroke-width: 3"/>
    </g>
    <g clip-path="url(#pa5f50922ce)">
     <use xlink:href="#C0_0_d1ce3d0a9d" x="326.234028" y="219.104713" style="fill: #a8dca2; stroke: #000000; stroke-width: 3"/>
    </g>
    <g clip-path="url(#pa5f50922ce)">
     <use xlink:href="#C0_0_d1ce3d0a9d" x="246.436798" y="184.310124" style="fill: #c2e7bb; stroke: #000000; stroke-width: 3"/>
    </g>
    <g clip-path="url(#pa5f50922ce)">
     <use xlink:href="#C0_0_d1ce3d0a9d" x="375.626086" y="160.774969" style="fill: #46ae60; stroke: #000000; stroke-width: 3"/>
    </g>
    <g clip-path="url(#pa5f50922ce)">
     <use xlink:href="#C0_0_d1ce3d0a9d" x="259.336822" y="176.262153" style="fill: #a4da9e; stroke: #000000; stroke-width: 3"/>
    </g>
    <g clip-path="url(#pa5f50922ce)">
     <use xlink:href="#C0_0_d1ce3d0a9d" x="220.92704" y="155.928819" style="fill: #ecf8e8; stroke: #000000; stroke-width: 3"/>
    </g>
    <g clip-path="url(#pa5f50922ce)">
     <use xlink:href="#C0_0_d1ce3d0a9d" x="180.696263" y="149.977669" style="fill: #ddf2d8; stroke: #000000; stroke-width: 3"/>
    </g>
    <g clip-path="url(#pa5f50922ce)">
     <use xlink:href="#C0_0_d1ce3d0a9d" x="435.833752" y="136.147015" style="fill: #2d954d; stroke: #000000; stroke-width: 3"/>
    </g>
    <g clip-path="url(#pa5f50922ce)">
     <use xlink:href="#C0_0_d1ce3d0a9d" x="275.957933" y="124.297463" style="fill: #6dc072; stroke: #000000; stroke-width: 3"/>
    </g>
    <g clip-path="url(#pa5f50922ce)">
     <use xlink:href="#C0_0_d1ce3d0a9d" x="299.718014" y="163.493867" style="fill: #52b365; stroke: #000000; stroke-width: 3"/>
    </g>
    <g clip-path="url(#pa5f50922ce)">
     <use xlink:href="#C0_0_d1ce3d0a9d" x="373.924896" y="214.688341" style="fill: #f1faee; stroke: #000000; stroke-width: 3"/>
    </g>
    <g clip-path="url(#pa5f50922ce)">
     <use xlink:href="#C0_0_d1ce3d0a9d" x="408.886662" y="155.547641" style="fill: #75c477; stroke: #000000; stroke-width: 3"/>
    </g>
    <g clip-path="url(#pa5f50922ce)">
     <use xlink:href="#C0_0_d1ce3d0a9d" x="266.646401" y="161.094635" style="fill: #84cc83; stroke: #000000; stroke-width: 3"/>
    </g>
    <g clip-path="url(#pa5f50922ce)">
     <use xlink:href="#C0_0_d1ce3d0a9d" x="210.612261" y="149.45452" style="fill: #dbf1d6; stroke: #000000; stroke-width: 3"/>
    </g>
    <g clip-path="url(#pa5f50922ce)">
     <use xlink:href="#C0_0_d1ce3d0a9d" x="453.368619" y="204.198449" style="fill: #ceecc8; stroke: #000000; stroke-width: 3"/>
    </g>
    <g clip-path="url(#pa5f50922ce)">
     <use xlink:href="#C0_0_d1ce3d0a9d" x="446.404408" y="175.239704" style="fill: #d8f0d2; stroke: #000000; stroke-width: 3"/>
    </g>
    <g clip-path="url(#pa5f50922ce)">
     <use xlink:href="#C0_0_d1ce3d0a9d" x="450.689357" y="184.580817" style="fill: #81ca81; stroke: #000000; stroke-width: 3"/>
    </g>
    <g clip-path="url(#pa5f50922ce)">
     <use xlink:href="#C0_0_d1ce3d0a9d" x="405.736321" y="249.027264" style="fill: #e7f6e2; stroke: #000000; stroke-width: 3"/>
    </g>
    <g clip-path="url(#pa5f50922ce)">
     <use xlink:href="#C0_0_d1ce3d0a9d" x="308.251325" y="146.710924" style="fill: #18823d; stroke: #000000; stroke-width: 3"/>
    </g>
    <g clip-path="url(#pa5f50922ce)">
     <use xlink:href="#C0_0_d1ce3d0a9d" x="351.033519" y="228.933726" style="fill: #f0f9ec; stroke: #000000; stroke-width: 3"/>
    </g>
    <g clip-path="url(#pa5f50922ce)">
     <use xlink:href="#C0_0_d1ce3d0a9d" x="283.403805" y="141.13724" style="fill: #91d28e; stroke: #000000; stroke-width: 3"/>
    </g>
    <g clip-path="url(#pa5f50922ce)">
     <use xlink:href="#C0_0_d1ce3d0a9d" x="329.779991" y="217.229162" style="fill: #f6fcf4; stroke: #000000; stroke-width: 3"/>
    </g>
    <g clip-path="url(#pa5f50922ce)">
     <use xlink:href="#C0_0_d1ce3d0a9d" x="253.906673" y="185.742177" style="fill: #dff3da; stroke: #000000; stroke-width: 3"/>
    </g>
    <g clip-path="url(#pa5f50922ce)">
     <use xlink:href="#C0_0_d1ce3d0a9d" x="347.826232" y="209.696446" style="fill: #c8e9c1; stroke: #000000; stroke-width: 3"/>
    </g>
    <g clip-path="url(#pa5f50922ce)">
     <use xlink:href="#C0_0_d1ce3d0a9d" x="247.088029" y="174.515836" style="fill: #dbf1d6; stroke: #000000; stroke-width: 3"/>
    </g>
    <g clip-path="url(#pa5f50922ce)">
     <use xlink:href="#C0_0_d1ce3d0a9d" x="333.836759" y="151.896859" style="fill: #8dd08a; stroke: #000000; stroke-width: 3"/>
    </g>
    <g clip-path="url(#pa5f50922ce)">
     <use xlink:href="#C0_0_d1ce3d0a9d" x="279.855162" y="157.400305" style="fill: #a3da9d; stroke: #000000; stroke-width: 3"/>
    </g>
   </g>
   <g id="PathCollection_2">
    <defs>
     <path id="C1_0_7afe551da6" d="M 0 7.071068 
C 1.875269 7.071068 3.673985 6.326016 5 5 
C 6.326016 3.673985 7.071068 1.875269 7.071068 -0 
C 7.071068 -1.875269 6.326016 -3.673985 5 -5 
C 3.673985 -6.326016 1.875269 -7.071068 0 -7.071068 
C -1.875269 -7.071068 -3.673985 -6.326016 -5 -5 
C -6.326016 -3.673985 -7.071068 -1.875269 -7.071068 0 
C -7.071068 1.875269 -6.326016 3.673985 -5 5 
C -3.673985 6.326016 -1.875269 7.071068 0 7.071068 
z
"/>
    </defs>
    <g clip-path="url(#pa5f50922ce)">
     <use xlink:href="#C1_0_7afe551da6" x="249.61882" y="346.194076" style="fill: #9ab4d6; stroke: #000000; stroke-width: 3"/>
    </g>
    <g clip-path="url(#pa5f50922ce)">
     <use xlink:href="#C1_0_7afe551da6" x="352.397856" y="347.189975" style="fill: #8c6ab1; stroke: #000000; stroke-width: 3"/>
    </g>
    <g clip-path="url(#pa5f50922ce)">
     <use xlink:href="#C1_0_7afe551da6" x="292.052079" y="303.653564" style="fill: #adc7e0; stroke: #000000; stroke-width: 3"/>
    </g>
    <g clip-path="url(#pa5f50922ce)">
     <use xlink:href="#C1_0_7afe551da6" x="220.61116" y="480.748341" style="fill: #4d004b; stroke: #000000; stroke-width: 3"/>
    </g>
    <g clip-path="url(#pa5f50922ce)">
     <use xlink:href="#C1_0_7afe551da6" x="262.196405" y="448.653988" style="fill: #4d004b; stroke: #000000; stroke-width: 3"/>
    </g>
    <g clip-path="url(#pa5f50922ce)">
     <use xlink:href="#C1_0_7afe551da6" x="271.306393" y="575.862235" style="fill: #4d004b; stroke: #000000; stroke-width: 3"/>
    </g>
    <g clip-path="url(#pa5f50922ce)">
     <use xlink:href="#C1_0_7afe551da6" x="309.310742" y="293.862223" style="fill: #cfdfed; stroke: #000000; stroke-width: 3"/>
    </g>
    <g clip-path="url(#pa5f50922ce)">
     <use xlink:href="#C1_0_7afe551da6" x="160.838564" y="317.211868" style="fill: #4d004b; stroke: #000000; stroke-width: 3"/>
    </g>
    <g clip-path="url(#pa5f50922ce)">
     <use xlink:href="#C1_0_7afe551da6" x="249.724349" y="216.103404" style="fill: #873a98; stroke: #000000; stroke-width: 3"/>
    </g>
    <g clip-path="url(#pa5f50922ce)">
     <use xlink:href="#C1_0_7afe551da6" x="248.411951" y="254.041288" style="fill: #8c8cc1; stroke: #000000; stroke-width: 3"/>
    </g>
    <g clip-path="url(#pa5f50922ce)">
     <use xlink:href="#C1_0_7afe551da6" x="144.341553" y="299.537665" style="fill: #4d004b; stroke: #000000; stroke-width: 3"/>
    </g>
    <g clip-path="url(#pa5f50922ce)">
     <use xlink:href="#C1_0_7afe551da6" x="239.039723" y="220.791163" style="fill: #bcd1e5; stroke: #000000; stroke-width: 3"/>
    </g>
    <g clip-path="url(#pa5f50922ce)">
     <use xlink:href="#C1_0_7afe551da6" x="166.602119" y="232.121521" style="fill: #a1bedb; stroke: #000000; stroke-width: 3"/>
    </g>
    <g clip-path="url(#pa5f50922ce)">
     <use xlink:href="#C1_0_7afe551da6" x="312.590838" y="227.63774" style="fill: #9bb6d7; stroke: #000000; stroke-width: 3"/>
    </g>
    <g clip-path="url(#pa5f50922ce)">
     <use xlink:href="#C1_0_7afe551da6" x="190.625332" y="209.514833" style="fill: #e2edf5; stroke: #000000; stroke-width: 3"/>
    </g>
    <g clip-path="url(#pa5f50922ce)">
     <use xlink:href="#C1_0_7afe551da6" x="238.293959" y="295.219118" style="fill: #8a51a5; stroke: #000000; stroke-width: 3"/>
    </g>
    <g clip-path="url(#pa5f50922ce)">
     <use xlink:href="#C1_0_7afe551da6" x="350.939884" y="289.079764" style="fill: #a5c1dc; stroke: #000000; stroke-width: 3"/>
    </g>
    <g clip-path="url(#pa5f50922ce)">
     <use xlink:href="#C1_0_7afe551da6" x="184.791054" y="356.519809" style="fill: #4d004b; stroke: #000000; stroke-width: 3"/>
    </g>
    <g clip-path="url(#pa5f50922ce)">
     <use xlink:href="#C1_0_7afe551da6" x="193.075377" y="478.816829" style="fill: #4d004b; stroke: #000000; stroke-width: 3"/>
    </g>
    <g clip-path="url(#pa5f50922ce)">
     <use xlink:href="#C1_0_7afe551da6" x="247.547322" y="185.308858" style="fill: #a9c4de; stroke: #000000; stroke-width: 3"/>
    </g>
    <g clip-path="url(#pa5f50922ce)">
     <use xlink:href="#C1_0_7afe551da6" x="193.472486" y="287.929804" style="fill: #8c69b0; stroke: #000000; stroke-width: 3"/>
    </g>
    <g clip-path="url(#pa5f50922ce)">
     <use xlink:href="#C1_0_7afe551da6" x="240.656003" y="191.225204" style="fill: #98aed3; stroke: #000000; stroke-width: 3"/>
    </g>
    <g clip-path="url(#pa5f50922ce)">
     <use xlink:href="#C1_0_7afe551da6" x="191.877117" y="201.994688" style="fill: #8c7eba; stroke: #000000; stroke-width: 3"/>
    </g>
    <g clip-path="url(#pa5f50922ce)">
     <use xlink:href="#C1_0_7afe551da6" x="296.275179" y="428.177692" style="fill: #4d004b; stroke: #000000; stroke-width: 3"/>
    </g>
    <g clip-path="url(#pa5f50922ce)">
     <use xlink:href="#C1_0_7afe551da6" x="285.76603" y="517.93423" style="fill: #4d004b; stroke: #000000; stroke-width: 3"/>
    </g>
    <g clip-path="url(#pa5f50922ce)">
     <use xlink:href="#C1_0_7afe551da6" x="203.059121" y="196.468815" style="fill: #f5fafc; stroke: #000000; stroke-width: 3"/>
    </g>
    <g clip-path="url(#pa5f50922ce)">
     <use xlink:href="#C1_0_7afe551da6" x="237.631068" y="162.718766" style="fill: #f3f9fc; stroke: #000000; stroke-width: 3"/>
    </g>
    <g clip-path="url(#pa5f50922ce)">
     <use xlink:href="#C1_0_7afe551da6" x="237.460259" y="222.825041" style="fill: #bcd1e5; stroke: #000000; stroke-width: 3"/>
    </g>
    <g clip-path="url(#pa5f50922ce)">
     <use xlink:href="#C1_0_7afe551da6" x="196.086694" y="249.748894" style="fill: #92a3cd; stroke: #000000; stroke-width: 3"/>
    </g>
    <g clip-path="url(#pa5f50922ce)">
     <use xlink:href="#C1_0_7afe551da6" x="181.878979" y="263.662026" style="fill: #9cb7d7; stroke: #000000; stroke-width: 3"/>
    </g>
    <g clip-path="url(#pa5f50922ce)">
     <use xlink:href="#C1_0_7afe551da6" x="303.07597" y="279.327263" style="fill: #8c85be; stroke: #000000; stroke-width: 3"/>
    </g>
    <g clip-path="url(#pa5f50922ce)">
     <use xlink:href="#C1_0_7afe551da6" x="181.871514" y="216.076327" style="fill: #acc6df; stroke: #000000; stroke-width: 3"/>
    </g>
    <g clip-path="url(#pa5f50922ce)">
     <use xlink:href="#C1_0_7afe551da6" x="275.628403" y="261.050333" style="fill: #a0bddb; stroke: #000000; stroke-width: 3"/>
    </g>
    <g clip-path="url(#pa5f50922ce)">
     <use xlink:href="#C1_0_7afe551da6" x="345.87398" y="227.631111" style="fill: #f0f7fa; stroke: #000000; stroke-width: 3"/>
    </g>
    <g clip-path="url(#pa5f50922ce)">
     <use xlink:href="#C1_0_7afe551da6" x="217.397036" y="165.274927" style="fill: #edf5f9; stroke: #000000; stroke-width: 3"/>
    </g>
    <g clip-path="url(#pa5f50922ce)">
     <use xlink:href="#C1_0_7afe551da6" x="219.484593" y="186.111345" style="fill: #a6c2dd; stroke: #000000; stroke-width: 3"/>
    </g>
    <g clip-path="url(#pa5f50922ce)">
     <use xlink:href="#C1_0_7afe551da6" x="392.709978" y="295.786551" style="fill: #894fa3; stroke: #000000; stroke-width: 3"/>
    </g>
    <g clip-path="url(#pa5f50922ce)">
     <use xlink:href="#C1_0_7afe551da6" x="198.009808" y="320.554505" style="fill: #4d004b; stroke: #000000; stroke-width: 3"/>
    </g>
    <g clip-path="url(#pa5f50922ce)">
     <use xlink:href="#C1_0_7afe551da6" x="261.27626" y="190.964422" style="fill: #98b0d3; stroke: #000000; stroke-width: 3"/>
    </g>
    <g clip-path="url(#pa5f50922ce)">
     <use xlink:href="#C1_0_7afe551da6" x="157.299782" y="225.035004" style="fill: #ecf4f9; stroke: #000000; stroke-width: 3"/>
    </g>
    <g clip-path="url(#pa5f50922ce)">
     <use xlink:href="#C1_0_7afe551da6" x="351.434257" y="291.096686" style="fill: #99b2d5; stroke: #000000; stroke-width: 3"/>
    </g>
    <g clip-path="url(#pa5f50922ce)">
     <use xlink:href="#C1_0_7afe551da6" x="286.736017" y="272.89747" style="fill: #831a83; stroke: #000000; stroke-width: 3"/>
    </g>
    <g clip-path="url(#pa5f50922ce)">
     <use xlink:href="#C1_0_7afe551da6" x="215.442955" y="283.178827" style="fill: #863092; stroke: #000000; stroke-width: 3"/>
    </g>
    <g clip-path="url(#pa5f50922ce)">
     <use xlink:href="#C1_0_7afe551da6" x="188.61631" y="446.151528" style="fill: #4d004b; stroke: #000000; stroke-width: 3"/>
    </g>
    <g clip-path="url(#pa5f50922ce)">
     <use xlink:href="#C1_0_7afe551da6" x="222.237603" y="299.501771" style="fill: #873b99; stroke: #000000; stroke-width: 3"/>
    </g>
    <g clip-path="url(#pa5f50922ce)">
     <use xlink:href="#C1_0_7afe551da6" x="222.237603" y="299.501771" style="fill: #873b99; stroke: #000000; stroke-width: 3"/>
    </g>
    <g clip-path="url(#pa5f50922ce)">
     <use xlink:href="#C1_0_7afe551da6" x="202.431487" y="349.678828" style="fill: #873d9a; stroke: #000000; stroke-width: 3"/>
    </g>
    <g clip-path="url(#pa5f50922ce)">
     <use xlink:href="#C1_0_7afe551da6" x="159.983713" y="238.641258" style="fill: #a1bedb; stroke: #000000; stroke-width: 3"/>
    </g>
    <g clip-path="url(#pa5f50922ce)">
     <use xlink:href="#C1_0_7afe551da6" x="223.356228" y="399.715973" style="fill: #4d004b; stroke: #000000; stroke-width: 3"/>
    </g>
    <g clip-path="url(#pa5f50922ce)">
     <use xlink:href="#C1_0_7afe551da6" x="382.489353" y="289.819034" style="fill: #afc8e0; stroke: #000000; stroke-width: 3"/>
    </g>
    <g clip-path="url(#pa5f50922ce)">
     <use xlink:href="#C1_0_7afe551da6" x="375.939203" y="308.34123" style="fill: #aac4de; stroke: #000000; stroke-width: 3"/>
    </g>
    <g clip-path="url(#pa5f50922ce)">
     <use xlink:href="#C1_0_7afe551da6" x="276.390225" y="321.142668" style="fill: #8f9bc9; stroke: #000000; stroke-width: 3"/>
    </g>
    <g clip-path="url(#pa5f50922ce)">
     <use xlink:href="#C1_0_7afe551da6" x="373.139391" y="475.919435" style="fill: #4d004b; stroke: #000000; stroke-width: 3"/>
    </g>
    <g clip-path="url(#pa5f50922ce)">
     <use xlink:href="#C1_0_7afe551da6" x="316.898486" y="195.205633" style="fill: #e9f2f8; stroke: #000000; stroke-width: 3"/>
    </g>
    <g clip-path="url(#pa5f50922ce)">
     <use xlink:href="#C1_0_7afe551da6" x="269.779835" y="259.716493" style="fill: #8a51a5; stroke: #000000; stroke-width: 3"/>
    </g>
   </g>
   <g id="PathCollection_3">
    <defs>
     <path id="m883aa34985" d="M 0 7.071068 
C 1.875269 7.071068 3.673985 6.326016 5 5 
C 6.326016 3.673985 7.071068 1.875269 7.071068 0 
C 7.071068 -1.875269 6.326016 -3.673985 5 -5 
C 3.673985 -6.326016 1.875269 -7.071068 0 -7.071068 
C -1.875269 -7.071068 -3.673985 -6.326016 -5 -5 
C -6.326016 -3.673985 -7.071068 -1.875269 -7.071068 0 
C -7.071068 1.875269 -6.326016 3.673985 -5 5 
C -3.673985 6.326016 -1.875269 7.071068 0 7.071068 
z
" style="stroke: #000000; stroke-width: 3"/>
    </defs>
    <g clip-path="url(#pa5f50922ce)">
     <use xlink:href="#m883aa34985" x="295.140754" y="265.878117" style="fill: #ff0000; stroke: #000000; stroke-width: 3"/>
     <use xlink:href="#m883aa34985" x="307.752122" y="242.368276" style="fill: #ff0000; stroke: #000000; stroke-width: 3"/>
     <use xlink:href="#m883aa34985" x="308.425873" y="249.859364" style="fill: #ff0000; stroke: #000000; stroke-width: 3"/>
     <use xlink:href="#m883aa34985" x="308.572476" y="294.029839" style="fill: #ff0000; stroke: #000000; stroke-width: 3"/>
     <use xlink:href="#m883aa34985" x="311.473218" y="219.733579" style="fill: #ff0000; stroke: #000000; stroke-width: 3"/>
     <use xlink:href="#m883aa34985" x="312.761776" y="146.65992" style="fill: #ff0000; stroke: #000000; stroke-width: 3"/>
     <use xlink:href="#m883aa34985" x="313.438843" y="192.427023" style="fill: #ff0000; stroke: #000000; stroke-width: 3"/>
    </g>
   </g>
   <g id="patch_3">
    <path d="M 90 630 
L 90 86.4 
" style="fill: none; stroke: #262626; stroke-width: 7; stroke-linejoin: miter; stroke-linecap: square"/>
   </g>
   <g id="patch_4">
    <path d="M 648 630 
L 648 86.4 
" style="fill: none; stroke: #262626; stroke-width: 7; stroke-linejoin: miter; stroke-linecap: square"/>
   </g>
   <g id="patch_5">
    <path d="M 90 630 
L 648 630 
" style="fill: none; stroke: #262626; stroke-width: 7; stroke-linejoin: miter; stroke-linecap: square"/>
   </g>
   <g id="patch_6">
    <path d="M 90 86.4 
L 648 86.4 
" style="fill: none; stroke: #262626; stroke-width: 7; stroke-linejoin: miter; stroke-linecap: square"/>
   </g>
  </g>
 </g>
 <defs>
  <clipPath id="pa5f50922ce">
   <rect x="90" y="86.4" width="558" height="543.6"/>
  </clipPath>
 </defs>
</svg>
